<?xml version="1.0" encoding="UTF-8" standalone="no"?>
<!-- Created with Inkscape (http://www.inkscape.org/) -->

<svg
   xmlns:dc="http://purl.org/dc/elements/1.1/"
   xmlns:cc="http://creativecommons.org/ns#"
   xmlns:rdf="http://www.w3.org/1999/02/22-rdf-syntax-ns#"
   xmlns:svg="http://www.w3.org/2000/svg"
   xmlns="http://www.w3.org/2000/svg"
   xmlns:sodipodi="http://sodipodi.sourceforge.net/DTD/sodipodi-0.dtd"
   xmlns:inkscape="http://www.inkscape.org/namespaces/inkscape"
   id="svg2"
   version="1.1"
   inkscape:version="0.48.3.1 r9886"
   width="242.92081"
   height="98.901672"
   xml:space="preserve"
   sodipodi:docname="keislercalc-12-27-13.pdf"><metadata
     id="metadata8"><rdf:RDF><cc:Work
         rdf:about=""><dc:format>image/svg+xml</dc:format><dc:type
           rdf:resource="http://purl.org/dc/dcmitype/StillImage" /><dc:title></dc:title></cc:Work></rdf:RDF></metadata><defs
     id="defs6"><marker
       inkscape:stockid="Arrow1Lend"
       orient="auto"
       refY="0"
       refX="0"
       id="Arrow1Lend"
       style="overflow:visible"><path
         id="path3818"
         d="M 0,0 5,-5 -12.5,0 5,5 0,0 z"
         style="fill-rule:evenodd;stroke:#000000;stroke-width:1pt"
         transform="matrix(-0.8,0,0,-0.8,-10,0)"
         inkscape:connector-curvature="0" /></marker><marker
       inkscape:stockid="Arrow1Lstart"
       orient="auto"
       refY="0"
       refX="0"
       id="Arrow1Lstart"
       style="overflow:visible"><path
         id="path3815"
         d="M 0,0 5,-5 -12.5,0 5,5 0,0 z"
         style="fill-rule:evenodd;stroke:#000000;stroke-width:1pt"
         transform="matrix(0.8,0,0,0.8,10,0)"
         inkscape:connector-curvature="0" /></marker><marker
       inkscape:stockid="DotL"
       orient="auto"
       refY="0"
       refX="0"
       id="DotL"
       style="overflow:visible"><path
         id="path3876"
         d="m -2.5,-1 c 0,2.76 -2.24,5 -5,5 -2.76,0 -5,-2.24 -5,-5 0,-2.76 2.24,-5 5,-5 2.76,0 5,2.24 5,5 z"
         style="fill-rule:evenodd;stroke:#000000;stroke-width:1pt"
         transform="matrix(0.8,0,0,0.8,5.92,0.8)"
         inkscape:connector-curvature="0" /></marker></defs><sodipodi:namedview
     pagecolor="#ffffff"
     bordercolor="#666666"
     borderopacity="1"
     objecttolerance="10"
     gridtolerance="10"
     guidetolerance="10"
     inkscape:pageopacity="0"
     inkscape:pageshadow="2"
     inkscape:window-width="1366"
     inkscape:window-height="744"
     id="namedview4"
     showgrid="false"
     units="mm"
     fit-margin-top="1"
     fit-margin-left="1"
     fit-margin-right="1"
     fit-margin-bottom="1"
     inkscape:zoom="32"
     inkscape:cx="176.75798"
     inkscape:cy="54.125068"
     inkscape:window-x="0"
     inkscape:window-y="24"
     inkscape:window-maximized="1"
     inkscape:current-layer="g10" /><g
     id="g10"
     inkscape:groupmode="layer"
     inkscape:label="keislercalc-12-27-13"
     transform="matrix(1.25,0,0,-1.25,-183.03286,646.88185)"><g
       id="g22" /><path
       sodipodi:type="arc"
       style="fill:none;stroke:#000000;stroke-width:9.76672554;stroke-miterlimit:4;stroke-dasharray:none"
       id="path3767"
       sodipodi:cx="130.32974"
       sodipodi:cy="272.1987"
       sodipodi:rx="19.533451"
       sodipodi:ry="19.533451"
       d="m 149.86319,272.1987 c 0,10.78803 -8.74542,19.53345 -19.53345,19.53345 -10.78802,0 -19.53345,-8.74542 -19.53345,-19.53345 0,-10.78803 8.74543,-19.53345 19.53345,-19.53345 10.78803,0 19.53345,8.74542 19.53345,19.53345 z"
       transform="matrix(0.0870705,0,0,-0.0870705,144.7467,515.75121)" /><path
       transform="matrix(0.0870705,0,0,-0.0870705,165.88125,521.77136)"
       d="m 149.86319,272.1987 c 0,10.78803 -8.74542,19.53345 -19.53345,19.53345 -10.78802,0 -19.53345,-8.74542 -19.53345,-19.53345 0,-10.78803 8.74543,-19.53345 19.53345,-19.53345 10.78803,0 19.53345,8.74542 19.53345,19.53345 z"
       sodipodi:ry="19.533451"
       sodipodi:rx="19.533451"
       sodipodi:cy="272.1987"
       sodipodi:cx="130.32974"
       id="path3769"
       style="fill:none;stroke:#000000;stroke-width:9.76672554;stroke-miterlimit:4;stroke-dasharray:none"
       sodipodi:type="arc" /><path
       sodipodi:type="arc"
       style="fill:none;stroke:#000000;stroke-width:9.76672554;stroke-miterlimit:4;stroke-dasharray:none"
       id="path3771"
       sodipodi:cx="130.32974"
       sodipodi:cy="272.1987"
       sodipodi:rx="19.533451"
       sodipodi:ry="19.533451"
       d="m 149.86319,272.1987 c 0,10.78803 -8.74542,19.53345 -19.53345,19.53345 -10.78802,0 -19.53345,-8.74542 -19.53345,-19.53345 0,-10.78803 8.74543,-19.53345 19.53345,-19.53345 10.78803,0 19.53345,8.74542 19.53345,19.53345 z"
       transform="matrix(0.0870705,0,0,-0.0870705,156.91508,533.2993)" /><path
       transform="matrix(0.0870705,0,0,-0.0870705,172.60053,494.92878)"
       d="m 149.86319,272.1987 c 0,10.78803 -8.74542,19.53345 -19.53345,19.53345 -10.78802,0 -19.53345,-8.74542 -19.53345,-19.53345 0,-10.78803 8.74543,-19.53345 19.53345,-19.53345 10.78803,0 19.53345,8.74542 19.53345,19.53345 z"
       sodipodi:ry="19.533451"
       sodipodi:rx="19.533451"
       sodipodi:cy="272.1987"
       sodipodi:cx="130.32974"
       id="path3773"
       style="fill:none;stroke:#000000;stroke-width:9.76672554;stroke-miterlimit:4;stroke-dasharray:none"
       sodipodi:type="arc" /><path
       sodipodi:type="arc"
       style="fill:none;stroke:#000000;stroke-width:9.76672554;stroke-miterlimit:4;stroke-dasharray:none"
       id="path3775"
       sodipodi:cx="130.32974"
       sodipodi:cy="272.1987"
       sodipodi:rx="19.533451"
       sodipodi:ry="19.533451"
       d="m 149.86319,272.1987 c 0,10.78803 -8.74542,19.53345 -19.53345,19.53345 -10.78802,0 -19.53345,-8.74542 -19.53345,-19.53345 0,-10.78803 8.74543,-19.53345 19.53345,-19.53345 10.78803,0 19.53345,8.74542 19.53345,19.53345 z"
       transform="matrix(0.0870705,0,0,-0.0870705,186.43406,489.19683)" /><path
       sodipodi:type="arc"
       style="fill:none;stroke:#000000;stroke-width:9.76672554;stroke-miterlimit:4;stroke-dasharray:none"
       id="path3777"
       sodipodi:cx="130.32974"
       sodipodi:cy="272.1987"
       sodipodi:rx="19.533451"
       sodipodi:ry="19.533451"
       d="m 149.86319,272.1987 c 0,10.78803 -8.74542,19.53345 -19.53345,19.53345 -10.78802,0 -19.53345,-8.74542 -19.53345,-19.53345 0,-10.78803 8.74543,-19.53345 19.53345,-19.53345 10.78803,0 19.53345,8.74542 19.53345,19.53345 z"
       transform="matrix(0.0870705,0,0,-0.0870705,159.82373,482.4722)" /><path
       sodipodi:type="arc"
       style="fill:none;stroke:#000000;stroke-width:9.76672554;stroke-miterlimit:4;stroke-dasharray:none"
       id="path3779"
       sodipodi:cx="130.32974"
       sodipodi:cy="272.1987"
       sodipodi:rx="19.533451"
       sodipodi:ry="19.533451"
       d="m 149.86319,272.1987 c 0,10.78803 -8.74542,19.53345 -19.53345,19.53345 -10.78802,0 -19.53345,-8.74542 -19.53345,-19.53345 0,-10.78803 8.74543,-19.53345 19.53345,-19.53345 10.78803,0 19.53345,8.74542 19.53345,19.53345 z"
       transform="matrix(0.0870705,0,0,-0.0870705,187.0158,519.46577)" /><path
       transform="matrix(0.0870705,0,0,-0.0870705,198.79991,532.27459)"
       d="m 149.86319,272.1987 c 0,10.78803 -8.74542,19.53345 -19.53345,19.53345 -10.78802,0 -19.53345,-8.74542 -19.53345,-19.53345 0,-10.78803 8.74543,-19.53345 19.53345,-19.53345 10.78803,0 19.53345,8.74542 19.53345,19.53345 z"
       sodipodi:ry="19.533451"
       sodipodi:rx="19.533451"
       sodipodi:cy="272.1987"
       sodipodi:cx="130.32974"
       id="path3781"
       style="fill:none;stroke:#000000;stroke-width:9.76672554;stroke-miterlimit:4;stroke-dasharray:none"
       sodipodi:type="arc" /><path
       sodipodi:type="arc"
       style="fill:none;stroke:#000000;stroke-width:9.76672554;stroke-miterlimit:4;stroke-dasharray:none"
       id="path3783"
       sodipodi:cx="130.32974"
       sodipodi:cy="272.1987"
       sodipodi:rx="19.533451"
       sodipodi:ry="19.533451"
       d="m 149.86319,272.1987 c 0,10.78803 -8.74542,19.53345 -19.53345,19.53345 -10.78802,0 -19.53345,-8.74542 -19.53345,-19.53345 0,-10.78803 8.74543,-19.53345 19.53345,-19.53345 10.78803,0 19.53345,8.74542 19.53345,19.53345 z"
       transform="matrix(0.0870705,0,0,-0.0870705,212.12108,517.80062)" /><path
       transform="matrix(0.0870705,0,0,-0.0870705,224.03328,509.85915)"
       d="m 149.86319,272.1987 c 0,10.78803 -8.74542,19.53345 -19.53345,19.53345 -10.78802,0 -19.53345,-8.74542 -19.53345,-19.53345 0,-10.78803 8.74543,-19.53345 19.53345,-19.53345 10.78803,0 19.53345,8.74542 19.53345,19.53345 z"
       sodipodi:ry="19.533451"
       sodipodi:rx="19.533451"
       sodipodi:cy="272.1987"
       sodipodi:cx="130.32974"
       id="path3785"
       style="fill:none;stroke:#000000;stroke-width:9.76672554;stroke-miterlimit:4;stroke-dasharray:none"
       sodipodi:type="arc" /><path
       sodipodi:type="arc"
       style="fill:none;stroke:#000000;stroke-width:9.76672554;stroke-miterlimit:4;stroke-dasharray:none"
       id="path3787"
       sodipodi:cx="130.32974"
       sodipodi:cy="272.1987"
       sodipodi:rx="19.533451"
       sodipodi:ry="19.533451"
       d="m 149.86319,272.1987 c 0,10.78803 -8.74542,19.53345 -19.53345,19.53345 -10.78802,0 -19.53345,-8.74542 -19.53345,-19.53345 0,-10.78803 8.74543,-19.53345 19.53345,-19.53345 10.78803,0 19.53345,8.74542 19.53345,19.53345 z"
       transform="matrix(0.0870705,0,0,-0.0870705,250.16327,517.03209)" /><path
       transform="matrix(0.0870705,0,0,-0.0870705,247.34533,487.44372)"
       d="m 149.86319,272.1987 c 0,10.78803 -8.74542,19.53345 -19.53345,19.53345 -10.78802,0 -19.53345,-8.74542 -19.53345,-19.53345 0,-10.78803 8.74543,-19.53345 19.53345,-19.53345 10.78803,0 19.53345,8.74542 19.53345,19.53345 z"
       sodipodi:ry="19.533451"
       sodipodi:rx="19.533451"
       sodipodi:cy="272.1987"
       sodipodi:cx="130.32974"
       id="path3789"
       style="fill:none;stroke:#000000;stroke-width:9.76672554;stroke-miterlimit:4;stroke-dasharray:none"
       sodipodi:type="arc" /><path
       sodipodi:type="arc"
       style="fill:none;stroke:#000000;stroke-width:9.76672554;stroke-miterlimit:4;stroke-dasharray:none"
       id="path3791"
       sodipodi:cx="130.32974"
       sodipodi:cy="272.1987"
       sodipodi:rx="19.533451"
       sodipodi:ry="19.533451"
       d="m 149.86319,272.1987 c 0,10.78803 -8.74542,19.53345 -19.53345,19.53345 -10.78802,0 -19.53345,-8.74542 -19.53345,-19.53345 0,-10.78803 8.74543,-19.53345 19.53345,-19.53345 10.78803,0 19.53345,8.74542 19.53345,19.53345 z"
       transform="matrix(0.0870705,0,0,-0.0870705,204.82005,481.80784)" /><path
       sodipodi:type="arc"
       style="fill:none;stroke:#000000;stroke-width:9.76672554;stroke-miterlimit:4;stroke-dasharray:none"
       id="path3793"
       sodipodi:cx="130.32974"
       sodipodi:cy="272.1987"
       sodipodi:rx="19.533451"
       sodipodi:ry="19.533451"
       d="m 149.86319,272.1987 c 0,10.78803 -8.74542,19.53345 -19.53345,19.53345 -10.78802,0 -19.53345,-8.74542 -19.53345,-19.53345 0,-10.78803 8.74543,-19.53345 19.53345,-19.53345 10.78803,0 19.53345,8.74542 19.53345,19.53345 z"
       transform="matrix(0.0870705,0,0,-0.0870705,266.30238,475.65961)" /><path
       transform="matrix(0.0870705,0,0,-0.0870705,293.32899,487.44372)"
       d="m 149.86319,272.1987 c 0,10.78803 -8.74542,19.53345 -19.53345,19.53345 -10.78802,0 -19.53345,-8.74542 -19.53345,-19.53345 0,-10.78803 8.74543,-19.53345 19.53345,-19.53345 10.78803,0 19.53345,8.74542 19.53345,19.53345 z"
       sodipodi:ry="19.533451"
       sodipodi:rx="19.533451"
       sodipodi:cy="272.1987"
       sodipodi:cx="130.32974"
       id="path3795"
       style="fill:none;stroke:#000000;stroke-width:9.76672554;stroke-miterlimit:4;stroke-dasharray:none"
       sodipodi:type="arc" /><path
       sodipodi:type="arc"
       style="fill:none;stroke:#000000;stroke-width:9.76672554;stroke-miterlimit:4;stroke-dasharray:none"
       id="path3797"
       sodipodi:cx="130.32974"
       sodipodi:cy="272.1987"
       sodipodi:rx="19.533451"
       sodipodi:ry="19.533451"
       d="m 149.86319,272.1987 c 0,10.78803 -8.74542,19.53345 -19.53345,19.53345 -10.78802,0 -19.53345,-8.74542 -19.53345,-19.53345 0,-10.78803 8.74543,-19.53345 19.53345,-19.53345 10.78803,0 19.53345,8.74542 19.53345,19.53345 z"
       transform="matrix(0.0870705,0,0,-0.0870705,303.19178,498.45931)" /><path
       transform="matrix(0.0870705,0,0,-0.0870705,324.45442,509.73107)"
       d="m 149.86319,272.1987 c 0,10.78803 -8.74542,19.53345 -19.53345,19.53345 -10.78802,0 -19.53345,-8.74542 -19.53345,-19.53345 0,-10.78803 8.74543,-19.53345 19.53345,-19.53345 10.78803,0 19.53345,8.74542 19.53345,19.53345 z"
       sodipodi:ry="19.533451"
       sodipodi:rx="19.533451"
       sodipodi:cy="272.1987"
       sodipodi:cx="130.32974"
       id="path3799"
       style="fill:none;stroke:#000000;stroke-width:9.76672554;stroke-miterlimit:4;stroke-dasharray:none"
       sodipodi:type="arc" /><path
       sodipodi:type="arc"
       style="fill:none;stroke:#000000;stroke-width:9.76672554;stroke-miterlimit:4;stroke-dasharray:none"
       id="path3801"
       sodipodi:cx="130.32974"
       sodipodi:cy="272.1987"
       sodipodi:rx="19.533451"
       sodipodi:ry="19.533451"
       d="m 149.86319,272.1987 c 0,10.78803 -8.74542,19.53345 -19.53345,19.53345 -10.78802,0 -19.53345,-8.74542 -19.53345,-19.53345 0,-10.78803 8.74543,-19.53345 19.53345,-19.53345 10.78803,0 19.53345,8.74542 19.53345,19.53345 z"
       transform="matrix(0.0870705,0,0,-0.0870705,316.51295,521.25901)" /><path
       transform="matrix(0.0870705,0,0,-0.0870705,281.92914,521.13092)"
       d="m 149.86319,272.1987 c 0,10.78803 -8.74542,19.53345 -19.53345,19.53345 -10.78802,0 -19.53345,-8.74542 -19.53345,-19.53345 0,-10.78803 8.74543,-19.53345 19.53345,-19.53345 10.78803,0 19.53345,8.74542 19.53345,19.53345 z"
       sodipodi:ry="19.533451"
       sodipodi:rx="19.533451"
       sodipodi:cy="272.1987"
       sodipodi:cx="130.32974"
       id="path3803"
       style="fill:none;stroke:#000000;stroke-width:9.76672554;stroke-miterlimit:4;stroke-dasharray:none"
       sodipodi:type="arc" /><path
       sodipodi:type="arc"
       style="fill:none;stroke:#000000;stroke-width:9.76672554;stroke-miterlimit:4;stroke-dasharray:none"
       id="path3805"
       sodipodi:cx="130.32974"
       sodipodi:cy="272.1987"
       sodipodi:rx="19.533451"
       sodipodi:ry="19.533451"
       d="m 149.86319,272.1987 c 0,10.78803 -8.74542,19.53345 -19.53345,19.53345 -10.78802,0 -19.53345,-8.74542 -19.53345,-19.53345 0,-10.78803 8.74543,-19.53345 19.53345,-19.53345 10.78803,0 19.53345,8.74542 19.53345,19.53345 z"
       transform="matrix(0.0870705,0,0,-0.0870705,296.40311,536.24533)" /><path
       transform="matrix(0.0870705,0,0,-0.0870705,260.85863,533.17122)"
       d="m 149.86319,272.1987 c 0,10.78803 -8.74542,19.53345 -19.53345,19.53345 -10.78802,0 -19.53345,-8.74542 -19.53345,-19.53345 0,-10.78803 8.74543,-19.53345 19.53345,-19.53345 10.78803,0 19.53345,8.74542 19.53345,19.53345 z"
       sodipodi:ry="19.533451"
       sodipodi:rx="19.533451"
       sodipodi:cy="272.1987"
       sodipodi:cx="130.32974"
       id="path3807"
       style="fill:none;stroke:#000000;stroke-width:9.76672554;stroke-miterlimit:4;stroke-dasharray:none"
       sodipodi:type="arc" /><path
       style="color:#000000;fill:none;stroke:#000000;stroke-width:0.85039370000000003;stroke-linecap:butt;stroke-linejoin:miter;stroke-miterlimit:4;stroke-opacity:1;stroke-dasharray:none;stroke-dashoffset:0;marker:none;visibility:visible;display:inline;overflow:visible;enable-background:accumulate"
       d="m 149.52643,475.55575 48.41735,17.93235"
       id="path6301"
       inkscape:connector-curvature="0" /><path
       style="color:#000000;fill:none;stroke:#000000;stroke-width:0.85039370000000003;stroke-linecap:butt;stroke-linejoin:miter;stroke-miterlimit:4;stroke-opacity:1;stroke-dasharray:none;stroke-dashoffset:0;marker:none;visibility:visible;display:inline;overflow:visible;enable-background:accumulate"
       d="m 197.94378,493.4881 18.95704,-32.79058"
       id="path6299"
       inkscape:connector-curvature="0" /><path
       style="color:#000000;fill:none;stroke:#000000;stroke-width:0.85039370000000003;stroke-linecap:butt;stroke-linejoin:miter;stroke-miterlimit:4;stroke-opacity:1;stroke-dasharray:none;stroke-dashoffset:0;marker:none;visibility:visible;display:inline;overflow:visible;enable-background:accumulate"
       d="m 216.90082,460.69752 108.36262,37.91411"
       id="path6297"
       inkscape:connector-curvature="0" /><path
       style="color:#000000;fill:none;stroke:#000000;stroke-width:0.85039370000000003;stroke-linecap:butt;stroke-linejoin:miter;stroke-miterlimit:4;stroke-opacity:1;stroke-dasharray:none;stroke-dashoffset:0;marker:none;visibility:visible;display:inline;overflow:visible;enable-background:accumulate"
       d="m 325.26344,498.61163 -50.9791,9.99087"
       id="path6295"
       inkscape:connector-curvature="0" /><path
       sodipodi:type="star"
       style="fill:#000000;fill-opacity:1;stroke:none"
       id="path7055"
       sodipodi:sides="3"
       sodipodi:cx="187.40906"
       sodipodi:cy="275.36087"
       sodipodi:r1="4.5009208"
       sodipodi:r2="2.2504604"
       sodipodi:arg1="0"
       sodipodi:arg2="1.0471976"
       inkscape:flatsided="false"
       inkscape:rounded="0"
       inkscape:randomized="0"
       d="m 191.90998,275.36087 -3.37569,1.94896 -3.37569,1.94895 0,-3.89791 0,-3.89791 3.37569,1.94895 z"
       transform="matrix(0.74992748,0.27858349,0.15414012,-0.41493454,-10.276954,546.1693)"
       inkscape:transform-center-x="-0.67928321"
       inkscape:transform-center-y="0.61902346" /><path
       inkscape:transform-center-y="0.42329145"
       inkscape:transform-center-x="0.35913097"
       transform="matrix(0.40553701,-0.68959388,-0.38155199,-0.22438345,236.48549,667.97126)"
       d="m 191.90998,275.36087 -3.37569,1.94896 -3.37569,1.94895 0,-3.89791 0,-3.89791 3.37569,1.94895 z"
       inkscape:randomized="0"
       inkscape:rounded="0"
       inkscape:flatsided="false"
       sodipodi:arg2="1.0471976"
       sodipodi:arg1="0"
       sodipodi:r2="2.2504604"
       sodipodi:r1="4.5009208"
       sodipodi:cy="275.36087"
       sodipodi:cx="187.40906"
       sodipodi:sides="3"
       id="path7059"
       style="fill:#000000;fill-opacity:1;stroke:none"
       sodipodi:type="star" /><path
       sodipodi:type="star"
       style="fill:#000000;fill-opacity:1;stroke:none"
       id="path7061"
       sodipodi:sides="3"
       sodipodi:cx="187.40906"
       sodipodi:cy="275.36087"
       sodipodi:r1="4.5009208"
       sodipodi:r2="2.2504604"
       sodipodi:arg1="0"
       sodipodi:arg2="1.0471976"
       inkscape:flatsided="false"
       inkscape:rounded="0"
       inkscape:randomized="0"
       d="m 191.90998,275.36087 -3.37569,1.94896 -3.37569,1.94895 0,-3.89791 0,-3.89791 3.37569,1.94895 z"
       transform="matrix(0.74992748,0.27858349,0.15414012,-0.41493454,72.980375,536.4346)"
       inkscape:transform-center-x="-0.67928321"
       inkscape:transform-center-y="0.61902346" /><path
       sodipodi:type="star"
       style="fill:#000000;fill-opacity:1;stroke:none"
       id="path7063"
       sodipodi:sides="3"
       sodipodi:cx="187.40906"
       sodipodi:cy="275.36087"
       sodipodi:r1="4.5009208"
       sodipodi:r2="2.2504604"
       sodipodi:arg1="0"
       sodipodi:arg2="1.0471976"
       inkscape:flatsided="false"
       inkscape:rounded="0"
       inkscape:randomized="0"
       d="m 191.90998,275.36087 -3.37569,1.94896 -3.37569,1.94895 0,-3.89791 0,-3.89791 3.37569,1.94895 z"
       transform="matrix(0.29905323,-0.74200212,-0.41054945,-0.16546602,345.57016,655.74148)"
       inkscape:transform-center-x="0.57954874"
       inkscape:transform-center-y="0.64053254" /><path
       inkscape:transform-center-y="0.38944287"
       inkscape:transform-center-x="0.92163871"
       transform="matrix(-0.78793103,0.13843653,0.07659687,0.43596189,426.44362,357.59993)"
       d="m 191.90998,275.36087 -3.37569,1.94896 -3.37569,1.94895 0,-3.89791 0,-3.89791 3.37569,1.94895 z"
       inkscape:randomized="0"
       inkscape:rounded="0"
       inkscape:flatsided="false"
       sodipodi:arg2="1.0471976"
       sodipodi:arg1="0"
       sodipodi:r2="2.2504604"
       sodipodi:r1="4.5009208"
       sodipodi:cy="275.36087"
       sodipodi:cx="187.40906"
       sodipodi:sides="3"
       id="path7065"
       style="fill:#000000;fill-opacity:1;stroke:none"
       sodipodi:type="star" /><rect
       style="fill:#ffffff;fill-opacity:1;stroke:none"
       id="rect7069"
       width="1.7296852"
       height="2.1463621"
       x="414.51398"
       y="-386.6713"
       transform="matrix(0.96018283,0.27937238,0.29875015,-0.95433136,0,0)" /><path
       style="color:#000000;fill:none;stroke:#000000;stroke-width:0.85039370000000003;stroke-linecap:butt;stroke-linejoin:miter;stroke-miterlimit:4;stroke-opacity:1;stroke-dasharray:none;stroke-dashoffset:0;marker:none;visibility:visible;display:inline;overflow:visible;enable-background:accumulate"
       d="m 274.28434,508.6025 25.61764,-67.11821"
       id="path3809"
       inkscape:connector-curvature="0" /></g></svg>