<?xml version="1.0" encoding="UTF-8" standalone="no"?>
<!-- Created with Inkscape (http://www.inkscape.org/) -->

<svg
   xmlns:dc="http://purl.org/dc/elements/1.1/"
   xmlns:cc="http://creativecommons.org/ns#"
   xmlns:rdf="http://www.w3.org/1999/02/22-rdf-syntax-ns#"
   xmlns:svg="http://www.w3.org/2000/svg"
   xmlns="http://www.w3.org/2000/svg"
   xmlns:sodipodi="http://sodipodi.sourceforge.net/DTD/sodipodi-0.dtd"
   xmlns:inkscape="http://www.inkscape.org/namespaces/inkscape"
   id="svg2"
   version="1.1"
   inkscape:version="0.48.3.1 r9886"
   width="230.02228"
   height="205.575"
   xml:space="preserve"
   sodipodi:docname="keislercalc-12-27-13.pdf"><metadata
     id="metadata8"><rdf:RDF><cc:Work
         rdf:about=""><dc:format>image/svg+xml</dc:format><dc:type
           rdf:resource="http://purl.org/dc/dcmitype/StillImage" /><dc:title></dc:title></cc:Work></rdf:RDF></metadata><defs
     id="defs6" /><sodipodi:namedview
     pagecolor="#ffffff"
     bordercolor="#666666"
     borderopacity="1"
     objecttolerance="10"
     gridtolerance="10"
     guidetolerance="10"
     inkscape:pageopacity="0"
     inkscape:pageshadow="2"
     inkscape:window-width="1366"
     inkscape:window-height="744"
     id="namedview4"
     showgrid="false"
     showguides="true"
     inkscape:guide-bbox="true"
     units="mm"
     fit-margin-top="1"
     fit-margin-left="1"
     fit-margin-right="1"
     fit-margin-bottom="1"
     inkscape:zoom="1.5706089"
     inkscape:cx="167.50792"
     inkscape:cy="170.56474"
     inkscape:window-x="0"
     inkscape:window-y="24"
     inkscape:window-maximized="1"
     inkscape:current-layer="g10"><sodipodi:guide
       orientation="1,0"
       position="55.526887,105.83803"
       id="guide3817" /><sodipodi:guide
       orientation="1,0"
       position="29.470877,105.38782"
       id="guide3844" /><sodipodi:guide
       orientation="1,0"
       position="81.886237,98.836957"
       id="guide3846" /><sodipodi:guide
       orientation="1,0"
       position="134.41364,126.04129"
       id="guide3848" /><sodipodi:guide
       orientation="1,0"
       position="160.59509,98.972297"
       id="guide3850" /><sodipodi:guide
       orientation="1,0"
       position="186.87621,98.803467"
       id="guide3852" /></sodipodi:namedview><g
     id="g10"
     inkscape:groupmode="layer"
     inkscape:label="keislercalc-12-27-13"
     transform="matrix(1.25,0,0,-1.25,-211.22827,606.14649)"><g
       id="g22" /><path
       style="color:#000000;fill:none;stroke:#000000;stroke-width:0.53100002;stroke-linecap:round;stroke-linejoin:miter;stroke-miterlimit:4;stroke-opacity:1;stroke-dasharray:none;stroke-dashoffset:0;marker:none;visibility:visible;display:inline;overflow:visible;enable-background:accumulate"
       d="m 290.83686,466.8697 0,-197.82949"
       id="path3767"
       inkscape:connector-curvature="0"
       transform="matrix(0.8,0,0,-0.8,24,697)"
       sodipodi:nodetypes="cc" /><path
       style="color:#000000;fill:none;stroke:#000000;stroke-width:0.53100002;stroke-linecap:round;stroke-linejoin:miter;stroke-miterlimit:4;stroke-opacity:1;stroke-dasharray:none;stroke-dashoffset:0;marker:none;visibility:visible;display:inline;overflow:visible;enable-background:accumulate"
       d="m 185.03708,371.875 222.40466,0"
       id="path3769"
       inkscape:connector-curvature="0"
       transform="matrix(0.8,0,0,-0.8,24,697)" /><path
       style="color:#000000;fill:none;stroke:#000000;stroke-width:0.42480001;stroke-linecap:round;stroke-linejoin:miter;stroke-miterlimit:4;stroke-opacity:1;stroke-dasharray:none;stroke-dashoffset:0;marker:none;visibility:visible;display:inline;overflow:visible;enable-background:accumulate"
       d="m 213.49418,394.8178 0,8.7341"
       id="path3771"
       inkscape:connector-curvature="0" /><path
       inkscape:connector-curvature="0"
       id="path3773"
       d="m 234.65414,394.8178 0,8.7341"
       style="color:#000000;fill:none;stroke:#000000;stroke-width:0.42480001;stroke-linecap:round;stroke-linejoin:miter;stroke-miterlimit:4;stroke-opacity:1;stroke-dasharray:none;stroke-dashoffset:0;marker:none;visibility:visible;display:inline;overflow:visible;enable-background:accumulate" /><path
       style="color:#000000;fill:none;stroke:#000000;stroke-width:0.42480001;stroke-linecap:round;stroke-linejoin:miter;stroke-miterlimit:4;stroke-opacity:1;stroke-dasharray:none;stroke-dashoffset:0;marker:none;visibility:visible;display:inline;overflow:visible;enable-background:accumulate"
       d="m 276.61389,394.8178 0,8.7341"
       id="path3775"
       inkscape:connector-curvature="0" /><text
       xml:space="preserve"
       style="font-size:9.60000038px;font-style:normal;font-variant:normal;font-weight:normal;font-stretch:normal;text-indent:0;text-align:start;text-decoration:none;line-height:125%;letter-spacing:0px;word-spacing:0px;text-transform:none;direction:ltr;block-progression:tb;writing-mode:lr-tb;text-anchor:start;baseline-shift:baseline;color:#000000;fill:#000000;fill-opacity:1;fill-rule:nonzero;stroke:none;stroke-width:1.953125;marker:none;visibility:visible;display:inline;overflow:visible;enable-background:accumulate;font-family:Times New Roman;-inkscape-font-specification:Times New Roman"
       x="261.48749"
       y="-388.09808"
       id="text3781"
       sodipodi:linespacing="125%"
       transform="scale(1,-1)"><tspan
         sodipodi:role="line"
         id="tspan3783"
         x="261.48749"
         y="-388.09808">0</tspan></text>
<text
       xml:space="preserve"
       style="font-size:9.60000038px;font-style:normal;font-variant:normal;font-weight:normal;font-stretch:normal;text-indent:0;text-align:center;text-decoration:none;line-height:125%;letter-spacing:0px;word-spacing:0px;text-transform:none;direction:ltr;block-progression:tb;writing-mode:lr-tb;text-anchor:middle;baseline-shift:baseline;color:#000000;fill:#000000;fill-opacity:1;fill-rule:nonzero;stroke:none;stroke-width:1.953125;marker:none;visibility:visible;display:inline;overflow:visible;enable-background:accumulate;font-family:Times New Roman;-inkscape-font-specification:Times New Roman"
       x="277.35217"
       y="-383.30328"
       id="text3785"
       sodipodi:linespacing="125%"
       transform="scale(1,-1)"><tspan
         sodipodi:role="line"
         id="tspan3787"
         x="277.35217"
         y="-383.30328">1</tspan></text>
<g
       id="g3819"><path
         style="color:#000000;fill:none;stroke:#000000;stroke-width:0.42480001;stroke-linecap:round;stroke-linejoin:miter;stroke-miterlimit:4;stroke-opacity:1;stroke-dasharray:none;stroke-dashoffset:0;marker:none;visibility:visible;display:inline;overflow:visible;enable-background:accumulate"
         d="m 297.49751,394.8178 0,8.7341"
         id="path3777"
         inkscape:connector-curvature="0" /><path
         inkscape:connector-curvature="0"
         id="path3779"
         d="m 318.38113,394.8178 0,8.7341"
         style="color:#000000;fill:none;stroke:#000000;stroke-width:0.42480001;stroke-linecap:round;stroke-linejoin:miter;stroke-miterlimit:4;stroke-opacity:1;stroke-dasharray:none;stroke-dashoffset:0;marker:none;visibility:visible;display:inline;overflow:visible;enable-background:accumulate" /><text
         xml:space="preserve"
         style="font-size:9.60000038px;font-style:normal;font-variant:normal;font-weight:normal;font-stretch:normal;text-indent:0;text-align:center;text-decoration:none;line-height:125%;letter-spacing:0px;word-spacing:0px;text-transform:none;direction:ltr;block-progression:tb;writing-mode:lr-tb;text-anchor:middle;baseline-shift:baseline;color:#000000;fill:#000000;fill-opacity:1;fill-rule:nonzero;stroke:none;stroke-width:1.953125;marker:none;visibility:visible;display:inline;overflow:visible;enable-background:accumulate;font-family:Times New Roman;-inkscape-font-specification:Times New Roman"
         x="297.97186"
         y="-383.30328"
         id="text3789"
         sodipodi:linespacing="125%"
         transform="scale(1,-1)"><tspan
           sodipodi:role="line"
           id="tspan3791"
           x="297.97186"
           y="-383.30328">2</tspan></text>
<text
         transform="scale(1,-1)"
         sodipodi:linespacing="125%"
         id="text3793"
         y="-383.30328"
         x="318.99677"
         style="font-size:9.60000038px;font-style:normal;font-variant:normal;font-weight:normal;font-stretch:normal;text-indent:0;text-align:center;text-decoration:none;line-height:125%;letter-spacing:0px;word-spacing:0px;text-transform:none;direction:ltr;block-progression:tb;writing-mode:lr-tb;text-anchor:middle;baseline-shift:baseline;color:#000000;fill:#000000;fill-opacity:1;fill-rule:nonzero;stroke:none;stroke-width:1.953125;marker:none;visibility:visible;display:inline;overflow:visible;enable-background:accumulate;font-family:Times New Roman;-inkscape-font-specification:Times New Roman"
         xml:space="preserve"><tspan
           y="-383.30328"
           x="318.99677"
           id="tspan3795"
           sodipodi:role="line">3</tspan></text>
</g><text
       xml:space="preserve"
       style="font-size:9.60000038px;font-style:normal;font-variant:normal;font-weight:normal;font-stretch:normal;text-indent:0;text-align:center;text-decoration:none;line-height:125%;letter-spacing:0px;word-spacing:0px;text-transform:none;direction:ltr;block-progression:tb;writing-mode:lr-tb;text-anchor:middle;baseline-shift:baseline;color:#000000;fill:#000000;fill-opacity:1;fill-rule:nonzero;stroke:none;stroke-width:1.953125;marker:none;visibility:visible;display:inline;overflow:visible;enable-background:accumulate;font-family:Times New Roman;-inkscape-font-specification:Times New Roman"
       x="209.778"
       y="-383.30319"
       id="text3797"
       sodipodi:linespacing="125%"
       transform="scale(1,-1)"><tspan
         sodipodi:role="line"
         x="209.778"
         y="-383.30319"
         id="tspan3801">−2</tspan></text>
<text
       transform="scale(1,-1)"
       sodipodi:linespacing="125%"
       id="text3805"
       y="-383.30319"
       x="233.08107"
       style="font-size:9.60000038px;font-style:normal;font-variant:normal;font-weight:normal;font-stretch:normal;text-indent:0;text-align:center;text-decoration:none;line-height:125%;letter-spacing:0px;word-spacing:0px;text-transform:none;direction:ltr;block-progression:tb;writing-mode:lr-tb;text-anchor:middle;baseline-shift:baseline;color:#000000;fill:#000000;fill-opacity:1;fill-rule:nonzero;stroke:none;stroke-width:1.953125;marker:none;visibility:visible;display:inline;overflow:visible;enable-background:accumulate;font-family:Times New Roman;-inkscape-font-specification:Times New Roman"
       xml:space="preserve"><tspan
         id="tspan3807"
         y="-383.30319"
         x="233.08107"
         sodipodi:role="line">−1</tspan></text>
<text
       xml:space="preserve"
       style="font-size:9.60000038px;font-style:normal;font-variant:normal;font-weight:normal;font-stretch:normal;text-indent:0;text-align:start;text-decoration:none;line-height:125%;letter-spacing:0px;word-spacing:0px;text-transform:none;direction:ltr;block-progression:tb;writing-mode:lr-tb;text-anchor:start;baseline-shift:baseline;color:#000000;fill:#000000;fill-opacity:1;fill-rule:nonzero;stroke:none;stroke-width:1.953125;marker:none;visibility:visible;display:inline;overflow:visible;enable-background:accumulate;font-family:Times New Roman;-inkscape-font-specification:Times New Roman"
       x="250.60001"
       y="-477.84036"
       id="text3809"
       sodipodi:linespacing="125%"
       transform="scale(1,-1)"><tspan
         sodipodi:role="line"
         id="tspan3811"
         x="250.60001"
         y="-477.84036"
         style="font-style:italic">y</tspan></text>
<text
       xml:space="preserve"
       style="font-size:12px;font-style:normal;font-variant:normal;font-weight:normal;font-stretch:normal;text-indent:0;text-align:start;text-decoration:none;line-height:125%;letter-spacing:0px;word-spacing:0px;text-transform:none;direction:ltr;block-progression:tb;writing-mode:lr-tb;text-anchor:start;baseline-shift:baseline;color:#000000;fill:#000000;fill-opacity:1;fill-rule:nonzero;stroke:none;stroke-width:1.953125;marker:none;visibility:visible;display:inline;overflow:visible;enable-background:accumulate;font-family:Times New Roman;-inkscape-font-specification:Times New Roman"
       x="401.755"
       y="382.34698"
       id="text3813"
       sodipodi:linespacing="125%"
       transform="matrix(0.8,0,0,-0.8,24,697)"><tspan
         sodipodi:role="line"
         id="tspan3815"
         x="401.755"
         y="382.34698"
         style="font-style:italic">x</tspan></text>
<path
       style="color:#000000;fill:none;stroke:#000000;stroke-width:0.42480001;stroke-linecap:round;stroke-linejoin:miter;stroke-miterlimit:4;stroke-opacity:1;stroke-dasharray:none;stroke-dashoffset:0;marker:none;visibility:visible;display:inline;overflow:visible;enable-background:accumulate"
       d="m 192.57005,394.8178 0,8.7341"
       id="path3829"
       inkscape:connector-curvature="0" /><text
       xml:space="preserve"
       style="font-size:9.60000038px;font-style:normal;font-variant:normal;font-weight:normal;font-stretch:normal;text-indent:0;text-align:center;text-decoration:none;line-height:125%;letter-spacing:0px;word-spacing:0px;text-transform:none;direction:ltr;block-progression:tb;writing-mode:lr-tb;text-anchor:middle;baseline-shift:baseline;color:#000000;fill:#000000;fill-opacity:1;fill-rule:nonzero;stroke:none;stroke-width:1.953125;marker:none;visibility:visible;display:inline;overflow:visible;enable-background:accumulate;font-family:Times New Roman;-inkscape-font-specification:Times New Roman"
       x="189.60623"
       y="-383.30328"
       id="text3833"
       sodipodi:linespacing="125%"
       transform="scale(1,-1)"><tspan
         sodipodi:role="line"
         id="tspan3835"
         x="189.60623"
         y="-383.30328">−3</tspan></text>
<path
       style="color:#000000;fill:none;stroke:#000000;stroke-width:0.53100002;stroke-linecap:round;stroke-linejoin:miter;stroke-miterlimit:4;stroke-opacity:1;stroke-dasharray:none;stroke-dashoffset:0;marker:none;visibility:visible;display:inline;overflow:visible;enable-background:accumulate"
       d="m 210.69915,450.63261 26.05601,0"
       id="path3854"
       inkscape:connector-curvature="0"
       transform="matrix(0.8,0,0,-0.8,24,697)" /><path
       style="color:#000000;fill:none;stroke:#000000;stroke-width:0.53100002;stroke-linecap:round;stroke-linejoin:miter;stroke-miterlimit:4;stroke-opacity:1;stroke-dasharray:none;stroke-dashoffset:0;marker:none;visibility:visible;display:inline;overflow:visible;enable-background:accumulate"
       d="m 263.11451,424.52808 -26.35935,0"
       id="path3856"
       inkscape:connector-curvature="0"
       transform="matrix(0.8,0,0,-0.8,24,697)" /><path
       style="color:#000000;fill:none;stroke:#000000;stroke-width:0.53100002;stroke-linecap:round;stroke-linejoin:miter;stroke-miterlimit:4;stroke-opacity:1;stroke-dasharray:none;stroke-dashoffset:0;marker:none;visibility:visible;display:inline;overflow:visible;enable-background:accumulate"
       d="m 290.49243,398.90108 -27.37792,0"
       id="path3858"
       inkscape:connector-curvature="0"
       transform="matrix(0.8,0,0,-0.8,24,697)" /><path
       style="color:#000000;fill:none;stroke:#000000;stroke-width:0.53100002;stroke-linecap:round;stroke-linejoin:miter;stroke-miterlimit:4;stroke-opacity:1;stroke-dasharray:none;stroke-dashoffset:0;marker:none;visibility:visible;display:inline;overflow:visible;enable-background:accumulate"
       d="m 315.64191,346.8512 26.18145,0"
       id="path3860"
       inkscape:connector-curvature="0"
       transform="matrix(0.8,0,0,-0.8,24,697)" /><path
       style="color:#000000;fill:none;stroke:#000000;stroke-width:0.53100002;stroke-linecap:round;stroke-linejoin:miter;stroke-miterlimit:4;stroke-opacity:1;stroke-dasharray:none;stroke-dashoffset:0;marker:none;visibility:visible;display:inline;overflow:visible;enable-background:accumulate"
       d="m 341.82336,320.5875 26.28112,0"
       id="path3862"
       inkscape:connector-curvature="0"
       transform="matrix(0.8,0,0,-0.8,24,697)" /><path
       style="color:#000000;fill:none;stroke:#000000;stroke-width:0.53100002;stroke-linecap:round;stroke-linejoin:miter;stroke-miterlimit:4;stroke-opacity:1;stroke-dasharray:none;stroke-dashoffset:0;marker:none;visibility:visible;display:inline;overflow:visible;enable-background:accumulate"
       d="m 368.10448,294.32381 22.34917,0"
       id="path3864"
       inkscape:connector-curvature="0"
       transform="matrix(0.8,0,0,-0.8,24,697)" /><path
       sodipodi:type="arc"
       style="fill:#000000;fill-opacity:1;stroke:none"
       id="path3866"
       sodipodi:cx="194.26642"
       sodipodi:cy="445.25952"
       sodipodi:rx="3.8268008"
       sodipodi:ry="3.8268008"
       d="m 198.09322,445.25952 c 0,2.11349 -1.71332,3.8268 -3.8268,3.8268 -2.11349,0 -3.8268,-1.71331 -3.8268,-3.8268 0,-2.11348 1.71331,-3.8268 3.8268,-3.8268 2.11348,0 3.8268,1.71332 3.8268,3.8268 z"
       transform="matrix(0.44444106,0,0,-0.44444106,127.06416,555.33182)" /><path
       transform="matrix(0.44444106,0,0,-0.44444106,106.21935,534.35195)"
       d="m 198.09322,445.25952 c 0,2.11349 -1.71332,3.8268 -3.8268,3.8268 -2.11349,0 -3.8268,-1.71331 -3.8268,-3.8268 0,-2.11348 1.71331,-3.8268 3.8268,-3.8268 2.11348,0 3.8268,1.71332 3.8268,3.8268 z"
       sodipodi:ry="3.8268008"
       sodipodi:rx="3.8268008"
       sodipodi:cy="445.25952"
       sodipodi:cx="194.26642"
       id="path3868"
       style="fill:#000000;fill-opacity:1;stroke:none"
       sodipodi:type="arc" /><path
       transform="matrix(0.44444106,0,0,-0.44444106,148.15164,575.76975)"
       d="m 198.09322,445.25952 c 0,2.11349 -1.71332,3.8268 -3.8268,3.8268 -2.11349,0 -3.8268,-1.71331 -3.8268,-3.8268 0,-2.11348 1.71331,-3.8268 3.8268,-3.8268 2.11348,0 3.8268,1.71332 3.8268,3.8268 z"
       sodipodi:ry="3.8268008"
       sodipodi:rx="3.8268008"
       sodipodi:cy="445.25952"
       sodipodi:cx="194.26642"
       id="path3870"
       style="fill:#000000;fill-opacity:1;stroke:none"
       sodipodi:type="arc" /><path
       sodipodi:type="arc"
       style="fill:#000000;fill-opacity:1;stroke:none"
       id="path3872"
       sodipodi:cx="194.26642"
       sodipodi:cy="445.25952"
       sodipodi:rx="3.8268008"
       sodipodi:ry="3.8268008"
       d="m 198.09322,445.25952 c 0,2.11349 -1.71332,3.8268 -3.8268,3.8268 -2.11349,0 -3.8268,-1.71331 -3.8268,-3.8268 0,-2.11348 1.71331,-3.8268 3.8268,-3.8268 2.11348,0 3.8268,1.71332 3.8268,3.8268 z"
       transform="matrix(0.44444106,0,0,-0.44444106,170.30865,597.4174)" /><path
       transform="matrix(0.44444106,0,0,-0.44444106,190.17356,617.43282)"
       d="m 198.09322,445.25952 c 0,2.11349 -1.71332,3.8268 -3.8268,3.8268 -2.11349,0 -3.8268,-1.71331 -3.8268,-3.8268 0,-2.11348 1.71331,-3.8268 3.8268,-3.8268 2.11348,0 3.8268,1.71332 3.8268,3.8268 z"
       sodipodi:ry="3.8268008"
       sodipodi:rx="3.8268008"
       sodipodi:cy="445.25952"
       sodipodi:cx="194.26642"
       id="path3874"
       style="fill:#000000;fill-opacity:1;stroke:none"
       sodipodi:type="arc" /><path
       sodipodi:type="arc"
       style="fill:#000000;fill-opacity:1;stroke:none"
       id="path3876"
       sodipodi:cx="194.26642"
       sodipodi:cy="445.25952"
       sodipodi:rx="3.8268008"
       sodipodi:ry="3.8268008"
       d="m 198.09322,445.25952 c 0,2.11349 -1.71332,3.8268 -3.8268,3.8268 -2.11349,0 -3.8268,-1.71331 -3.8268,-3.8268 0,-2.11348 1.71331,-3.8268 3.8268,-3.8268 2.11348,0 3.8268,1.71332 3.8268,3.8268 z"
       transform="matrix(0.44444106,0,0,-0.44444106,211.11872,638.43521)" /><path
       transform="matrix(0.44444106,0,0,-0.44444106,232.14361,659.39464)"
       d="m 198.09322,445.25952 c 0,2.11349 -1.71332,3.8268 -3.8268,3.8268 -2.11349,0 -3.8268,-1.71331 -3.8268,-3.8268 0,-2.11348 1.71331,-3.8268 3.8268,-3.8268 2.11348,0 3.8268,1.71332 3.8268,3.8268 z"
       sodipodi:ry="3.8268008"
       sodipodi:rx="3.8268008"
       sodipodi:cy="445.25952"
       sodipodi:cx="194.26642"
       id="path3878"
       style="fill:#000000;fill-opacity:1;stroke:none"
       sodipodi:type="arc" /><path
       sodipodi:type="arc"
       style="fill:#ffffff;fill-opacity:1;stroke:#000000;stroke-width:0.95670021;stroke-miterlimit:4;stroke-dasharray:none"
       id="path3880"
       sodipodi:cx="194.26642"
       sodipodi:cy="445.25952"
       sodipodi:rx="3.8268008"
       sodipodi:ry="3.8268008"
       d="m 198.09322,445.25952 c 0,2.11349 -1.71332,3.8268 -3.8268,3.8268 -2.11349,0 -3.8268,-1.71331 -3.8268,-3.8268 0,-2.11348 1.71331,-3.8268 3.8268,-3.8268 2.11348,0 3.8268,1.71332 3.8268,3.8268 z"
       transform="matrix(0.44444106,0,0,-0.44444106,127.06416,534.35195)" /><path
       transform="matrix(0.44444106,0,0,-0.44444106,148.15164,555.33182)"
       d="m 198.09322,445.25952 c 0,2.11349 -1.71332,3.8268 -3.8268,3.8268 -2.11349,0 -3.8268,-1.71331 -3.8268,-3.8268 0,-2.11348 1.71331,-3.8268 3.8268,-3.8268 2.11348,0 3.8268,1.71332 3.8268,3.8268 z"
       sodipodi:ry="3.8268008"
       sodipodi:rx="3.8268008"
       sodipodi:cy="445.25952"
       sodipodi:cx="194.26642"
       id="path3882"
       style="fill:#ffffff;fill-opacity:1;stroke:#000000;stroke-width:0.95670021;stroke-miterlimit:4;stroke-dasharray:none"
       sodipodi:type="arc" /><path
       sodipodi:type="arc"
       style="fill:#ffffff;fill-opacity:1;stroke:#000000;stroke-width:0.95670021;stroke-miterlimit:4;stroke-dasharray:none"
       id="path3884"
       sodipodi:cx="194.26642"
       sodipodi:cy="445.25952"
       sodipodi:rx="3.8268008"
       sodipodi:ry="3.8268008"
       d="m 198.09322,445.25952 c 0,2.11349 -1.71332,3.8268 -3.8268,3.8268 -2.11349,0 -3.8268,-1.71331 -3.8268,-3.8268 0,-2.11348 1.71331,-3.8268 3.8268,-3.8268 2.11348,0 3.8268,1.71332 3.8268,3.8268 z"
       transform="matrix(0.44444106,0,0,-0.44444106,170.30206,575.76975)" /><path
       transform="matrix(0.44444106,0,0,-0.44444106,190.17356,597.4174)"
       d="m 198.09322,445.25952 c 0,2.11349 -1.71332,3.8268 -3.8268,3.8268 -2.11349,0 -3.8268,-1.71331 -3.8268,-3.8268 0,-2.11348 1.71331,-3.8268 3.8268,-3.8268 2.11348,0 3.8268,1.71332 3.8268,3.8268 z"
       sodipodi:ry="3.8268008"
       sodipodi:rx="3.8268008"
       sodipodi:cy="445.25952"
       sodipodi:cx="194.26642"
       id="path3886"
       style="fill:#ffffff;fill-opacity:1;stroke:#000000;stroke-width:0.95670021;stroke-miterlimit:4;stroke-dasharray:none"
       sodipodi:type="arc" /><path
       sodipodi:type="arc"
       style="fill:#ffffff;fill-opacity:1;stroke:#000000;stroke-width:0.95670021;stroke-miterlimit:4;stroke-dasharray:none"
       id="path3888"
       sodipodi:cx="194.26642"
       sodipodi:cy="445.25952"
       sodipodi:rx="3.8268008"
       sodipodi:ry="3.8268008"
       d="m 198.09322,445.25952 c 0,2.11349 -1.71332,3.8268 -3.8268,3.8268 -2.11349,0 -3.8268,-1.71331 -3.8268,-3.8268 0,-2.11348 1.71331,-3.8268 3.8268,-3.8268 2.11348,0 3.8268,1.71332 3.8268,3.8268 z"
       transform="matrix(0.44444106,0,0,-0.44444106,211.11872,617.43282)" /><path
       transform="matrix(0.44444106,0,0,-0.44444106,232.14361,638.43521)"
       d="m 198.09322,445.25952 c 0,2.11349 -1.71332,3.8268 -3.8268,3.8268 -2.11349,0 -3.8268,-1.71331 -3.8268,-3.8268 0,-2.11348 1.71331,-3.8268 3.8268,-3.8268 2.11348,0 3.8268,1.71332 3.8268,3.8268 z"
       sodipodi:ry="3.8268008"
       sodipodi:rx="3.8268008"
       sodipodi:cy="445.25952"
       sodipodi:cx="194.26642"
       id="path3890"
       style="fill:#ffffff;fill-opacity:1;stroke:#000000;stroke-width:0.95670021;stroke-miterlimit:4;stroke-dasharray:none"
       sodipodi:type="arc" /><path
       sodipodi:type="arc"
       style="fill:#ffffff;fill-opacity:1;stroke:#000000;stroke-width:0.95670021;stroke-miterlimit:4;stroke-dasharray:none"
       id="path3892"
       sodipodi:cx="194.26642"
       sodipodi:cy="445.25952"
       sodipodi:rx="3.8268008"
       sodipodi:ry="3.8268008"
       d="m 198.09322,445.25952 c 0,2.11349 -1.71332,3.8268 -3.8268,3.8268 -2.11349,0 -3.8268,-1.71331 -3.8268,-3.8268 0,-2.11348 1.71331,-3.8268 3.8268,-3.8268 2.11348,0 3.8268,1.71332 3.8268,3.8268 z"
       transform="matrix(0.44444106,0,0,-0.44444106,251.24539,659.39464)" /></g></svg>