<?xml version="1.0" encoding="UTF-8" standalone="no"?>
<!-- Created with Inkscape (http://www.inkscape.org/) -->

<svg
   xmlns:dc="http://purl.org/dc/elements/1.1/"
   xmlns:cc="http://creativecommons.org/ns#"
   xmlns:rdf="http://www.w3.org/1999/02/22-rdf-syntax-ns#"
   xmlns:svg="http://www.w3.org/2000/svg"
   xmlns="http://www.w3.org/2000/svg"
   xmlns:xlink="http://www.w3.org/1999/xlink"
   xmlns:sodipodi="http://sodipodi.sourceforge.net/DTD/sodipodi-0.dtd"
   xmlns:inkscape="http://www.inkscape.org/namespaces/inkscape"
   id="svg2"
   version="1.1"
   inkscape:version="0.48.3.1 r9886"
   width="172.92772"
   height="136.00978"
   xml:space="preserve"
   sodipodi:docname="carbushwallright.svg"><metadata
     id="metadata8"><rdf:RDF><cc:Work
         rdf:about=""><dc:format>image/svg+xml</dc:format><dc:type
           rdf:resource="http://purl.org/dc/dcmitype/StillImage" /><dc:title /></cc:Work></rdf:RDF></metadata><defs
     id="defs6"><marker
       inkscape:stockid="Arrow1Mend"
       orient="auto"
       refY="0"
       refX="0"
       id="Arrow1Mend"
       style="overflow:visible"><path
         id="path4041"
         d="M 0,0 5,-5 -12.5,0 5,5 0,0 z"
         style="fill-rule:evenodd;stroke:#000000;stroke-width:1pt"
         transform="matrix(-0.4,0,0,-0.4,-4,0)"
         inkscape:connector-curvature="0" /></marker><marker
       inkscape:stockid="Arrow1Mstart"
       orient="auto"
       refY="0"
       refX="0"
       id="Arrow1Mstart"
       style="overflow:visible"><path
         id="path4038"
         d="M 0,0 5,-5 -12.5,0 5,5 0,0 z"
         style="fill-rule:evenodd;stroke:#000000;stroke-width:1pt"
         transform="matrix(0.4,0,0,0.4,4,0)"
         inkscape:connector-curvature="0" /></marker><marker
       inkscape:stockid="Arrow1Lstart"
       orient="auto"
       refY="0"
       refX="0"
       id="Arrow1Lstart"
       style="overflow:visible"><path
         id="path4032"
         d="M 0,0 5,-5 -12.5,0 5,5 0,0 z"
         style="fill-rule:evenodd;stroke:#000000;stroke-width:1pt"
         transform="matrix(0.8,0,0,0.8,10,0)"
         inkscape:connector-curvature="0" /></marker><marker
       inkscape:stockid="Arrow1Lend"
       orient="auto"
       refY="0"
       refX="0"
       id="Arrow1Lend"
       style="overflow:visible"><path
         id="path4035"
         d="M 0,0 5,-5 -12.5,0 5,5 0,0 z"
         style="fill-rule:evenodd;stroke:#000000;stroke-width:1pt"
         transform="matrix(-0.8,0,0,-0.8,-10,0)"
         inkscape:connector-curvature="0" /></marker><linearGradient
       x1="238.83"
       y1="873.06"
       gradientTransform="matrix(0.99043,0.13799,-0.13799,0.99043,156.31,-32.603)"
       x2="216.56"
       gradientUnits="userSpaceOnUse"
       xlink:href="#linearGradient3759"
       y2="872.65002"
       id="linearGradient4213" /><linearGradient
       x1="229.7"
       y1="873.14001"
       gradientTransform="matrix(0.99043,0.13799,-0.13799,0.99043,146.05,-33.885)"
       x2="205.59"
       gradientUnits="userSpaceOnUse"
       xlink:href="#linearGradient3759"
       y2="867.67999"
       id="linearGradient4211" /><linearGradient
       x1="887.90002"
       y1="528.35999"
       gradientTransform="matrix(0.89332,0,0,0.89332,94.156,361.57)"
       x2="805.28998"
       gradientUnits="userSpaceOnUse"
       xlink:href="#linearGradient3759"
       y2="529.60999"
       id="linearGradient4209" /><linearGradient
       x1="880.71002"
       y1="552.04999"
       gradientTransform="translate(21.438,297.91)"
       x2="835.98999"
       gradientUnits="userSpaceOnUse"
       xlink:href="#linearGradient3759"
       y2="501.07999"
       id="linearGradient4207" /><linearGradient
       x1="897.21997"
       y1="542.40002"
       gradientTransform="translate(21.438,297.91)"
       x2="883.76001"
       gradientUnits="userSpaceOnUse"
       xlink:href="#linearGradient3759"
       y2="535.37"
       id="linearGradient4205" /><linearGradient
       x1="887.90002"
       y1="528.35999"
       gradientTransform="translate(21.438,297.91)"
       x2="876.14001"
       gradientUnits="userSpaceOnUse"
       xlink:href="#linearGradient3759"
       y2="528.41998"
       id="linearGradient4203" /><linearGradient
       x1="238.83"
       y1="873.06"
       gradientTransform="matrix(0.99043,-0.13799,-0.13799,-0.99043,156.31,1482)"
       x2="216.56"
       gradientUnits="userSpaceOnUse"
       xlink:href="#linearGradient3759"
       y2="872.65002"
       id="linearGradient4201" /><linearGradient
       x1="229.7"
       y1="873.14001"
       gradientTransform="matrix(0.99043,-0.13799,-0.13799,-0.99043,146.05,1483.3)"
       x2="205.59"
       gradientUnits="userSpaceOnUse"
       xlink:href="#linearGradient3759"
       y2="867.67999"
       id="linearGradient4199" /><linearGradient
       x1="879.90002"
       y1="537.5"
       gradientTransform="matrix(0.89332,0,0,-0.89332,80.349,1084.2)"
       x2="812.14001"
       gradientUnits="userSpaceOnUse"
       xlink:href="#linearGradient3759"
       y2="533.5"
       id="linearGradient4197" /><linearGradient
       x1="887.90002"
       y1="528.35999"
       gradientTransform="matrix(0.89332,0,0,-0.89332,94.156,1087.8)"
       x2="805.28998"
       gradientUnits="userSpaceOnUse"
       xlink:href="#linearGradient3759"
       y2="529.60999"
       id="linearGradient4195" /><linearGradient
       x1="880.71002"
       y1="552.04999"
       gradientTransform="matrix(1,0,0,-1,21.438,1151.5)"
       x2="835.98999"
       gradientUnits="userSpaceOnUse"
       xlink:href="#linearGradient3759"
       y2="501.07999"
       id="linearGradient4193" /><linearGradient
       x1="897.21997"
       y1="542.40002"
       gradientTransform="matrix(1,0,0,-1,21.438,1151.5)"
       x2="883.76001"
       gradientUnits="userSpaceOnUse"
       xlink:href="#linearGradient3759"
       y2="535.37"
       id="linearGradient4191" /><linearGradient
       x1="879.90002"
       y1="537.5"
       gradientTransform="matrix(1,0,0,-1,27.625,1152.9)"
       x2="815.82001"
       gradientUnits="userSpaceOnUse"
       xlink:href="#linearGradient3759"
       y2="531.90997"
       id="linearGradient4189" /><linearGradient
       x1="887.90002"
       y1="528.35999"
       gradientTransform="matrix(1,0,0,-1,21.438,1151.5)"
       x2="876.14001"
       gradientUnits="userSpaceOnUse"
       xlink:href="#linearGradient3759"
       y2="528.41998"
       id="linearGradient4187" /><linearGradient
       x1="871.33002"
       y1="842.29999"
       gradientTransform="matrix(1,0,0,-1,8.3085,1452)"
       x2="848.15997"
       gradientUnits="userSpaceOnUse"
       xlink:href="#linearGradient3759"
       y2="834.67999"
       id="linearGradient4185" /><linearGradient
       x1="879.90002"
       y1="537.5"
       gradientTransform="translate(27.625,296.49)"
       x2="815.82001"
       gradientUnits="userSpaceOnUse"
       xlink:href="#linearGradient3759"
       y2="531.90997"
       id="linearGradient4155" /><linearGradient
       x1="879.90002"
       y1="537.5"
       gradientTransform="matrix(0.89332,0,0,0.89332,80.349,365.15)"
       x2="812.14001"
       gradientUnits="userSpaceOnUse"
       xlink:href="#linearGradient3759"
       y2="533.5"
       id="linearGradient4153" /><linearGradient
       x1="871.33002"
       y1="842.29999"
       gradientTransform="translate(8.3085,-2.6518)"
       x2="848.15997"
       gradientUnits="userSpaceOnUse"
       xlink:href="#linearGradient3759"
       y2="834.67999"
       id="linearGradient4149" /><linearGradient
       id="linearGradient3759"><stop
         offset="0"
         style="stop-color:#1a1a1a"
         id="stop3761" /><stop
         offset="1"
         style="stop-color:#f30000;stop-opacity:0"
         id="stop3763" /></linearGradient><linearGradient
       inkscape:collect="always"
       xlink:href="#linearGradient3759"
       id="linearGradient3265"
       gradientUnits="userSpaceOnUse"
       gradientTransform="translate(8.3085,-2.6518)"
       x1="871.33002"
       y1="842.29999"
       x2="848.15997"
       y2="834.67999" /><linearGradient
       inkscape:collect="always"
       xlink:href="#linearGradient3759"
       id="linearGradient3267"
       gradientUnits="userSpaceOnUse"
       gradientTransform="translate(21.438,297.91)"
       x1="887.90002"
       y1="528.35999"
       x2="876.14001"
       y2="528.41998" /><linearGradient
       inkscape:collect="always"
       xlink:href="#linearGradient3759"
       id="linearGradient3269"
       gradientUnits="userSpaceOnUse"
       gradientTransform="translate(27.625,296.49)"
       x1="879.90002"
       y1="537.5"
       x2="815.82001"
       y2="531.90997" /><linearGradient
       inkscape:collect="always"
       xlink:href="#linearGradient3759"
       id="linearGradient3271"
       gradientUnits="userSpaceOnUse"
       gradientTransform="translate(21.438,297.91)"
       x1="897.21997"
       y1="542.40002"
       x2="883.76001"
       y2="535.37" /><linearGradient
       inkscape:collect="always"
       xlink:href="#linearGradient3759"
       id="linearGradient3273"
       gradientUnits="userSpaceOnUse"
       gradientTransform="translate(21.438,297.91)"
       x1="880.71002"
       y1="552.04999"
       x2="835.98999"
       y2="501.07999" /><linearGradient
       inkscape:collect="always"
       xlink:href="#linearGradient3759"
       id="linearGradient3275"
       gradientUnits="userSpaceOnUse"
       gradientTransform="matrix(0.89332,0,0,0.89332,94.156,361.57)"
       x1="887.90002"
       y1="528.35999"
       x2="805.28998"
       y2="529.60999" /><linearGradient
       inkscape:collect="always"
       xlink:href="#linearGradient3759"
       id="linearGradient3277"
       gradientUnits="userSpaceOnUse"
       gradientTransform="matrix(0.89332,0,0,0.89332,80.349,365.15)"
       x1="879.90002"
       y1="537.5"
       x2="812.14001"
       y2="533.5" /><linearGradient
       inkscape:collect="always"
       xlink:href="#linearGradient3759"
       id="linearGradient3279"
       gradientUnits="userSpaceOnUse"
       gradientTransform="matrix(0.99043,0.13799,-0.13799,0.99043,146.05,-33.885)"
       x1="229.7"
       y1="873.14001"
       x2="205.59"
       y2="867.67999" /><linearGradient
       inkscape:collect="always"
       xlink:href="#linearGradient3759"
       id="linearGradient3281"
       gradientUnits="userSpaceOnUse"
       gradientTransform="matrix(0.99043,0.13799,-0.13799,0.99043,156.31,-32.603)"
       x1="238.83"
       y1="873.06"
       x2="216.56"
       y2="872.65002" /><linearGradient
       inkscape:collect="always"
       xlink:href="#linearGradient3759"
       id="linearGradient3283"
       gradientUnits="userSpaceOnUse"
       gradientTransform="matrix(1,0,0,-1,8.3085,1452)"
       x1="871.33002"
       y1="842.29999"
       x2="848.15997"
       y2="834.67999" /><linearGradient
       inkscape:collect="always"
       xlink:href="#linearGradient3759"
       id="linearGradient3285"
       gradientUnits="userSpaceOnUse"
       gradientTransform="matrix(1,0,0,-1,21.438,1151.5)"
       x1="887.90002"
       y1="528.35999"
       x2="876.14001"
       y2="528.41998" /><linearGradient
       inkscape:collect="always"
       xlink:href="#linearGradient3759"
       id="linearGradient3287"
       gradientUnits="userSpaceOnUse"
       gradientTransform="matrix(1,0,0,-1,27.625,1152.9)"
       x1="879.90002"
       y1="537.5"
       x2="815.82001"
       y2="531.90997" /><linearGradient
       inkscape:collect="always"
       xlink:href="#linearGradient3759"
       id="linearGradient3289"
       gradientUnits="userSpaceOnUse"
       gradientTransform="matrix(1,0,0,-1,21.438,1151.5)"
       x1="897.21997"
       y1="542.40002"
       x2="883.76001"
       y2="535.37" /><linearGradient
       inkscape:collect="always"
       xlink:href="#linearGradient3759"
       id="linearGradient3291"
       gradientUnits="userSpaceOnUse"
       gradientTransform="matrix(1,0,0,-1,21.438,1151.5)"
       x1="880.71002"
       y1="552.04999"
       x2="835.98999"
       y2="501.07999" /><linearGradient
       inkscape:collect="always"
       xlink:href="#linearGradient3759"
       id="linearGradient3293"
       gradientUnits="userSpaceOnUse"
       gradientTransform="matrix(0.89332,0,0,-0.89332,94.156,1087.8)"
       x1="887.90002"
       y1="528.35999"
       x2="805.28998"
       y2="529.60999" /><linearGradient
       inkscape:collect="always"
       xlink:href="#linearGradient3759"
       id="linearGradient3295"
       gradientUnits="userSpaceOnUse"
       gradientTransform="matrix(0.89332,0,0,-0.89332,80.349,1084.2)"
       x1="879.90002"
       y1="537.5"
       x2="812.14001"
       y2="533.5" /><linearGradient
       inkscape:collect="always"
       xlink:href="#linearGradient3759"
       id="linearGradient3297"
       gradientUnits="userSpaceOnUse"
       gradientTransform="matrix(0.99043,-0.13799,-0.13799,-0.99043,146.05,1483.3)"
       x1="229.7"
       y1="873.14001"
       x2="205.59"
       y2="867.67999" /><linearGradient
       inkscape:collect="always"
       xlink:href="#linearGradient3759"
       id="linearGradient3299"
       gradientUnits="userSpaceOnUse"
       gradientTransform="matrix(0.99043,-0.13799,-0.13799,-0.99043,156.31,1482)"
       x1="238.83"
       y1="873.06"
       x2="216.56"
       y2="872.65002" /><linearGradient
       inkscape:collect="always"
       xlink:href="#linearGradient3759"
       id="linearGradient3304"
       gradientUnits="userSpaceOnUse"
       gradientTransform="matrix(-0.00227832,0.01635274,-0.01635274,-0.00227832,262.39634,534.61593)"
       x1="238.83"
       y1="873.06"
       x2="216.56"
       y2="872.65002" /><linearGradient
       inkscape:collect="always"
       xlink:href="#linearGradient3759"
       id="linearGradient3307"
       gradientUnits="userSpaceOnUse"
       gradientTransform="matrix(-0.00227832,0.01635274,-0.01635274,-0.00227832,262.41781,534.44653)"
       x1="229.7"
       y1="873.14001"
       x2="205.59"
       y2="867.67999" /><linearGradient
       inkscape:collect="always"
       xlink:href="#linearGradient3759"
       id="linearGradient3310"
       gradientUnits="userSpaceOnUse"
       gradientTransform="matrix(0,0.01474938,-0.01474938,0,255.82837,533.36175)"
       x1="879.90002"
       y1="537.5"
       x2="812.14001"
       y2="533.5" /><linearGradient
       inkscape:collect="always"
       xlink:href="#linearGradient3759"
       id="linearGradient3313"
       gradientUnits="userSpaceOnUse"
       gradientTransform="matrix(0,0.01474938,-0.01474938,0,255.8878,533.58972)"
       x1="887.90002"
       y1="528.35999"
       x2="805.28998"
       y2="529.60999" /><linearGradient
       inkscape:collect="always"
       xlink:href="#linearGradient3759"
       id="linearGradient3316"
       gradientUnits="userSpaceOnUse"
       gradientTransform="matrix(0,0.01651075,-0.01651075,0,256.93954,532.38909)"
       x1="880.71002"
       y1="552.04999"
       x2="835.98999"
       y2="501.07999" /><linearGradient
       inkscape:collect="always"
       xlink:href="#linearGradient3759"
       id="linearGradient3319"
       gradientUnits="userSpaceOnUse"
       gradientTransform="matrix(0,0.01651075,-0.01651075,0,256.93954,532.38909)"
       x1="897.21997"
       y1="542.40002"
       x2="883.76001"
       y2="535.37" /><linearGradient
       inkscape:collect="always"
       xlink:href="#linearGradient3759"
       id="linearGradient3322"
       gradientUnits="userSpaceOnUse"
       gradientTransform="matrix(0,0.01651075,-0.01651075,0,256.96265,532.49124)"
       x1="879.90002"
       y1="537.5"
       x2="815.82001"
       y2="531.90997" /><linearGradient
       inkscape:collect="always"
       xlink:href="#linearGradient3759"
       id="linearGradient3325"
       gradientUnits="userSpaceOnUse"
       gradientTransform="matrix(0,0.01651075,-0.01651075,0,256.93954,532.38909)"
       x1="887.90002"
       y1="528.35999"
       x2="876.14001"
       y2="528.41998" /><linearGradient
       inkscape:collect="always"
       xlink:href="#linearGradient3759"
       id="linearGradient3328"
       gradientUnits="userSpaceOnUse"
       gradientTransform="matrix(0,0.01651075,-0.01651075,0,261.90102,532.17231)"
       x1="871.33002"
       y1="842.29999"
       x2="848.15997"
       y2="834.67999" /><linearGradient
       inkscape:collect="always"
       xlink:href="#linearGradient3759"
       id="linearGradient3338"
       gradientUnits="userSpaceOnUse"
       gradientTransform="matrix(0.00227832,0.01635274,0.01635274,-0.00227832,237.38911,534.61593)"
       x1="238.83"
       y1="873.06"
       x2="216.56"
       y2="872.65002" /><linearGradient
       inkscape:collect="always"
       xlink:href="#linearGradient3759"
       id="linearGradient3341"
       gradientUnits="userSpaceOnUse"
       gradientTransform="matrix(0.00227832,0.01635274,0.01635274,-0.00227832,237.36794,534.44653)"
       x1="229.7"
       y1="873.14001"
       x2="205.59"
       y2="867.67999" /><linearGradient
       inkscape:collect="always"
       xlink:href="#linearGradient3759"
       id="linearGradient3344"
       gradientUnits="userSpaceOnUse"
       gradientTransform="matrix(0,0.01474938,0.01474938,0,243.95631,533.36175)"
       x1="879.90002"
       y1="537.5"
       x2="812.14001"
       y2="533.5" /><linearGradient
       inkscape:collect="always"
       xlink:href="#linearGradient3759"
       id="linearGradient3347"
       gradientUnits="userSpaceOnUse"
       gradientTransform="matrix(0,0.01474938,0.01474938,0,243.8972,533.58972)"
       x1="887.90002"
       y1="528.35999"
       x2="805.28998"
       y2="529.60999" /><linearGradient
       inkscape:collect="always"
       xlink:href="#linearGradient3759"
       id="linearGradient3350"
       gradientUnits="userSpaceOnUse"
       gradientTransform="matrix(0,0.01651075,0.01651075,0,242.84613,532.38909)"
       x1="880.71002"
       y1="552.04999"
       x2="835.98999"
       y2="501.07999" /><linearGradient
       inkscape:collect="always"
       xlink:href="#linearGradient3759"
       id="linearGradient3353"
       gradientUnits="userSpaceOnUse"
       gradientTransform="matrix(0,0.01651075,0.01651075,0,242.84613,532.38909)"
       x1="897.21997"
       y1="542.40002"
       x2="883.76001"
       y2="535.37" /><linearGradient
       inkscape:collect="always"
       xlink:href="#linearGradient3759"
       id="linearGradient3356"
       gradientUnits="userSpaceOnUse"
       gradientTransform="matrix(0,0.01651075,0.01651075,0,242.82268,532.49124)"
       x1="879.90002"
       y1="537.5"
       x2="815.82001"
       y2="531.90997" /><linearGradient
       inkscape:collect="always"
       xlink:href="#linearGradient3759"
       id="linearGradient3359"
       gradientUnits="userSpaceOnUse"
       gradientTransform="matrix(0,0.01651075,0.01651075,0,242.84613,532.38909)"
       x1="887.90002"
       y1="528.35999"
       x2="876.14001"
       y2="528.41998" /><linearGradient
       inkscape:collect="always"
       xlink:href="#linearGradient3759"
       id="linearGradient3362"
       gradientUnits="userSpaceOnUse"
       gradientTransform="matrix(0,0.01651075,0.01651075,0,237.88363,532.17231)"
       x1="871.33002"
       y1="842.29999"
       x2="848.15997"
       y2="834.67999" /></defs><sodipodi:namedview
     pagecolor="#ffffff"
     bordercolor="#666666"
     borderopacity="1"
     objecttolerance="10"
     gridtolerance="10"
     guidetolerance="10"
     inkscape:pageopacity="0"
     inkscape:pageshadow="2"
     inkscape:window-width="1366"
     inkscape:window-height="744"
     id="namedview4"
     showgrid="false"
     fit-margin-top="1"
     fit-margin-left="1"
     fit-margin-right="1"
     fit-margin-bottom="1"
     units="mm"
     inkscape:zoom="4.442353"
     inkscape:cx="105.85837"
     inkscape:cy="92.536346"
     inkscape:window-x="0"
     inkscape:window-y="24"
     inkscape:window-maximized="1"
     inkscape:current-layer="g10" /><g
     id="g10"
     inkscape:groupmode="layer"
     inkscape:label="keislercalc-12-27-13"
     transform="matrix(1.25,0,0,-1.25,-262.81303,777.40373)"><g
   id="g22" /><g
   id="g3370"><path
     inkscape:connector-curvature="0"
     id="path3855"
     style="fill:#000000;fill-opacity:0.99607999;stroke:#191919;stroke-width:0.23115049"
     d="m 246.0786,542.11527 c 1.5e-4,-0.0249 0.005,-0.0779 0.0155,-0.1068 l 0.0248,-0.0578 0.59336,0.14292 0.005,-2.0607 c 9e-5,-0.0402 -2.3e-4,-0.0807 -5.1e-4,-0.12125 -5.7e-4,-0.0811 -0.002,-0.16288 -0.004,-0.24509 -0.003,-0.12041 -0.007,-0.2422 -0.0119,-0.36426 -2.7e-4,-0.007 -7.5e-4,-0.0131 -0.001,-0.0196 -0.0104,-0.24653 -0.0246,-0.49543 -0.0402,-0.74349 -0.0212,-0.3356 -0.0447,-0.66902 -0.064,-0.99269 -0.0143,-0.23987 -0.0261,-0.47439 -0.033,-0.69965 -0.005,-0.15469 -0.008,-0.30485 -0.007,-0.44992 4e-4,-0.0712 0.002,-0.14146 0.004,-0.21 0.002,-0.0685 0.006,-0.13836 0.0108,-0.20896 0.002,-0.0353 0.005,-0.0706 0.008,-0.10628 0.009,-0.10681 0.0218,-0.21538 0.0361,-0.32351 2e-5,-1.7e-4 -1e-5,-3.5e-4 0,-5.2e-4 0.01,-0.0722 0.0202,-0.14395 0.0315,-0.21566 0.0112,-0.0717 0.0231,-0.14321 0.0356,-0.2136 0.0125,-0.0702 0.0258,-0.13985 0.0392,-0.20794 3e-5,-1.6e-4 -3e-5,-3.5e-4 0,-5.1e-4 0.007,-0.0341 0.0133,-0.0672 0.0201,-0.10061 0.0205,-0.10008 0.0416,-0.19704 0.0624,-0.28894 4e-5,-1.7e-4 -3e-5,-3.5e-4 0,-5.2e-4 0.0139,-0.0614 0.0277,-0.12031 0.0413,-0.17698 0.0272,-0.11332 0.0534,-0.21654 0.0769,-0.30596 0.0352,-0.13412 0.0648,-0.23745 0.0825,-0.29874 0.0118,-0.0408 0.0186,-0.063 0.0186,-0.063 l 0.0619,-0.22598 c 0.004,-0.0149 0.0114,-0.0294 0.0217,-0.0433 0.003,-0.005 0.007,-0.009 0.0113,-0.0139 0.0162,-0.0182 0.0375,-0.0355 0.0635,-0.0521 1.1e-4,-7e-5 4e-4,8e-5 5.1e-4,0 0.013,-0.008 0.0271,-0.0169 0.0423,-0.0248 1.3e-4,-7e-5 3.9e-4,7e-5 5.2e-4,0 0.0153,-0.008 0.0316,-0.0157 0.049,-0.0232 1.5e-4,-6e-5 3.7e-4,6e-5 5.2e-4,0 0.1405,-0.0605 0.34889,-0.1093 0.598,-0.14756 1.7e-4,-3e-5 3.5e-4,2e-5 5.2e-4,0 0.004,-6e-4 0.008,-9.6e-4 0.0119,-0.002 0.055,-0.008 0.11225,-0.0164 0.17079,-0.0237 0.004,-5.1e-4 0.008,-10e-4 0.0119,-0.002 0.0668,-0.008 0.13543,-0.0156 0.20587,-0.0227 1.7e-4,-2e-5 3.5e-4,10e-6 5.2e-4,0 0.0351,-0.004 0.0709,-0.007 0.1068,-0.0103 1.7e-4,-2e-5 3.5e-4,10e-6 5.2e-4,0 0.0359,-0.003 0.0718,-0.006 0.10835,-0.009 1.6e-4,-10e-6 3.4e-4,10e-6 5.1e-4,0 0.0733,-0.006 0.14771,-0.0112 0.2229,-0.016 1.7e-4,-10e-6 3.4e-4,2e-5 5.1e-4,0 0.22594,-0.0144 0.45882,-0.0241 0.68622,-0.0294 1.8e-4,-10e-6 3.5e-4,0 5.2e-4,0 0.15172,-0.004 0.30071,-0.005 0.44425,-0.005 0.016,0 0.0324,4.6e-4 0.0485,5.2e-4 0.0161,-6e-5 0.0325,-5.2e-4 0.0485,-5.2e-4 0.14354,0 0.29252,0.002 0.44424,0.005 1.8e-4,10e-6 3.5e-4,0 5.2e-4,0 0.22742,0.005 0.46028,0.015 0.68622,0.0294 1.7e-4,10e-6 3.5e-4,-10e-6 5.1e-4,0 0.0752,0.005 0.14963,0.0101 0.2229,0.016 1.7e-4,10e-6 3.5e-4,-2e-5 5.1e-4,0 0.0366,0.003 0.0725,0.006 0.10835,0.009 1.7e-4,2e-5 3.5e-4,-10e-6 5.2e-4,0 0.0359,0.003 0.0717,0.007 0.1068,0.0103 1.7e-4,2e-5 3.5e-4,-10e-6 5.2e-4,0 0.0704,0.007 0.13911,0.0144 0.20587,0.0227 0.004,4.9e-4 0.008,10e-4 0.0119,0.002 0.0585,0.007 0.11578,0.0154 0.17079,0.0237 0.004,5.9e-4 0.008,9.5e-4 0.0119,0.002 1.7e-4,2e-5 3.6e-4,-3e-5 5.2e-4,0 0.2491,0.0383 0.45749,0.087 0.598,0.14756 1.5e-4,6e-5 3.7e-4,-6e-5 5.2e-4,0 0.0174,0.008 0.0338,0.0153 0.049,0.0232 1.4e-4,7e-5 3.8e-4,-7e-5 5.2e-4,0 0.0152,0.008 0.0293,0.0165 0.0423,0.0248 1.1e-4,8e-5 4e-4,-7e-5 5.1e-4,0 0.026,0.0166 0.0473,0.034 0.0635,0.0521 0.004,0.005 0.008,0.009 0.0113,0.0139 0.0102,0.014 0.0176,0.0284 0.0217,0.0433 l 0.0619,0.22598 c 0,0 0.007,0.0221 0.0186,0.063 0.0177,0.0613 0.0473,0.16461 0.0825,0.29874 0.0235,0.0894 0.0497,0.19263 0.0769,0.30596 0.0136,0.0567 0.0273,0.11561 0.0413,0.17698 3e-5,1.7e-4 -4e-5,3.5e-4 0,5.2e-4 0.0209,0.0919 0.0419,0.18885 0.0624,0.28893 0.007,0.0334 0.0134,0.0665 0.0201,0.10062 3e-5,1.6e-4 -3e-5,3.5e-4 0,5.1e-4 0.0134,0.0681 0.0267,0.1377 0.0392,0.20794 0.0125,0.0704 0.0244,0.14188 0.0356,0.2136 0.0112,0.0717 0.0219,0.14347 0.0315,0.21566 1e-5,1.7e-4 -2e-5,3.5e-4 0,5.2e-4 0.0143,0.10812 0.0267,0.2167 0.0361,0.32351 0.003,0.0356 0.006,0.071 0.008,0.10628 0.005,0.0706 0.009,0.14043 0.0108,0.20896 0.002,0.0685 0.003,0.13874 0.004,0.21 8.3e-4,0.14507 -0.002,0.29523 -0.007,0.44992 -0.007,0.22524 -0.0187,0.45978 -0.033,0.69964 -0.0193,0.32368 -0.0428,0.6571 -0.064,0.9927 -0.0156,0.24805 -0.0298,0.49694 -0.0402,0.74349 -2.7e-4,0.007 -7.6e-4,0.0131 -0.001,0.0196 -0.005,0.12207 -0.009,0.24386 -0.0119,0.36426 -0.002,0.0822 -0.003,0.16398 -0.004,0.24508 -2.8e-4,0.0405 -6e-4,0.081 -5.1e-4,0.12125 l 0.005,2.06071 0.59336,-0.14292 0.0248,0.0578 c 0.0104,0.0289 0.0153,0.0819 0.0155,0.1068 8e-5,0.014 -10e-4,0.029 -0.004,0.0444 -9.7e-4,0.005 -0.002,0.0103 -0.004,0.0155 -0.001,0.005 -0.003,0.0104 -0.004,0.0155 -0.003,0.0104 -0.007,0.0209 -0.0113,0.031 -0.0131,0.0301 -0.0319,0.0584 -0.0547,0.0789 -1.8e-4,1.7e-4 -3.4e-4,3.6e-4 -5.2e-4,5.2e-4 -0.0115,0.0103 -0.024,0.0184 -0.0377,0.0242 l -0.51699,0.20071 0.004,1.81519 c 0.006,0.0123 0.0123,0.0244 0.0181,0.0366 0.0231,0.0492 0.0429,0.0976 0.0599,0.14602 0.008,0.0241 0.0161,0.0482 0.0232,0.0722 0.0249,0.0842 0.0421,0.16821 0.0537,0.25334 0.007,0.0486 0.0115,0.0978 0.015,0.14757 0.002,0.0249 0.003,0.0501 0.004,0.0753 0.002,0.0505 0.004,0.10135 0.004,0.15375 0.001,0.1048 0,0.21429 0,0.33022 0,0.17187 -0.009,0.33553 -0.0258,0.4917 -0.007,0.0625 -0.0148,0.12369 -0.0242,0.18368 -0.0189,0.12 -0.0432,0.23492 -0.0722,0.34518 -0.007,0.0276 -0.0148,0.0551 -0.0227,0.082 -0.0236,0.0809 -0.0499,0.15872 -0.0789,0.23424 -0.01,0.0252 -0.0192,0.0502 -0.0294,0.0748 -0.0205,0.0492 -0.0422,0.0971 -0.065,0.14395 -0.0114,0.0234 -0.0231,0.0468 -0.0351,0.0697 -0.0239,0.0457 -0.0492,0.0903 -0.0753,0.13363 -0.0131,0.0217 -0.0266,0.0429 -0.0402,0.064 -0.068,0.10558 -0.14241,0.20413 -0.22341,0.29564 -0.0647,0.0731 -0.1334,0.14202 -0.20587,0.20639 -10e-5,8e-5 -4.2e-4,-8e-5 -5.1e-4,0 -0.0181,0.016 -0.0362,0.032 -0.0547,0.0475 -9e-5,8e-5 -4.1e-4,-9e-5 -5.1e-4,0 -0.0185,0.0155 -0.0373,0.031 -0.0562,0.0459 -10e-5,8e-5 -4.1e-4,-9e-5 -5.1e-4,0 -0.0571,0.045 -0.11589,0.0877 -0.17698,0.12795 -1.2e-4,9e-5 -4e-4,-8e-5 -5.2e-4,0 -0.0203,0.0134 -0.0407,0.0269 -0.0614,0.0397 -1.3e-4,8e-5 -3.9e-4,-8e-5 -5.1e-4,0 -0.0624,0.0387 -0.12635,0.0754 -0.19245,0.10938 -1.4e-4,7e-5 -3.8e-4,-6e-5 -5.2e-4,0 -0.0219,0.0113 -0.0442,0.0223 -0.0666,0.033 -1.3e-4,6e-5 -3.7e-4,-7e-5 -5.1e-4,0 -0.0223,0.0108 -0.0449,0.0217 -0.0676,0.032 -1.5e-4,7e-5 -3.8e-4,-6e-5 -5.2e-4,0 -0.0456,0.0206 -0.0917,0.0403 -0.13879,0.0588 -1.5e-4,7e-5 -3.7e-4,-6e-5 -5.2e-4,0 -0.0235,0.009 -0.0473,0.0181 -0.0712,0.0268 -1.5e-4,5e-5 -3.7e-4,-5e-5 -5.1e-4,0 -0.0239,0.009 -0.048,0.0175 -0.0722,0.0258 -0.0242,0.008 -0.0487,0.0165 -0.0733,0.0243 -1.4e-4,5e-5 -3.6e-4,-5e-5 -5.1e-4,0 -0.0246,0.008 -0.0494,0.0154 -0.0743,0.0227 -1.6e-4,5e-5 -3.6e-4,-5e-5 -5.1e-4,0 -0.0249,0.007 -0.0501,0.0144 -0.0753,0.0212 -1.7e-4,5e-5 -3.6e-4,-5e-5 -5.2e-4,0 -0.0761,0.0204 -0.15365,0.0391 -0.2327,0.0552 l -5.2e-4,0 c -0.0262,0.005 -0.0529,0.0101 -0.0795,0.015 l -5.2e-4,0 c -0.18687,0.0343 -0.38077,0.0572 -0.58149,0.0686 -1.7e-4,10e-6 -3.5e-4,-1e-5 -5.2e-4,0 -0.0285,0.002 -0.0574,0.003 -0.0862,0.004 -1.7e-4,0 -3.5e-4,-10e-6 -5.2e-4,0 -0.0577,0.002 -0.11569,0.004 -0.17439,0.005 -1.7e-4,0 -3.4e-4,0 -5.1e-4,0 -0.0294,2.8e-4 -0.0591,1.7e-4 -0.0887,0 -0.0105,0 -0.021,-3.6e-4 -0.0315,-5.1e-4 -0.0105,1.6e-4 -0.021,5.1e-4 -0.0315,5.1e-4 -0.0297,1.7e-4 -0.0593,2.8e-4 -0.0888,0 -1.6e-4,0 -3.4e-4,0 -5.1e-4,0 -0.0587,-5.6e-4 -0.11666,-0.002 -0.17439,-0.005 -1.7e-4,-10e-6 -3.4e-4,0 -5.1e-4,0 -0.0288,-10e-4 -0.0576,-0.003 -0.0862,-0.004 -1.7e-4,-1e-5 -3.4e-4,10e-6 -5.1e-4,0 -0.20073,-0.0115 -0.39461,-0.0344 -0.5815,-0.0686 l -5.1e-4,0 c -0.0266,-0.005 -0.0532,-0.01 -0.0795,-0.015 l -5.2e-4,0 c -0.079,-0.0161 -0.15658,-0.0348 -0.2327,-0.0552 -1.6e-4,-5e-5 -3.5e-4,5e-5 -5.1e-4,0 -0.0253,-0.007 -0.0504,-0.0139 -0.0753,-0.0212 -1.7e-4,-5e-5 -3.5e-4,5e-5 -5.2e-4,0 -0.0249,-0.007 -0.0497,-0.0149 -0.0743,-0.0227 -1.5e-4,-5e-5 -3.6e-4,5e-5 -5.1e-4,0 -0.0246,-0.008 -0.049,-0.016 -0.0733,-0.0243 -0.0242,-0.008 -0.0484,-0.017 -0.0722,-0.0258 -1.5e-4,-5e-5 -3.7e-4,5e-5 -5.2e-4,0 -0.0239,-0.009 -0.0477,-0.0176 -0.0712,-0.0268 -1.5e-4,-6e-5 -3.7e-4,7e-5 -5.2e-4,0 -0.0471,-0.0186 -0.0932,-0.0382 -0.13879,-0.0588 -1.3e-4,-6e-5 -3.7e-4,7e-5 -5.1e-4,0 -0.0227,-0.0103 -0.0452,-0.0212 -0.0676,-0.032 -1.4e-4,-7e-5 -3.9e-4,6e-5 -5.2e-4,0 -0.0223,-0.0108 -0.0446,-0.0217 -0.0666,-0.033 -1.3e-4,-6e-5 -3.8e-4,7e-5 -5.1e-4,0 -0.0661,-0.034 -0.13008,-0.0707 -0.19245,-0.10938 -1.2e-4,-8e-5 -3.9e-4,8e-5 -5.2e-4,0 -0.0207,-0.0128 -0.0411,-0.0264 -0.0614,-0.0397 -1.1e-4,-8e-5 -4e-4,9e-5 -5.1e-4,0 -0.0611,-0.0402 -0.11988,-0.0829 -0.17698,-0.12795 -1e-4,-9e-5 -4.2e-4,8e-5 -5.2e-4,0 -0.019,-0.0149 -0.0377,-0.0304 -0.0562,-0.0459 -9e-5,-9e-5 -4.1e-4,8e-5 -5.1e-4,0 -0.0185,-0.0155 -0.0367,-0.0315 -0.0547,-0.0475 -1e-4,-8e-5 -4.2e-4,8e-5 -5.2e-4,0 -0.0725,-0.0644 -0.14115,-0.13326 -0.20587,-0.20639 -0.081,-0.0915 -0.15539,-0.19007 -0.22341,-0.29564 -0.0136,-0.0211 -0.0272,-0.0423 -0.0402,-0.064 -0.0261,-0.0434 -0.0514,-0.0879 -0.0753,-0.13363 -0.012,-0.0228 -0.0237,-0.0462 -0.0351,-0.0697 -0.0228,-0.0468 -0.0445,-0.0948 -0.065,-0.14395 -0.0103,-0.0246 -0.0197,-0.0496 -0.0294,-0.0748 -0.029,-0.0755 -0.0553,-0.15335 -0.0789,-0.23424 -0.008,-0.027 -0.0154,-0.0545 -0.0227,-0.082 -0.029,-0.11026 -0.0534,-0.22518 -0.0722,-0.34518 -0.009,-0.06 -0.0174,-0.12121 -0.0242,-0.18368 -0.017,-0.15617 -0.0258,-0.31983 -0.0258,-0.4917 0,-0.11592 -10e-4,-0.22541 0,-0.33022 6.2e-4,-0.0524 0.002,-0.10328 0.004,-0.15375 0.001,-0.0252 0.002,-0.0505 0.004,-0.0753 0.004,-0.0497 0.008,-0.0989 0.015,-0.14757 0.0115,-0.0851 0.0288,-0.16913 0.0537,-0.25334 0.007,-0.0241 0.0148,-0.0481 0.0232,-0.0722 0.017,-0.0484 0.0367,-0.0968 0.0598,-0.14602 0.006,-0.0123 0.0119,-0.0243 0.0181,-0.0366 l 0.004,-1.81519 -0.51699,-0.20071 c -0.0137,-0.006 -0.0261,-0.0139 -0.0377,-0.0242 -1.7e-4,-1.7e-4 -3.4e-4,-3.6e-4 -5.2e-4,-5.2e-4 -0.0228,-0.0206 -0.0416,-0.0489 -0.0547,-0.0789 -0.004,-0.0101 -0.008,-0.0206 -0.0113,-0.031 -0.002,-0.005 -0.003,-0.0104 -0.004,-0.0155 -10e-4,-0.005 -0.003,-0.0104 -0.004,-0.0155 -0.003,-0.0154 -0.004,-0.0304 -0.004,-0.0444 z" /><path
     inkscape:connector-curvature="0"
     id="path2853"
     style="fill:#ff5555;fill-opacity:0.99607999"
     d="m 246.0786,542.11527 c 1.5e-4,-0.0249 0.005,-0.0779 0.0155,-0.1068 l 0.0248,-0.0578 0.59181,0.14292 0.005,-2.0607 c 0.003,-1.28723 -0.18994,-2.74937 -0.15685,-3.84585 0.0331,-1.09651 0.4623,-2.51162 0.4623,-2.51162 l 0.0624,-0.22598 c 0.0874,-0.31785 1.6076,-0.42462 2.75366,-0.42462 0.0184,0 0.0372,4.4e-4 0.0557,5.1e-4 0.0185,-7e-5 0.0374,-5.1e-4 0.0557,-5.1e-4 1.14608,0 2.66616,0.10678 2.75366,0.42462 l 0.0624,0.22598 c 0,0 0.42921,1.41515 0.4623,2.51162 0.0331,1.09651 -0.15959,2.55867 -0.15686,3.84585 l 0.005,2.0607 0.59181,-0.14292 0.0248,0.0578 c 0.0104,0.0289 0.0153,0.0819 0.0155,0.1068 9e-5,0.014 -0.001,0.029 -0.004,0.0444 -9.7e-4,0.005 -0.002,0.0103 -0.004,0.0155 -0.001,0.005 -0.003,0.0104 -0.004,0.0155 -0.003,0.0104 -0.007,0.0209 -0.0113,0.031 -0.0131,0.0301 -0.0314,0.0584 -0.0542,0.0789 -1.8e-4,1.7e-4 -3.4e-4,3.6e-4 -5.1e-4,5.2e-4 -0.0115,0.0103 -0.024,0.0184 -0.0377,0.0243 l -0.51596,0.2007 0.004,1.81519 c 0.19717,0.39461 0.17698,0.75142 0.17698,1.21508 0,2.20006 -1.4296,3.09791 -3.32494,3.08751 -0.0129,0 -0.0259,-3.1e-4 -0.0387,-5.1e-4 -0.0128,2e-4 -0.0258,5.1e-4 -0.0387,5.1e-4 -1.89527,0.0104 -3.32494,-0.88744 -3.32494,-3.08751 0,-0.46366 -0.0202,-0.82047 0.17698,-1.21508 l 0.004,-1.81519 -0.51596,-0.2007 c -0.0137,-0.006 -0.0262,-0.0139 -0.0377,-0.0243 -1.7e-4,-1.7e-4 -3.4e-4,-3.5e-4 -5.1e-4,-5.2e-4 -0.0228,-0.0206 -0.0411,-0.0489 -0.0542,-0.0789 -0.004,-0.0101 -0.008,-0.0206 -0.0113,-0.031 -0.002,-0.005 -0.003,-0.0104 -0.004,-0.0155 -0.001,-0.005 -0.003,-0.0103 -0.004,-0.0155 -0.003,-0.0154 -0.004,-0.0304 -0.004,-0.0444 z" /><path
     inkscape:connector-curvature="0"
     id="path3643"
     style="opacity:0.9;fill:#262626;fill-opacity:0.99607999"
     d="m 252.04806,538.64504 c 0,-0.55086 0.0297,-1.07826 0.0836,-1.5654 0.8043,0.42367 0.4997,1.61781 0.5206,3.39395 0.01,0.82036 0.031,1.47842 0.0392,2.00655 -0.38526,-0.77864 -0.6434,-2.20468 -0.6434,-3.83511 z" /><path
     inkscape:connector-curvature="0"
     id="path3658"
     style="opacity:0.5;fill:#000000;fill-opacity:0.99607999"
     d="m 252.04806,538.64504 c 0,-0.0529 4.9e-4,-0.10539 0.001,-0.15788 0.26699,0.0135 0.49956,0.10613 0.64134,0.24096 -0.001,0.0771 -0.003,0.15677 -0.006,0.23836 -0.13526,-0.14142 -0.367,-0.24094 -0.63668,-0.25953 -9e-5,-0.0207 0,-0.0412 0,-0.0619 z" /><path
     inkscape:connector-curvature="0"
     id="path3707"
     style="text-indent:0;text-transform:none;block-progression:tb;color:#000000;fill:#212121;stroke:#191919;stroke-width:0.08255375"
     d="m 251.59006,548.36459 0.01,-0.0841 c 0.0415,-0.35572 0.42893,-0.62226 0.90035,-0.64856 l 0.11764,-0.006 -0.08,0.0867 c -0.24238,0.26234 -0.53671,0.4673 -0.87094,0.6176 l -0.0768,0.0345 z" /><path
     inkscape:connector-curvature="0"
     id="path3715"
     style="opacity:0.5;fill:none;stroke:#292929;stroke-width:0.0990645;stroke-linecap:round;stroke-linejoin:round"
     d="m 251.77167,544.97081 c 0,0 -0.37307,1.31552 -0.52804,1.7399 -0.16184,0.44313 -0.64633,1.63224 -0.64633,1.63224 0,0 0.70121,-0.14432 0.95627,-0.5033 0.90594,-1.27513 0.8891,-3.84189 0.8891,-3.84189" /><path
     inkscape:connector-curvature="0"
     id="path3757"
     style="fill:url(#linearGradient3362)"
     d="m 251.43056,546.39899 0.0387,-0.0733 c 0.0191,0.0163 0.0401,0.0296 0.0635,0.0392 0.19346,0.0792 0.48271,-0.17726 0.59077,-0.44373 0.003,-0.009 0.0139,-0.0299 0.0273,-0.0562 l -0.064,0.22496 c -0.13964,0.28573 -0.3811,0.45355 -0.56136,0.37975 -0.0369,-0.0151 -0.0688,-0.0392 -0.0949,-0.0707 z" /><path
     inkscape:connector-curvature="0"
     id="path3787"
     style="fill:url(#linearGradient3359)"
     d="m 251.35692,546.54065 0.0387,-0.0733 c 0.0191,0.0163 0.0401,0.0296 0.0635,0.0392 0.19345,0.0792 0.4827,-0.17726 0.59077,-0.44373 0.003,-0.009 0.0139,-0.0299 0.0273,-0.0562 l -0.064,0.22496 c -0.13964,0.28573 -0.3811,0.45355 -0.56136,0.37975 -0.0369,-0.0151 -0.0688,-0.0392 -0.0949,-0.0707 z" /><path
     inkscape:connector-curvature="0"
     id="path3752"
     style="fill:url(#linearGradient3356)"
     d="m 251.33348,546.64285 0.0387,-0.0733 c 0.0191,0.0163 0.0401,0.0296 0.0635,0.0392 0.19346,0.0792 0.48271,-0.17726 0.59077,-0.44373 0.003,-0.009 0.0139,-0.0299 0.0274,-0.0562 l -0.064,0.22496 c -0.13964,0.28574 -0.3811,0.45355 -0.56137,0.37975 -0.0369,-0.0151 -0.0688,-0.0392 -0.0949,-0.0707 z" /><path
     inkscape:connector-curvature="0"
     id="path3735"
     style="fill:url(#linearGradient3353)"
     d="m 251.26298,546.92205 0.0304,-0.10216 c 0.0283,0.0159 0.0583,0.0273 0.0903,0.0335 0.26474,0.0515 0.56606,-0.3461 0.63567,-0.71048 0.0107,-0.0561 0.14159,-0.47689 0.14537,-0.53095 l 0.0681,0 -0.20057,0.68419 c -0.0907,0.43398 -0.37063,0.74214 -0.63154,0.69139 -0.0506,-0.01 -0.0967,-0.0323 -0.13776,-0.0655 z" /><path
     inkscape:connector-curvature="0"
     id="path3783"
     style="fill:url(#linearGradient3350)"
     d="m 251.26298,546.92205 0.0304,-0.10216 c 0.0283,0.0159 0.0583,0.0273 0.0903,0.0335 0.26474,0.0515 0.56606,-0.3461 0.63567,-0.71048 0.0107,-0.0561 0.14159,-0.47689 0.14537,-0.53095 l 0.0681,0 -0.20057,0.68419 c -0.0907,0.43398 -0.37063,0.74214 -0.63154,0.69139 -0.0506,-0.01 -0.0967,-0.0323 -0.13776,-0.0655 z" /><path
     inkscape:connector-curvature="0"
     id="path3799"
     style="fill:url(#linearGradient3347)"
     d="m 251.50684,546.18682 0.0346,-0.0655 c 0.0171,0.0146 0.0358,0.0265 0.0567,0.035 0.17282,0.0708 0.43121,-0.15835 0.52775,-0.39639 0.003,-0.008 0.0124,-0.0267 0.0244,-0.0502 l -0.0572,0.20096 c -0.12475,0.25525 -0.34045,0.40517 -0.50148,0.33923 -0.033,-0.0135 -0.0614,-0.035 -0.0848,-0.0631 z" /><path
     inkscape:connector-curvature="0"
     id="path3803"
     style="fill:url(#linearGradient3344)"
     d="m 251.56578,545.95898 0.0346,-0.0654 c 0.0171,0.0146 0.0358,0.0265 0.0567,0.035 0.17281,0.0708 0.43121,-0.15834 0.52775,-0.39639 0.003,-0.008 0.0124,-0.0267 0.0244,-0.0502 l -0.0572,0.20095 c -0.12474,0.25525 -0.34045,0.40517 -0.50148,0.33923 -0.033,-0.0135 -0.0615,-0.035 -0.0848,-0.0631 z" /><path
     inkscape:connector-curvature="0"
     id="rect3861"
     style="fill:url(#linearGradient3341)"
     d="m 251.89088,535.88659 c -0.0334,0.13693 -0.0244,0.25569 0.0956,0.32687 l 0.2955,-0.0412 c 0.10192,-0.11351 0.0817,-0.22702 0.003,-0.34054 l -0.3936,0.0548 z" /><path
     inkscape:connector-curvature="0"
     id="path3864"
     style="fill:url(#linearGradient3338)"
     d="m 251.94487,536.22127 c -0.02,0.13456 -0.009,0.25041 0.0909,0.31111 l 0.28125,-0.0392 c 0.0491,-0.10706 0.086,-0.21436 0.002,-0.32413 l -0.37463,0.0522 z" /><path
     inkscape:connector-curvature="0"
     id="path4025"
     style="text-indent:0;text-transform:none;block-progression:tb;opacity:0.9;color:#000000;fill:#191919"
     d="m 252.00695,538.64504 c 0,-0.55235 0.0296,-1.08132 0.0836,-1.57005 l 0.007,-0.0604 0.0537,0.0284 c 0.20909,0.11014 0.34859,0.27345 0.43651,0.47983 0.0879,0.2064 0.12569,0.45524 0.13931,0.74452 0.0272,0.57857 -0.0435,1.3201 -0.033,2.20567 0.01,0.81991 0.031,1.47785 0.0392,2.00655 l -0.0784,0.0186 c -0.39097,-0.78988 -0.64755,-2.21806 -0.64755,-3.85295 z m 0.0826,0 c 0,1.50527 0.22254,2.83572 0.55672,3.63385 -0.01,-0.49453 -0.0265,-1.07669 -0.0351,-1.80479 -0.0105,-0.89054 0.0603,-1.63416 0.0335,-2.20253 -0.0134,-0.28422 -0.0513,-0.5245 -0.13311,-0.71667 -0.0735,-0.17258 -0.18417,-0.3052 -0.34518,-0.40451 -0.0493,0.46737 -0.0769,0.96976 -0.0769,1.49472 z" /><path
     inkscape:connector-curvature="0"
     id="rect2864"
     style="opacity:0.9;fill:#262626;fill-opacity:0.99607999;stroke:#191919;stroke-width:0.08255375"
     d="m 247.95571,536.33618 0.20587,-1.28369 c 0.0719,-0.44827 0.80528,-0.80816 1.73099,-0.84204 0.92577,0.0339 1.65916,0.39377 1.73099,0.84204 l 0.20587,1.28369 c 0,0.21953 -0.17673,0.39626 -0.39626,0.39626 l -3.08124,0 c -0.21952,0 -0.39625,-0.17673 -0.39625,-0.39626 z" /><path
     inkscape:connector-curvature="0"
     id="path3703"
     style="opacity:0.9;fill:#262626;fill-opacity:0.99607999;stroke:#191919;stroke-width:0.08255375"
     d="m 247.39071,543.45991 c 0,-0.049 0.005,-0.0973 0.016,-0.14499 -1.7e-4,-1.7e-4 -3.5e-4,-3.4e-4 -5.2e-4,-5.1e-4 l 0.20328,-1.0541 c 0.10905,-0.2927 0.23564,-0.52834 0.52835,-0.52834 l 3.50952,0 c 0.2927,0 0.41929,0.23564 0.52834,0.52834 l 0.20328,1.0541 c -1.6e-4,1.7e-4 -3.4e-4,3.4e-4 -5.1e-4,5.1e-4 0.0105,0.0477 0.016,0.096 0.016,0.14499 0,0.7495 -0.9471,1.35715 -2.50187,1.35903 -1.5548,-0.002 -2.50187,-0.60951 -2.50187,-1.35903 z" /><path
     inkscape:connector-curvature="0"
     id="path4157"
     style="opacity:0.9;fill:#262626;fill-opacity:0.99607999"
     d="m 247.73727,538.64504 c 0,-0.55086 -0.0297,-1.07826 -0.0836,-1.5654 -0.80431,0.42367 -0.4997,1.61781 -0.5206,3.39395 -0.01,0.82036 -0.031,1.47842 -0.0392,2.00655 0.38526,-0.77864 0.64341,-2.20468 0.64341,-3.83511 z" /><path
     inkscape:connector-curvature="0"
     id="path4159"
     style="opacity:0.5;fill:#000000;fill-opacity:0.99607999"
     d="m 247.73727,538.64504 c 0,-0.0529 -4.8e-4,-0.10539 -0.001,-0.15788 -0.267,0.0135 -0.49957,0.10613 -0.64134,0.24096 0.001,0.0771 0.003,0.15677 0.006,0.23836 0.13526,-0.14142 0.367,-0.24094 0.63669,-0.25953 8e-5,-0.0207 0,-0.0412 0,-0.0619 z" /><path
     inkscape:connector-curvature="0"
     id="path4161"
     style="text-indent:0;text-transform:none;block-progression:tb;color:#000000;fill:#212121;stroke:#191919;stroke-width:0.08255375"
     d="m 248.19528,548.36459 -0.01,-0.0841 c -0.0415,-0.35572 -0.42894,-0.62226 -0.90035,-0.64856 l -0.11764,-0.006 0.08,0.0867 c 0.24237,0.26234 0.53671,0.4673 0.87094,0.6176 l 0.0769,0.0346 z" /><path
     inkscape:connector-curvature="0"
     id="path4163"
     style="opacity:0.5;fill:none;stroke:#292929;stroke-width:0.0990645;stroke-linecap:round;stroke-linejoin:round"
     d="m 248.01366,544.97081 c 0,0 0.37308,1.31552 0.52805,1.7399 0.16183,0.44313 0.64633,1.63224 0.64633,1.63224 0,0 -0.70121,-0.14432 -0.95627,-0.5033 -0.90595,-1.27513 -0.88927,-3.84189 -0.88927,-3.84189" /><path
     inkscape:connector-curvature="0"
     id="path4165"
     style="fill:url(#linearGradient3328)"
     d="m 248.35477,546.39899 -0.0387,-0.0733 c -0.0191,0.0163 -0.0401,0.0296 -0.0635,0.0392 -0.19345,0.0792 -0.48271,-0.17726 -0.59077,-0.44373 -0.003,-0.009 -0.0139,-0.0299 -0.0273,-0.0562 l 0.064,0.22496 c 0.13964,0.28573 0.3811,0.45355 0.56136,0.37975 0.0369,-0.0151 0.0688,-0.0392 0.0949,-0.0707 z" /><path
     inkscape:connector-curvature="0"
     id="path4167"
     style="fill:url(#linearGradient3325)"
     d="m 248.42841,546.54065 -0.0387,-0.0733 c -0.0191,0.0163 -0.0401,0.0296 -0.0635,0.0392 -0.19346,0.0792 -0.48271,-0.17726 -0.59077,-0.44373 -0.003,-0.009 -0.0139,-0.0299 -0.0273,-0.0562 l 0.064,0.22496 c 0.13964,0.28573 0.3811,0.45355 0.56137,0.37975 0.0369,-0.0151 0.0688,-0.0392 0.0949,-0.0707 z" /><path
     inkscape:connector-curvature="0"
     id="path4169"
     style="fill:url(#linearGradient3322)"
     d="m 248.45169,546.64285 -0.0387,-0.0733 c -0.0191,0.0163 -0.0401,0.0296 -0.0635,0.0392 -0.19346,0.0792 -0.48271,-0.17726 -0.59077,-0.44373 -0.003,-0.009 -0.0139,-0.0299 -0.0273,-0.0562 l 0.064,0.22496 c 0.13964,0.28574 0.3811,0.45355 0.56137,0.37975 0.0369,-0.0151 0.0688,-0.0392 0.0949,-0.0707 z" /><path
     inkscape:connector-curvature="0"
     id="path4171"
     style="fill:url(#linearGradient3319)"
     d="m 248.52236,546.92205 -0.0304,-0.10216 c -0.0283,0.0159 -0.0583,0.0273 -0.0903,0.0335 -0.26473,0.0515 -0.56605,-0.3461 -0.63566,-0.71048 -0.0107,-0.0561 -0.1416,-0.47689 -0.14537,-0.53095 l -0.0681,0 0.20058,0.68419 c 0.0907,0.43398 0.37063,0.74214 0.63153,0.69139 0.0505,-0.01 0.0967,-0.0323 0.13776,-0.0655 z" /><path
     inkscape:connector-curvature="0"
     id="path4173"
     style="fill:url(#linearGradient3316)"
     d="m 248.52236,546.92205 -0.0304,-0.10216 c -0.0283,0.0159 -0.0583,0.0273 -0.0903,0.0335 -0.26473,0.0515 -0.56605,-0.3461 -0.63566,-0.71048 -0.0107,-0.0561 -0.1416,-0.47689 -0.14537,-0.53095 l -0.0681,0 0.20058,0.68419 c 0.0907,0.43398 0.37063,0.74214 0.63153,0.69139 0.0505,-0.01 0.0967,-0.0323 0.13776,-0.0655 z" /><path
     inkscape:connector-curvature="0"
     id="path4175"
     style="fill:url(#linearGradient3313)"
     d="m 248.27849,546.18682 -0.0346,-0.0655 c -0.0171,0.0146 -0.0358,0.0265 -0.0567,0.035 -0.17282,0.0708 -0.43121,-0.15835 -0.52775,-0.39639 -0.003,-0.008 -0.0124,-0.0267 -0.0244,-0.0502 l 0.0572,0.20096 c 0.12474,0.25525 0.34045,0.40517 0.50148,0.33923 0.033,-0.0135 0.0615,-0.035 0.0848,-0.0631 z" /><path
     inkscape:connector-curvature="0"
     id="path4177"
     style="fill:url(#linearGradient3310)"
     d="m 248.21955,545.95898 -0.0346,-0.0654 c -0.0171,0.0146 -0.0358,0.0265 -0.0567,0.035 -0.17282,0.0708 -0.43121,-0.15834 -0.52775,-0.39639 -0.003,-0.008 -0.0124,-0.0267 -0.0244,-0.0502 l 0.0572,0.20095 c 0.12475,0.25525 0.34046,0.40517 0.50149,0.33923 0.033,-0.0135 0.0614,-0.035 0.0848,-0.0631 z" /><path
     inkscape:connector-curvature="0"
     id="path4179"
     style="fill:url(#linearGradient3307)"
     d="m 247.89429,535.88659 c 0.0334,0.13693 0.0244,0.25569 -0.0956,0.32687 l -0.29549,-0.0412 c -0.10193,-0.11351 -0.0817,-0.22702 -0.003,-0.34054 l 0.3936,0.0548 z" /><path
     inkscape:connector-curvature="0"
     id="path4181"
     style="fill:url(#linearGradient3304)"
     d="m 247.84046,536.22127 c 0.02,0.13456 0.009,0.25041 -0.0909,0.31111 l -0.28124,-0.0392 c -0.0491,-0.10706 -0.086,-0.21436 -0.002,-0.32413 l 0.37463,0.0522 z" /><path
     inkscape:connector-curvature="0"
     id="path4183"
     style="text-indent:0;text-transform:none;block-progression:tb;opacity:0.9;color:#000000;fill:#191919"
     d="m 247.77838,538.64504 c 0,-0.55235 -0.0295,-1.08132 -0.0836,-1.57005 l -0.007,-0.0604 -0.0537,0.0284 c -0.20909,0.11014 -0.34859,0.27345 -0.43651,0.47983 -0.0879,0.2064 -0.12569,0.45524 -0.13931,0.74452 -0.0272,0.57857 0.0434,1.3201 0.033,2.20567 -0.01,0.81991 -0.031,1.47785 -0.0392,2.00655 l 0.0784,0.0186 c 0.3909,-0.79002 0.64754,-2.21839 0.64754,-3.85311 z m -0.0825,0 c 0,1.50527 -0.22255,2.83572 -0.55673,3.63385 0.01,-0.49453 0.0265,-1.07669 0.0351,-1.80479 0.0105,-0.89054 -0.0603,-1.63416 -0.0335,-2.20253 0.0134,-0.28422 0.0513,-0.5245 0.13312,-0.71667 0.0735,-0.17258 0.18416,-0.3052 0.34517,-0.40451 0.0493,0.46737 0.0769,0.96976 0.0769,1.49472 z" /></g><path
   style="color:#000000;fill:none;stroke:#000000;stroke-width:0.42480001;stroke-linecap:round;stroke-linejoin:miter;stroke-miterlimit:4;stroke-opacity:1;stroke-dasharray:1.6992, 1.6992;stroke-dashoffset:0;marker:none;visibility:visible;display:inline;overflow:visible;enable-background:accumulate"
   d="m 251.74848,548.24452 64.22317,39.50293"
   id="path4023-6"
   inkscape:connector-curvature="0"
   sodipodi:nodetypes="cc" /><path
   style="color:#000000;fill:none;stroke:#000000;stroke-width:1.0629921;stroke-linecap:round;stroke-linejoin:miter;stroke-miterlimit:4;stroke-opacity:1;stroke-dasharray:none;stroke-dashoffset:0;marker:none;visibility:visible;display:inline;overflow:visible;enable-background:accumulate"
   d="m 288.3607,225.78125 0,-127.860171"
   id="path3247"
   inkscape:connector-curvature="0"
   transform="matrix(0.8,0,0,-0.8,24,697)" /><path
   inkscape:connector-curvature="0"
   id="path4017"
   d="m 243.70339,516.375 0,102.28814"
   style="color:#000000;fill:none;stroke:#000000;stroke-width:0.85039371;stroke-linecap:round;stroke-linejoin:miter;stroke-miterlimit:4;stroke-opacity:1;stroke-dasharray:none;stroke-dashoffset:0;marker:none;visibility:visible;display:inline;overflow:visible;enable-background:accumulate" /><text
   xml:space="preserve"
   style="font-size:12px;font-style:normal;font-variant:normal;font-weight:normal;font-stretch:normal;text-indent:0;text-align:start;text-decoration:none;line-height:125%;letter-spacing:0px;word-spacing:0px;text-transform:none;direction:ltr;block-progression:tb;writing-mode:lr-tb;text-anchor:start;baseline-shift:baseline;color:#000000;fill:#000000;fill-opacity:1;fill-rule:nonzero;stroke:none;stroke-width:1.5625;marker:none;visibility:visible;display:inline;overflow:visible;enable-background:accumulate;font-family:Times New Roman;-inkscape-font-specification:Times New Roman"
   x="285.43433"
   y="185.9375"
   id="text4019"
   sodipodi:linespacing="125%"
   transform="matrix(0.8,0,0,-0.8,24,697)"><tspan
     sodipodi:role="line"
     id="tspan4021"
     x="285.43433"
     y="185.9375" /></text>

<path
   style="color:#000000;fill:none;stroke:#000000;stroke-width:0.70866144;stroke-linecap:round;stroke-linejoin:miter;stroke-miterlimit:4;stroke-opacity:1;stroke-dasharray:none;stroke-dashoffset:0;marker:none;marker-start:url(#Arrow1Mstart);marker-end:url(#Arrow1Mend);visibility:visible;display:inline;overflow:visible;enable-background:accumulate"
   d="m 286.10964,185.9375 78.56197,0"
   id="path4026"
   inkscape:connector-curvature="0"
   transform="matrix(0.8,0,0,-0.8,24,697)"
   sodipodi:nodetypes="cc" /><path
   inkscape:connector-curvature="0"
   id="path5214"
   d="m 252.88771,561.39619 17.73835,0"
   style="color:#000000;fill:none;stroke:#000000;stroke-width:0.56692916;stroke-linecap:round;stroke-linejoin:miter;stroke-miterlimit:4;stroke-opacity:1;stroke-dasharray:none;stroke-dashoffset:0;marker:none;marker-start:url(#Arrow1Mstart);marker-end:url(#Arrow1Mend);visibility:visible;display:inline;overflow:visible;enable-background:accumulate"
   sodipodi:nodetypes="cc" /><g
   id="g5787"><rect
     transform="scale(1,-1)"
     y="-616.50214"
     x="316.09744"
     height="98.68644"
     width="3.7817798"
     id="rect5778"
     style="fill:#999999;fill-opacity:1;stroke:none" /><path
     sodipodi:nodetypes="cc"
     inkscape:connector-curvature="0"
     id="path5785"
     d="m 316.09744,517.8157 0,98.68644"
     style="fill:none;stroke:#000000;stroke-width:0.42519686;stroke-miterlimit:4;stroke-dasharray:none" /></g><text
   xml:space="preserve"
   style="font-size:9.60000038px;font-style:normal;font-variant:normal;font-weight:normal;font-stretch:normal;text-indent:0;text-align:start;text-decoration:none;line-height:125%;letter-spacing:0px;word-spacing:0px;text-transform:none;direction:ltr;block-progression:tb;writing-mode:lr-tb;text-anchor:start;baseline-shift:baseline;color:#000000;fill:#000000;fill-opacity:1;fill-rule:nonzero;stroke:none;stroke-width:1.5625;marker:none;visibility:visible;display:inline;overflow:visible;enable-background:accumulate;font-family:Times New Roman;-inkscape-font-specification:Times New Roman"
   x="256.66949"
   y="-563.28711"
   id="text5791"
   sodipodi:linespacing="125%"
   transform="scale(1,-1)"><tspan
     sodipodi:role="line"
     id="tspan5793"
     x="256.66949"
     y="-563.28711">10</tspan></text>

<text
   transform="scale(1,-1)"
   sodipodi:linespacing="125%"
   id="text5795"
   y="-550.0509"
   x="279.63031"
   style="font-size:9.60000038px;font-style:normal;font-variant:normal;font-weight:normal;font-stretch:normal;text-indent:0;text-align:start;text-decoration:none;line-height:125%;letter-spacing:0px;word-spacing:0px;text-transform:none;direction:ltr;block-progression:tb;writing-mode:lr-tb;text-anchor:start;baseline-shift:baseline;color:#000000;fill:#000000;fill-opacity:1;fill-rule:nonzero;stroke:none;stroke-width:1.5625;marker:none;visibility:visible;display:inline;overflow:visible;enable-background:accumulate;font-family:Times New Roman;-inkscape-font-specification:Times New Roman"
   xml:space="preserve"><tspan
     y="-550.0509"
     x="279.63031"
     id="tspan5797"
     sodipodi:role="line">30</tspan></text>

<path
   sodipodi:type="arc"
   style="fill:#000000;stroke:none"
   id="path5799"
   sodipodi:cx="310.87131"
   sodipodi:cy="169.61732"
   sodipodi:rx="1.6882945"
   sodipodi:ry="1.6882945"
   d="m 312.5596,169.61732 c 0,0.93242 -0.75587,1.6883 -1.68829,1.6883 -0.93242,0 -1.6883,-0.75588 -1.6883,-1.6883 0,-0.93241 0.75588,-1.68829 1.6883,-1.68829 0.93242,0 1.68829,0.75588 1.68829,1.68829 z"
   transform="matrix(1.0073997,0,0,-1.0073997,-40.304549,732.16856)" /><text
   xml:space="preserve"
   style="font-size:12px;font-style:normal;font-variant:normal;font-weight:normal;font-stretch:normal;text-indent:0;text-align:start;text-decoration:none;line-height:125%;letter-spacing:0px;word-spacing:0px;text-transform:none;direction:ltr;block-progression:tb;writing-mode:lr-tb;text-anchor:start;baseline-shift:baseline;color:#000000;fill:#000000;fill-opacity:1;fill-rule:nonzero;stroke:none;stroke-width:1.5625;marker:none;visibility:visible;display:inline;overflow:visible;enable-background:accumulate;font-family:Times New Roman;-inkscape-font-specification:Times New Roman"
   x="377.27753"
   y="162.07626"
   id="text5801"
   sodipodi:linespacing="125%"
   transform="matrix(0.8,0,0,-0.8,24,697)"><tspan
     sodipodi:role="line"
     id="tspan5803"
     x="377.27753"
     y="162.07626">muro</tspan></text>

<text
   xml:space="preserve"
   style="font-size:12px;font-style:normal;font-variant:normal;font-weight:normal;font-stretch:normal;text-indent:0;text-align:start;text-decoration:none;line-height:125%;letter-spacing:0px;word-spacing:0px;text-transform:none;direction:ltr;block-progression:tb;writing-mode:lr-tb;text-anchor:start;baseline-shift:baseline;color:#000000;fill:#000000;fill-opacity:1;fill-rule:nonzero;stroke:none;stroke-width:1.5625;marker:none;visibility:visible;display:inline;overflow:visible;enable-background:accumulate;font-family:Times New Roman;-inkscape-font-specification:Times New Roman"
   x="235.91103"
   y="162.07626"
   id="text5805"
   sodipodi:linespacing="125%"
   transform="matrix(0.8,0,0,-0.8,24,697)"><tspan
     sodipodi:role="line"
     id="tspan5807"
     x="235.91103"
     y="162.07626">estrada</tspan></text>

</g></svg>