<?xml version="1.0" encoding="UTF-8" standalone="no"?>
<!-- Created with Inkscape (http://www.inkscape.org/) -->

<svg
   xmlns:dc="http://purl.org/dc/elements/1.1/"
   xmlns:cc="http://creativecommons.org/ns#"
   xmlns:rdf="http://www.w3.org/1999/02/22-rdf-syntax-ns#"
   xmlns:svg="http://www.w3.org/2000/svg"
   xmlns="http://www.w3.org/2000/svg"
   xmlns:sodipodi="http://sodipodi.sourceforge.net/DTD/sodipodi-0.dtd"
   xmlns:inkscape="http://www.inkscape.org/namespaces/inkscape"
   width="297.30972"
   height="153.84976"
   id="svg4218"
   version="1.1"
   inkscape:version="0.48.3.1 r9886"
   sodipodi:docname="Novo documento 6">
  <defs
     id="defs4220" />
  <sodipodi:namedview
     id="base"
     pagecolor="#ffffff"
     bordercolor="#666666"
     borderopacity="1.0"
     inkscape:pageopacity="0.0"
     inkscape:pageshadow="2"
     inkscape:zoom="0.7"
     inkscape:cx="115.09538"
     inkscape:cy="8.0298561"
     inkscape:document-units="px"
     inkscape:current-layer="layer1"
     showgrid="false"
     units="mm"
     fit-margin-top="1"
     fit-margin-left="1"
     fit-margin-right="1"
     fit-margin-bottom="1"
     inkscape:window-width="1366"
     inkscape:window-height="744"
     inkscape:window-x="0"
     inkscape:window-y="24"
     inkscape:window-maximized="1" />
  <metadata
     id="metadata4223">
    <rdf:RDF>
      <cc:Work
         rdf:about="">
        <dc:format>image/svg+xml</dc:format>
        <dc:type
           rdf:resource="http://purl.org/dc/dcmitype/StillImage" />
        <dc:title></dc:title>
      </cc:Work>
    </rdf:RDF>
  </metadata>
  <g
     inkscape:label="Camada 1"
     inkscape:groupmode="layer"
     id="layer1"
     transform="translate(-225.63086,-386.86587)">
    <path
       style="color:#000000;fill:none;stroke:#000000;stroke-width:0.53100002;stroke-linecap:round;stroke-linejoin:miter;stroke-miterlimit:4;stroke-opacity:1;stroke-dasharray:none;stroke-dashoffset:0;marker:none;visibility:visible;display:inline;overflow:visible;enable-background:accumulate"
       d="m 266.10111,536.90683 0,-146.23215"
       id="path3767"
       inkscape:connector-curvature="0" />
    <path
       style="color:#000000;fill:none;stroke:#000000;stroke-width:0.53100002;stroke-linecap:round;stroke-linejoin:miter;stroke-miterlimit:4;stroke-opacity:1;stroke-dasharray:none;stroke-dashoffset:0;marker:none;visibility:visible;display:inline;overflow:visible;enable-background:accumulate"
       d="m 232.41663,512.32195 199.71226,0"
       id="path3769"
       inkscape:connector-curvature="0" />
    <path
       style="color:#000000;fill:none;stroke:#000000;stroke-width:1.0629921;stroke-linecap:butt;stroke-linejoin:miter;stroke-miterlimit:4;stroke-opacity:1;stroke-dasharray:none;stroke-dashoffset:0;marker:none;visibility:visible;display:inline;overflow:visible;enable-background:accumulate"
       d="m 229.70566,455.80236 c 38.41825,73.68473 52.8564,-28.12491 78.22687,-28.12491 12.22524,0 11.47621,19.54338 20.65952,19.54338 6.4344,0 6.82949,-7.67376 11.28841,-7.67376 6.49083,0 7.39391,12.47368 11.96571,12.47368 3.33007,0 4.34603,-9.36937 8.29697,-9.36937 2.87854,0 3.83964,8.65668 6.09653,8.65668 1.46669,0 1.40671,-3.79497 3.32751,-3.79497 1.29994,0 0.74168,2.36286 1.53187,2.4193 0.95207,0.068 1.5159,-2.68127 2.31061,-2.68127 0.82277,0 0.52505,1.53862 2.92163,1.23301 1.07485,-0.13706 1.95162,-1.23003 2.86838,-1.23003 1.29945,0 0.52151,2.18774 2.29695,2.18774 1.06682,0 1.57716,3.61298 3.33831,3.61298 5.09818,0 11.36202,-14.45656 15.32564,-14.4077 6.05777,0.0747 6.87278,12.77137 12.93101,12.77137 4.66935,0 7.08229,-7.58052 11.81351,-7.94219 3.89861,-0.29803 3.84316,5.15814 10.6162,4.98881"
       id="path3775"
       inkscape:connector-curvature="0"
       sodipodi:nodetypes="cssssssssssssssssc" />
    <path
       style="color:#000000;fill:none;stroke:#000000;stroke-width:1.0629921;stroke-linecap:butt;stroke-linejoin:miter;stroke-miterlimit:4;stroke-opacity:1;stroke-dasharray:none;stroke-dashoffset:0;marker:none;visibility:visible;display:inline;overflow:visible;enable-background:accumulate"
       d="m 447.61418,486.45993 c 2.15516,-0.7583 0.82848,-16.76242 4.62962,-16.76242 4.96168,0 1.73954,17.08171 6.38568,17.08171 4.33056,0 2.13505,-17.24135 6.70497,-17.24135 6.02894,0 1.87319,17.15204 6.74487,17.16152 4.2705,0.008 1.59666,-17.80009 6.98435,-17.80009 6.46477,0 2.35602,18.35884 8.14175,18.35884 3.55394,0 1.52181,-17.72027 6.22604,-17.72027 5.93877,0 1.16188,16.08628 7.02425,16.12385 5.95414,0.0382 3.38553,-16.39157 7.34354,-16.28349 6.04568,0.16509 0.49745,16.89416 6.54532,16.92206 4.46645,0.0206 2.03544,-9.81799 4.43007,-13.01083"
       id="path3777"
       inkscape:connector-curvature="0"
       sodipodi:nodetypes="cssssssssssc" />
    <path
       inkscape:connector-curvature="0"
       style="fill:none;stroke:#000000;stroke-width:0.53149605;stroke-linecap:round;stroke-miterlimit:4;stroke-dasharray:none"
       d="m 482.56902,440.23695 c -20.19949,0 -36.5625,16.36301 -36.5625,36.5625 0,0.84194 0.0378,1.67226 0.0937,2.5 -41.53802,-0.25922 -62.99703,-16.47543 -70.15625,-31.625 6.40088,21.5956 30.96558,33.4326 70.90625,37.03125 3.6158,16.39592 18.236,28.65625 35.7188,28.65625 20.19949,0 36.5625,-16.36301 36.5625,-36.5625 0,-20.19949 -16.36301,-36.5625 -36.5625,-36.5625 z"
       id="path3990" />
    <path
       style="color:#000000;fill:none;stroke:#000000;stroke-width:0.53100002;stroke-linecap:round;stroke-linejoin:miter;stroke-miterlimit:4;stroke-opacity:1;stroke-dasharray:3.186, 3.186;stroke-dashoffset:0;marker:none;visibility:visible;display:inline;overflow:visible;enable-background:accumulate"
       d="m 376.30489,512.14095 0,-80.63228"
       id="path3771-4"
       inkscape:connector-curvature="0"
       sodipodi:nodetypes="cc" />
    <path
       sodipodi:nodetypes="cc"
       inkscape:connector-curvature="0"
       id="path3986"
       d="m 266.4522,447.78051 109.86924,0"
       style="color:#000000;fill:none;stroke:#000000;stroke-width:0.53100002;stroke-linecap:round;stroke-linejoin:miter;stroke-miterlimit:4;stroke-opacity:1;stroke-dasharray:3.186, 3.186;stroke-dashoffset:0;marker:none;visibility:visible;display:inline;overflow:visible;enable-background:accumulate" />
    <path
       sodipodi:type="arc"
       style="fill:#000000;fill-opacity:1;stroke:none"
       id="path3988"
       sodipodi:cx="226.05319"
       sodipodi:cy="368.78445"
       sodipodi:rx="13.729219"
       sodipodi:ry="13.729219"
       d="m 239.78241,368.78445 c 0,7.58244 -6.14678,13.72922 -13.72922,13.72922 -7.58244,0 -13.72922,-6.14678 -13.72922,-13.72922 0,-7.58243 6.14678,-13.72922 13.72922,-13.72922 7.58244,0 13.72922,6.14679 13.72922,13.72922 z"
       transform="matrix(0.15485106,0,0,0.15485106,341.30022,390.64929)" />
    <path
       transform="matrix(0.15485106,0,0,0.15485106,448.39183,420.50236)"
       d="m 239.78241,368.78445 c 0,7.58244 -6.14678,13.72922 -13.72922,13.72922 -7.58244,0 -13.72922,-6.14678 -13.72922,-13.72922 0,-7.58243 6.14678,-13.72922 13.72922,-13.72922 7.58244,0 13.72922,6.14679 13.72922,13.72922 z"
       sodipodi:ry="13.729219"
       sodipodi:rx="13.729219"
       sodipodi:cy="368.78445"
       sodipodi:cx="226.05319"
       id="path3995"
       style="fill:#000000;fill-opacity:1;stroke:none"
       sodipodi:type="arc" />
    <text
       xml:space="preserve"
       style="font-size:12px;font-style:oblique;font-variant:normal;font-weight:normal;font-stretch:normal;text-indent:0;text-align:center;text-decoration:none;line-height:125%;letter-spacing:0px;word-spacing:0px;text-transform:none;direction:ltr;block-progression:tb;writing-mode:lr-tb;text-anchor:middle;baseline-shift:baseline;color:#000000;fill:#000000;fill-opacity:1;fill-rule:nonzero;stroke:none;stroke-width:1.953125;marker:none;visibility:visible;display:inline;overflow:visible;enable-background:accumulate;font-family:Times New Roman;-inkscape-font-specification:'Times New Roman, Italic'"
       x="487.08121"
       y="498.47253"
       id="text3997"
       sodipodi:linespacing="125%"><tspan
         sodipodi:role="line"
         id="tspan3999"
         x="487.08121"
         y="498.47253"><tspan
   style="font-style:normal;-inkscape-font-specification:'Times New Roman,'"
   id="tspan4007">(</tspan>c<tspan
   style="font-style:normal;-inkscape-font-specification:'Times New Roman,'"
   id="tspan4009">, </tspan>f<tspan
   style="font-style:normal;-inkscape-font-specification:'Times New Roman,'"
   id="tspan4005"
   dx="1.806144">(</tspan>c<tspan
   style="font-style:normal;-inkscape-font-specification:'Times New Roman,'"
   id="tspan4003">))</tspan></tspan></text>
    <text
       sodipodi:linespacing="125%"
       id="text4013"
       y="451.17413"
       x="254.31438"
       style="font-size:12px;font-style:oblique;font-variant:normal;font-weight:normal;font-stretch:normal;text-indent:0;text-align:center;text-decoration:none;line-height:125%;letter-spacing:0px;word-spacing:0px;text-transform:none;direction:ltr;block-progression:tb;writing-mode:lr-tb;text-anchor:middle;baseline-shift:baseline;color:#000000;fill:#000000;fill-opacity:1;fill-rule:nonzero;stroke:none;stroke-width:1.953125;marker:none;visibility:visible;display:inline;overflow:visible;enable-background:accumulate;font-family:Times New Roman;-inkscape-font-specification:'Times New Roman, Italic'"
       xml:space="preserve"><tspan
         y="451.17413"
         x="254.31438"
         id="tspan4015"
         sodipodi:role="line">f<tspan
   dx="1.806144"
   id="tspan4021"
   style="font-style:normal;-inkscape-font-specification:'Times New Roman,'">(</tspan>c<tspan
   id="tspan4023"
   style="font-style:normal;-inkscape-font-specification:'Times New Roman,'">)</tspan></tspan></text>
    <text
       xml:space="preserve"
       style="font-size:12px;font-style:oblique;font-variant:normal;font-weight:normal;font-stretch:normal;text-indent:0;text-align:center;text-decoration:none;line-height:125%;letter-spacing:0px;word-spacing:0px;text-transform:none;direction:ltr;block-progression:tb;writing-mode:lr-tb;text-anchor:middle;baseline-shift:baseline;color:#000000;fill:#000000;fill-opacity:1;fill-rule:nonzero;stroke:none;stroke-width:1.953125;marker:none;visibility:visible;display:inline;overflow:visible;enable-background:accumulate;font-family:Times New Roman;-inkscape-font-specification:'Times New Roman, Italic'"
       x="254.31438"
       y="399.4733"
       id="text4025"
       sodipodi:linespacing="125%"><tspan
         sodipodi:role="line"
         id="tspan4027"
         x="254.31438"
         y="399.4733">f<tspan
   style="font-style:normal;-inkscape-font-specification:'Times New Roman,'"
   id="tspan4029"
   dx="1.806144">(<tspan
   style="font-style:italic;-inkscape-font-specification:'Times New Roman, Italic'"
   id="tspan4033">x</tspan>)</tspan></tspan></text>
    <text
       xml:space="preserve"
       style="font-size:12px;font-style:oblique;font-variant:normal;font-weight:normal;font-stretch:normal;text-indent:0;text-align:center;text-decoration:none;line-height:125%;letter-spacing:0px;word-spacing:0px;text-transform:none;direction:ltr;block-progression:tb;writing-mode:lr-tb;text-anchor:middle;baseline-shift:baseline;color:#000000;fill:#000000;fill-opacity:1;fill-rule:nonzero;stroke:none;stroke-width:1.953125;marker:none;visibility:visible;display:inline;overflow:visible;enable-background:accumulate;font-family:Times New Roman;-inkscape-font-specification:'Times New Roman, Italic'"
       x="377.08209"
       y="523.01508"
       id="text4035"
       sodipodi:linespacing="125%"><tspan
         sodipodi:role="line"
         id="tspan4037"
         x="377.08209"
         y="523.01508">c</tspan></text>
    <text
       sodipodi:linespacing="125%"
       id="text4039"
       y="523.01508"
       x="428.48685"
       style="font-size:12px;font-style:oblique;font-variant:normal;font-weight:normal;font-stretch:normal;text-indent:0;text-align:center;text-decoration:none;line-height:125%;letter-spacing:0px;word-spacing:0px;text-transform:none;direction:ltr;block-progression:tb;writing-mode:lr-tb;text-anchor:middle;baseline-shift:baseline;color:#000000;fill:#000000;fill-opacity:1;fill-rule:nonzero;stroke:none;stroke-width:1.953125;marker:none;visibility:visible;display:inline;overflow:visible;enable-background:accumulate;font-family:Times New Roman;-inkscape-font-specification:'Times New Roman, Italic'"
       xml:space="preserve"><tspan
         y="523.01508"
         x="428.48685"
         id="tspan4041"
         sodipodi:role="line">x</tspan></text>
  </g>
</svg>
