<?xml version="1.0" encoding="UTF-8" standalone="no"?>
<!-- Created with Inkscape (http://www.inkscape.org/) -->

<svg
   xmlns:dc="http://purl.org/dc/elements/1.1/"
   xmlns:cc="http://creativecommons.org/ns#"
   xmlns:rdf="http://www.w3.org/1999/02/22-rdf-syntax-ns#"
   xmlns:svg="http://www.w3.org/2000/svg"
   xmlns="http://www.w3.org/2000/svg"
   xmlns:sodipodi="http://sodipodi.sourceforge.net/DTD/sodipodi-0.dtd"
   xmlns:inkscape="http://www.inkscape.org/namespaces/inkscape"
   id="svg2"
   version="1.1"
   inkscape:version="0.48.3.1 r9886"
   width="293.7"
   height="232.5"
   xml:space="preserve"
   sodipodi:docname="inexistentlimit.pdf"><metadata
     id="metadata8"><rdf:RDF><cc:Work
         rdf:about=""><dc:format>image/svg+xml</dc:format><dc:type
           rdf:resource="http://purl.org/dc/dcmitype/StillImage" /><dc:title></dc:title></cc:Work></rdf:RDF></metadata><defs
     id="defs6">




<clipPath
   clipPathUnits="userSpaceOnUse"
   id="clipPath3937"><path
     sodipodi:nodetypes="ccccccc"
     inkscape:connector-curvature="0"
     id="path3939"
     d="m 219.35686,61.22991 c 0,0 1.05474,-5.911017 2.70921,-5.911017 5.42403,0 9.62247,124.131347 16.50159,124.131347 7.32746,0 6.77715,-127.086856 16.00901,-127.086856 9.52505,-0.735899 10.47625,138.073816 17.24046,138.170016 8.37575,0 3.70708,-145.066202 12.06833,-145.066202 2.08986,0 3.44809,5.911017 3.44809,5.911017"
     style="color:#000000;fill:none;stroke:#000000;stroke-width:0.85039365;stroke-linecap:round;stroke-linejoin:miter;stroke-miterlimit:4;stroke-opacity:1;stroke-dasharray:none;stroke-dashoffset:0;marker:none;visibility:visible;display:inline;overflow:visible;enable-background:accumulate" /></clipPath><clipPath
   clipPathUnits="userSpaceOnUse"
   id="clipPath3945"><path
     transform="translate(1.5673951,-2.612325)"
     d="m 288.4007,43.541817 a 36.746708,36.746708 0 1 1 -73.49342,0 36.746708,36.746708 0 1 1 73.49342,0 z"
     sodipodi:ry="36.746708"
     sodipodi:rx="36.746708"
     sodipodi:cy="43.541817"
     sodipodi:cx="251.65399"
     id="path3947"
     style="opacity:0.45;fill:#000000;fill-opacity:1;stroke:none"
     sodipodi:type="arc" /></clipPath><clipPath
   clipPathUnits="userSpaceOnUse"
   id="clipPath3953"><path
     sodipodi:type="arc"
     style="opacity:0.45;fill:#000000;fill-opacity:1;stroke:none"
     id="path3955"
     sodipodi:cx="251.65399"
     sodipodi:cy="43.541817"
     sodipodi:rx="36.746708"
     sodipodi:ry="36.746708"
     d="m 288.4007,43.541817 a 36.746708,36.746708 0 1 1 -73.49342,0 36.746708,36.746708 0 1 1 73.49342,0 z"
     transform="translate(0.8707751,73.493413)" /></clipPath><clipPath
   clipPathUnits="userSpaceOnUse"
   id="clipPath3961"><path
     transform="translate(1.3932401,149.42499)"
     d="m 288.4007,43.541817 a 36.746708,36.746708 0 1 1 -73.49342,0 36.746708,36.746708 0 1 1 73.49342,0 z"
     sodipodi:ry="36.746708"
     sodipodi:rx="36.746708"
     sodipodi:cy="43.541817"
     sodipodi:cx="251.65399"
     id="path3963"
     style="opacity:0.45;fill:#000000;fill-opacity:1;stroke:none"
     sodipodi:type="arc" /></clipPath></defs><sodipodi:namedview
     pagecolor="#ffffff"
     bordercolor="#666666"
     borderopacity="1"
     objecttolerance="10"
     gridtolerance="10"
     guidetolerance="10"
     inkscape:pageopacity="0"
     inkscape:pageshadow="2"
     inkscape:window-width="1366"
     inkscape:window-height="744"
     id="namedview4"
     showgrid="false"
     inkscape:zoom="1.4355028"
     inkscape:cx="124.18058"
     inkscape:cy="60.76197"
     inkscape:window-x="0"
     inkscape:window-y="24"
     inkscape:window-maximized="1"
     inkscape:current-layer="g10" /><g
     id="g10"
     inkscape:groupmode="layer"
     inkscape:label="inexistentlimit"
     transform="matrix(1.25,0,0,-1.25,0,232.5)"><path
       style="opacity:1;fill:none;fill-opacity:1;stroke:#000000;stroke-width:0.53149606000000005;stroke-miterlimit:4;stroke-dasharray:none;stroke-linecap:round"
       d="m 145.78125,79.78125 c 8.13741,26.83613 42.08449,32.30771 70.03125,38.53125 0.67124,19.70482 16.85043,35.46875 36.71875,35.46875 20.29465,0 36.75,-16.45535 36.75,-36.75 0,-20.294646 -16.45535,-36.75 -36.75,-36.75 -18.78926,0 -34.27331,14.115252 -36.46875,32.3125 -3.55878,-0.0802 -64.21678,-5.27731 -70.28125,-32.8125 z"
       transform="matrix(0.8,0,0,-0.8,0,186)"
       id="path3920"
       inkscape:connector-curvature="0"
       sodipodi:nodetypes="ccssscc" /><g
       id="g22"
       transform="translate(-151.68751,-239.71641)" /><path
       style="color:#000000;fill:none;stroke:#000000;stroke-width:0.85039365;stroke-linecap:round;stroke-linejoin:miter;stroke-miterlimit:4;stroke-opacity:1;stroke-dasharray:none;stroke-dashoffset:0;marker:none;visibility:visible;display:inline;overflow:visible;enable-background:accumulate"
       d="m 16.161537,105.61199 c 24.233823,-47.126908 40.112486,27.44173 53.524894,27.44173 7.86252,0 8.632205,-20.29132 14.833157,-20.29132 5.693744,0 10.157116,18.61017 13.443588,18.61017 2.654454,0 4.381634,-16.36334 6.909694,-16.36334 2.02245,0 3.84598,16.9473 5.36281,16.9473 1.90025,0 1.99538,-16.28708 3.25941,-16.28708 2.02245,0 4.7124,16.0098 6.43339,16.0098 2.14885,0 3.49584,-16.02807 5.78629,-16.02807 2.65446,0 5.56716,16.30663 9.51109,16.30663 3.99371,0 3.76973,-15.86506 8.39035,-15.86506 3.92052,0 4.15126,5.46765 4.15126,5.46765"
       id="path3767"
       inkscape:connector-curvature="0"
       sodipodi:nodetypes="cccccccccccc" /><path
       sodipodi:type="arc"
       style="fill:#ffffff;stroke:none"
       id="path3786"
       sodipodi:cx="305.56888"
       sodipodi:cy="411.76385"
       sodipodi:rx="2.7372715"
       sodipodi:ry="2.7372715"
       d="m 308.30615,411.76385 a 2.7372715,2.7372715 0 1 1 -5.47454,0 2.7372715,2.7372715 0 1 1 5.47454,0 z"
       transform="matrix(0.8,0,0,-0.8,-127.68751,452.28359)" /><path
       style="color:#000000;fill:none;stroke:#000000;stroke-width:0.42480001;stroke-linecap:round;stroke-linejoin:miter;stroke-miterlimit:4;stroke-opacity:1;stroke-dasharray:none;stroke-dashoffset:0;marker:none;visibility:visible;display:inline;overflow:visible;enable-background:accumulate"
       d="m 2.80772,63.81513 154.44915,0"
       id="path3778"
       inkscape:connector-curvature="0" /><path
       style="color:#000000;fill:none;stroke:#000000;stroke-width:0.42480001;stroke-linecap:round;stroke-linejoin:miter;stroke-miterlimit:4;stroke-opacity:1;stroke-dasharray:none;stroke-dashoffset:0;marker:none;visibility:visible;display:inline;overflow:visible;enable-background:accumulate"
       d="m 29.08553,26.21043 0,136.481"
       id="path3780"
       inkscape:connector-curvature="0"
       sodipodi:nodetypes="cc" /><path
       style="color:#000000;fill:none;stroke:#000000;stroke-width:0.42480001;stroke-linecap:round;stroke-linejoin:miter;stroke-miterlimit:4;stroke-opacity:1;stroke-dasharray:2.54880009, 2.54880009;stroke-dashoffset:0;marker:none;visibility:visible;display:inline;overflow:visible;enable-background:accumulate"
       d="m 116.71236,63.838798 0,69.744332"
       id="path3782"
       inkscape:connector-curvature="0"
       sodipodi:nodetypes="cc" /><path
       style="color:#000000;fill:none;stroke:#000000;stroke-width:0.42480001;stroke-linecap:round;stroke-linejoin:miter;stroke-miterlimit:4;stroke-opacity:1;stroke-dasharray:2.54880009, 2.54880009;stroke-dashoffset:0;marker:none;visibility:visible;display:inline;overflow:visible;enable-background:accumulate"
       d="m 116.67822,122.48872 -87.59269,0"
       id="path3784"
       inkscape:connector-curvature="0"
       sodipodi:nodetypes="cc" /><path
       sodipodi:type="arc"
       style="fill:#000000;fill-opacity:1;stroke:none"
       id="path3788"
       sodipodi:cx="305.48511"
       sodipodi:cy="411.26108"
       sodipodi:rx="1.0334597"
       sodipodi:ry="1.0334597"
       d="m 306.51857,411.26108 a 1.0334597,1.0334597 0 1 1 -2.06692,0 1.0334597,1.0334597 0 1 1 2.06692,0 z"
       transform="matrix(1.6457221,0,0,-1.6457221,-385.90638,799.83059)" /><path
       transform="matrix(1.6457221,0,0,-1.6457221,-299.2325,767.89548)"
       d="m 306.51857,411.26108 a 1.0334597,1.0334597 0 1 1 -2.06692,0 1.0334597,1.0334597 0 1 1 2.06692,0 z"
       sodipodi:ry="1.0334597"
       sodipodi:rx="1.0334597"
       sodipodi:cy="411.26108"
       sodipodi:cx="305.48511"
       id="path3790"
       style="fill:#000000;fill-opacity:1;stroke:none"
       sodipodi:type="arc" /><text
       xml:space="preserve"
       style="font-size:9.60000038px;font-style:oblique;font-variant:normal;font-weight:normal;font-stretch:normal;text-indent:0;text-align:center;text-decoration:none;line-height:125%;letter-spacing:0px;word-spacing:0px;text-transform:none;direction:ltr;block-progression:tb;writing-mode:lr-tb;text-anchor:middle;baseline-shift:baseline;color:#000000;fill:#000000;fill-opacity:1;fill-rule:nonzero;stroke:none;stroke-width:1.953125;marker:none;visibility:visible;display:inline;overflow:visible;enable-background:accumulate;font-family:Times New Roman;-inkscape-font-specification:'Times New Roman, Italic'"
       x="18.30776"
       y="-159.20381"
       id="text3796"
       sodipodi:linespacing="125%"
       transform="scale(1,-1)"><tspan
         sodipodi:role="line"
         id="tspan3798"
         x="18.30776"
         y="-159.20381">f<tspan
   style="font-style:normal;-inkscape-font-specification:'Times New Roman,'"
   id="tspan3808"
   dx="1.2640283">(</tspan>x<tspan
   style="font-style:normal;-inkscape-font-specification:'Times New Roman,'"
   id="tspan3804">)</tspan></tspan></text>
<text
       xml:space="preserve"
       style="font-size:9.60000038px;font-style:oblique;font-variant:normal;font-weight:normal;font-stretch:normal;text-indent:0;text-align:center;text-decoration:none;line-height:125%;letter-spacing:0px;word-spacing:0px;text-transform:none;direction:ltr;block-progression:tb;writing-mode:lr-tb;text-anchor:middle;baseline-shift:baseline;color:#000000;fill:#000000;fill-opacity:1;fill-rule:nonzero;stroke:none;stroke-width:1.953125;marker:none;visibility:visible;display:inline;overflow:visible;enable-background:accumulate;font-family:Times New Roman;-inkscape-font-specification:'Times New Roman, Italic'"
       x="117.6862"
       y="-55.230495"
       id="text3810"
       sodipodi:linespacing="125%"
       transform="scale(1,-1)"><tspan
         sodipodi:role="line"
         id="tspan3812"
         x="117.6862"
         y="-55.230495">c</tspan></text>
<text
       xml:space="preserve"
       style="font-size:9.60000038px;font-style:oblique;font-variant:normal;font-weight:normal;font-stretch:normal;text-indent:0;text-align:center;text-decoration:none;line-height:125%;letter-spacing:0px;word-spacing:0px;text-transform:none;direction:ltr;block-progression:tb;writing-mode:lr-tb;text-anchor:middle;baseline-shift:baseline;color:#000000;fill:#000000;fill-opacity:1;fill-rule:nonzero;stroke:none;stroke-width:1.953125;marker:none;visibility:visible;display:inline;overflow:visible;enable-background:accumulate;font-family:Times New Roman;-inkscape-font-specification:'Times New Roman, Italic'"
       x="155.10559"
       y="-55.106503"
       id="text3814"
       sodipodi:linespacing="125%"
       transform="scale(1,-1)"><tspan
         sodipodi:role="line"
         id="tspan3816"
         x="155.10559"
         y="-55.106503">x</tspan></text>
<text
       xml:space="preserve"
       style="font-size:9.60000038px;font-style:oblique;font-variant:normal;font-weight:normal;font-stretch:normal;text-indent:0;text-align:center;text-decoration:none;line-height:125%;letter-spacing:0px;word-spacing:0px;text-transform:none;direction:ltr;block-progression:tb;writing-mode:lr-tb;text-anchor:middle;baseline-shift:baseline;color:#000000;fill:#000000;fill-opacity:1;fill-rule:nonzero;stroke:none;stroke-width:1.953125;marker:none;visibility:visible;display:inline;overflow:visible;enable-background:accumulate;font-family:Times New Roman;-inkscape-font-specification:'Times New Roman, Italic'"
       x="208.82912"
       y="-80.972694"
       id="text3818"
       sodipodi:linespacing="125%"
       transform="scale(1,-1)"><tspan
         sodipodi:role="line"
         id="tspan3820"
         x="208.82912"
         y="-80.972694"><tspan
   style="font-style:normal;-inkscape-font-specification:'Times New Roman,'"
   id="tspan3826">(</tspan>c, L<tspan
   style="font-style:normal;-inkscape-font-specification:'Times New Roman,'"
   id="tspan3824">)</tspan></tspan></text>
<path
       style="color:#000000;fill:none;stroke:#000000;stroke-width:1.0629921;stroke-linecap:round;stroke-linejoin:miter;stroke-miterlimit:4;stroke-opacity:1;stroke-dasharray:none;stroke-dashoffset:0;marker:none;visibility:visible;display:none;overflow:visible;enable-background:accumulate"
       d="m 220.92426,58.617585 c 0,0 1.05474,-5.911017 2.70921,-5.911017 5.42403,0 9.62247,124.131352 16.50159,124.131352 7.32746,0 6.77715,-127.086861 16.00901,-127.086861 9.52505,-0.735899 10.47625,138.073821 17.24046,138.170021 8.37575,0 3.70708,-145.066207 12.06833,-145.066207 2.08986,0 3.44809,5.911017 3.44809,5.911017"
       id="path3912"
       inkscape:connector-curvature="0"
       sodipodi:nodetypes="ccccccc"
       transform="matrix(0.8,0,0,-0.8,0,186)" /><path
       sodipodi:type="arc"
       style="fill:#000000;fill-opacity:1;stroke:none"
       id="path3914"
       sodipodi:cx="305.48511"
       sodipodi:cy="411.26108"
       sodipodi:rx="1.0334597"
       sodipodi:ry="1.0334597"
       d="m 306.51857,411.26108 a 1.0334597,1.0334597 0 1 1 -2.06692,0 1.0334597,1.0334597 0 1 1 2.06692,0 z"
       transform="matrix(1.6457221,0,0,-1.6457221,-299.78979,708.12548)" /><path
       sodipodi:type="arc"
       style="fill:#000000;fill-opacity:1;stroke:none"
       id="path3916"
       sodipodi:cx="305.48511"
       sodipodi:cy="411.26108"
       sodipodi:rx="1.0334597"
       sodipodi:ry="1.0334597"
       d="m 306.51857,411.26108 a 1.0334597,1.0334597 0 1 1 -2.06692,0 1.0334597,1.0334597 0 1 1 2.06692,0 z"
       transform="matrix(1.6457221,0,0,-1.6457221,-299.65048,829.19804)" /><path
       style="opacity:1;fill:none;fill-opacity:1;stroke:#000000;stroke-width:0.53149606000000005;stroke-miterlimit:4;stroke-dasharray:none;stroke-linecap:round"
       d="M 253.21875 4.1875 C 232.9241 4.1875 216.46875 20.642854 216.46875 40.9375 C 216.46875 42.571949 216.60567 44.171984 216.8125 45.75 L 146.125 64.53125 L 217.875 51.03125 C 222.26432 66.412982 236.42819 77.6875 253.21875 77.6875 C 273.5134 77.6875 289.96875 61.232146 289.96875 40.9375 C 289.96875 20.642854 273.5134 4.1875 253.21875 4.1875 z "
       transform="matrix(0.8,0,0,-0.8,0,186)"
       id="path3918" /><path
       style="fill:none;stroke:#000000;stroke-width:0.53149605;stroke-linecap:round;stroke-miterlimit:4;stroke-dasharray:none"
       d="m 145.81806,92.25 -0.13056,0.34375 79.875,75.96875 c -5.76503,6.48895 -9.25,15.04351 -9.25,24.40625 0,20.29465 16.45535,36.75 36.75,36.75 20.29465,0 36.71875,-16.45535 36.71875,-36.75 0,-20.29465 -16.4241,-36.75 -36.71875,-36.75 -9.21966,0 -17.64237,3.42272 -24.09375,9.03125 z"
       transform="matrix(0.8,0,0,-0.8,0,186)"
       id="path3922"
       inkscape:connector-curvature="0"
       sodipodi:nodetypes="cccsssscc" /><path
       transform="matrix(0.8,0,0,-0.8,0,186)"
       sodipodi:nodetypes="ccccccc"
       inkscape:connector-curvature="0"
       id="path3941"
       d="m 220.92426,58.617585 c 0,0 1.05474,-5.911017 2.70921,-5.911017 5.42403,0 9.62247,124.131352 16.50159,124.131352 7.32746,0 6.77715,-127.086861 16.00901,-127.086861 9.52505,-0.735899 10.47625,138.073821 17.24046,138.170021 8.37575,0 3.70708,-145.066207 12.06833,-145.066207 2.08986,0 3.44809,5.911017 3.44809,5.911017"
       style="color:#000000;fill:none;stroke:#000000;stroke-width:1.06299213;stroke-linecap:round;stroke-linejoin:miter;stroke-miterlimit:4;stroke-opacity:1;stroke-dasharray:none;stroke-dashoffset:0;marker:none;visibility:visible;display:inline;overflow:visible;enable-background:accumulate"
       clip-path="url(#clipPath3945)" /><path
       transform="matrix(0.8,0,0,-0.8,0,186)"
       sodipodi:nodetypes="ccccccc"
       inkscape:connector-curvature="0"
       id="path3951"
       d="m 220.92426,58.617585 c 0,0 1.05474,-5.911017 2.70921,-5.911017 5.42403,0 9.62247,124.131352 16.50159,124.131352 7.32746,0 6.77715,-127.086861 16.00901,-127.086861 9.52505,-0.735899 10.47625,138.073821 17.24046,138.170021 8.37575,0 3.70708,-145.066207 12.06833,-145.066207 2.08986,0 3.44809,5.911017 3.44809,5.911017"
       style="color:#000000;fill:none;stroke:#000000;stroke-width:1.06299213;stroke-linecap:round;stroke-linejoin:miter;stroke-miterlimit:4;stroke-opacity:1;stroke-dasharray:none;stroke-dashoffset:0;marker:none;visibility:visible;display:inline;overflow:visible;enable-background:accumulate"
       clip-path="url(#clipPath3953)" /><path
       transform="matrix(0.8,0,0,-0.8,0,186)"
       sodipodi:nodetypes="ccccccc"
       inkscape:connector-curvature="0"
       id="path3959"
       d="m 220.92426,58.617585 c 0,0 1.05474,-5.911017 2.70921,-5.911017 5.42403,0 9.62247,124.131352 16.50159,124.131352 7.32746,0 6.77715,-127.086861 16.00901,-127.086861 9.52505,-0.735899 10.47625,138.073821 17.24046,138.170021 8.37575,0 3.70708,-145.066207 12.06833,-145.066207 2.08986,0 3.44809,5.911017 3.44809,5.911017"
       style="color:#000000;fill:none;stroke:#000000;stroke-width:1.06299213;stroke-linecap:round;stroke-linejoin:miter;stroke-miterlimit:4;stroke-opacity:1;stroke-dasharray:none;stroke-dashoffset:0;marker:none;visibility:visible;display:inline;overflow:visible;enable-background:accumulate"
       clip-path="url(#clipPath3961)" /><text
       transform="scale(1,-1)"
       sodipodi:linespacing="125%"
       id="text3965"
       y="-21.759993"
       x="202.42021"
       style="font-size:9.60000038px;font-style:oblique;font-variant:normal;font-weight:normal;font-stretch:normal;text-indent:0;text-align:center;text-decoration:none;line-height:125%;letter-spacing:0px;word-spacing:0px;text-transform:none;direction:ltr;block-progression:tb;writing-mode:lr-tb;text-anchor:middle;baseline-shift:baseline;color:#000000;fill:#000000;fill-opacity:1;fill-rule:nonzero;stroke:none;stroke-width:1.953125;marker:none;visibility:visible;display:inline;overflow:visible;enable-background:accumulate;font-family:Times New Roman;-inkscape-font-specification:'Times New Roman, Italic'"
       xml:space="preserve"><tspan
         y="-21.759993"
         x="202.42021"
         id="tspan3967"
         sodipodi:role="line"><tspan
   id="tspan3969"
   style="font-style:normal;-inkscape-font-specification:'Times New Roman,'">(</tspan>c, N<tspan
   id="tspan3971"
   style="font-style:normal;-inkscape-font-specification:'Times New Roman,'">)</tspan></tspan></text>
<text
       xml:space="preserve"
       style="font-size:9.60000038px;font-style:oblique;font-variant:normal;font-weight:normal;font-stretch:normal;text-indent:0;text-align:center;text-decoration:none;line-height:125%;letter-spacing:0px;word-spacing:0px;text-transform:none;direction:ltr;block-progression:tb;writing-mode:lr-tb;text-anchor:middle;baseline-shift:baseline;color:#000000;fill:#000000;fill-opacity:1;fill-rule:nonzero;stroke:none;stroke-width:1.953125;marker:none;visibility:visible;display:inline;overflow:visible;enable-background:accumulate;font-family:Times New Roman;-inkscape-font-specification:'Times New Roman, Italic'"
       x="202.55954"
       y="-157.87955"
       id="text3973"
       sodipodi:linespacing="125%"
       transform="scale(1,-1)"><tspan
         sodipodi:role="line"
         id="tspan3975"
         x="202.55954"
         y="-157.87955"><tspan
   style="font-style:normal;-inkscape-font-specification:'Times New Roman,'"
   id="tspan3977">(</tspan>c, M<tspan
   style="font-style:normal;-inkscape-font-specification:'Times New Roman,'"
   id="tspan3979">)</tspan></tspan></text>
<path
       transform="matrix(1.6457221,0,0,-1.6457221,-385.90638,810.47042)"
       d="m 306.51857,411.26108 a 1.0334597,1.0334597 0 1 1 -2.06692,0 1.0334597,1.0334597 0 1 1 2.06692,0 z"
       sodipodi:ry="1.0334597"
       sodipodi:rx="1.0334597"
       sodipodi:cy="411.26108"
       sodipodi:cx="305.48511"
       id="path3981"
       style="fill:#000000;fill-opacity:1;stroke:none"
       sodipodi:type="arc" /><path
       sodipodi:type="arc"
       style="fill:#000000;fill-opacity:1;stroke:none"
       id="path3983"
       sodipodi:cx="305.48511"
       sodipodi:cy="411.26108"
       sodipodi:rx="1.0334597"
       sodipodi:ry="1.0334597"
       d="m 306.51857,411.26108 a 1.0334597,1.0334597 0 1 1 -2.06692,0 1.0334597,1.0334597 0 1 1 2.06692,0 z"
       transform="matrix(1.6457221,0,0,-1.6457221,-385.90638,788.59966)" /></g></svg>