<?xml version="1.0" encoding="UTF-8" standalone="no"?>
<!-- Created with Inkscape (http://www.inkscape.org/) -->

<svg
   xmlns:dc="http://purl.org/dc/elements/1.1/"
   xmlns:cc="http://creativecommons.org/ns#"
   xmlns:rdf="http://www.w3.org/1999/02/22-rdf-syntax-ns#"
   xmlns:svg="http://www.w3.org/2000/svg"
   xmlns="http://www.w3.org/2000/svg"
   xmlns:xlink="http://www.w3.org/1999/xlink"
   xmlns:sodipodi="http://sodipodi.sourceforge.net/DTD/sodipodi-0.dtd"
   xmlns:inkscape="http://www.inkscape.org/namespaces/inkscape"
   id="svg2"
   version="1.1"
   inkscape:version="0.48.3.1 r9886"
   width="198.90105"
   height="94.043564"
   xml:space="preserve"
   sodipodi:docname="inkblot.svg"><metadata
     id="metadata8"><rdf:RDF><cc:Work
         rdf:about=""><dc:format>image/svg+xml</dc:format><dc:type
           rdf:resource="http://purl.org/dc/dcmitype/StillImage" /><dc:title /></cc:Work></rdf:RDF></metadata><defs
     id="defs6"><marker
       inkscape:stockid="Arrow1Mend"
       orient="auto"
       refY="0"
       refX="0"
       id="Arrow1Mend"
       style="overflow:visible"><path
         id="path3837"
         d="M 0,0 5,-5 -12.5,0 5,5 0,0 z"
         style="fill-rule:evenodd;stroke:#000000;stroke-width:1pt"
         transform="matrix(-0.4,0,0,-0.4,-4,0)"
         inkscape:connector-curvature="0" /></marker><linearGradient
       id="linearGradient3804"><stop
         style="stop-color:#fafafa;stop-opacity:1;"
         offset="0"
         id="stop3806" /><stop
         id="stop3812"
         offset="0.53191489"
         style="stop-color:#f7f7f7;stop-opacity:1;" /><stop
         style="stop-color:#4f4f4f;stop-opacity:1;"
         offset="1"
         id="stop3808" /></linearGradient><radialGradient
       inkscape:collect="always"
       xlink:href="#linearGradient3804"
       id="radialGradient3814"
       cx="338.35208"
       cy="735.66199"
       fx="338.35208"
       fy="735.66199"
       r="6.1852064"
       gradientTransform="matrix(1.2459467,-0.33818648,0.7433564,2.738674,-630.45928,-1164.7945)"
       gradientUnits="userSpaceOnUse" /></defs><sodipodi:namedview
     pagecolor="#ffffff"
     bordercolor="#666666"
     borderopacity="1"
     objecttolerance="10"
     gridtolerance="10"
     guidetolerance="10"
     inkscape:pageopacity="0"
     inkscape:pageshadow="2"
     inkscape:window-width="1366"
     inkscape:window-height="744"
     id="namedview4"
     showgrid="false"
     units="mm"
     fit-margin-top="1"
     fit-margin-left="1"
     fit-margin-right="1"
     fit-margin-bottom="1"
     inkscape:zoom="6.2916882"
     inkscape:cx="128.68763"
     inkscape:cy="10.671729"
     inkscape:window-x="0"
     inkscape:window-y="24"
     inkscape:window-maximized="1"
     inkscape:current-layer="g10" /><g
     id="g10"
     inkscape:groupmode="layer"
     inkscape:label="keislercalc-12-27-13"
     transform="matrix(1.25,0,0,-1.25,-252.53951,177.3438)"><g
   id="g12"
   style="opacity:0.45"><g
     id="g14"><g
       id="g16"
       transform="scale(500.64,712.32)" /></g><g
     id="g20" /></g><g
   id="g22" /><path
   style="color:#000000;fill:none;stroke:#000000;stroke-width:0.53100002;stroke-linecap:round;stroke-linejoin:miter;stroke-miterlimit:4;stroke-opacity:1;stroke-dasharray:none;stroke-dashoffset:0;marker:none;visibility:visible;display:inline;overflow:visible;enable-background:accumulate"
   d="m 226.34832,782.89096 53.04687,-36.18876 138.23656,0 -54.84507,35.73921 z"
   id="path3767"
   inkscape:connector-curvature="0"
   transform="matrix(0.8,0,0,-0.8,24,696)" /><path
   sodipodi:type="arc"
   style="fill:#2a7fff;fill-opacity:1;stroke:#000000;stroke-width:0.53149605;stroke-miterlimit:4;stroke-dasharray:none"
   id="path3800"
   sodipodi:cx="347.05243"
   sodipodi:cy="762.77362"
   sodipodi:rx="20.454515"
   sodipodi:ry="7.9795089"
   d="m 367.50694,762.77362 c 0,4.40696 -9.15779,7.97951 -20.45451,7.97951 -11.29672,0 -20.45452,-3.57255 -20.45452,-7.97951 0,-4.40696 9.1578,-7.97951 20.45452,-7.97951 11.29672,0 20.45451,3.57255 20.45451,7.97951 z"
   transform="matrix(0.8,0,0,-0.8,24,696)" /><path
   sodipodi:type="arc"
   style="fill:#000000;fill-opacity:1;stroke:none"
   id="path3802"
   sodipodi:cx="245.90373"
   sodipodi:cy="727.25916"
   sodipodi:rx="2.5849113"
   sodipodi:ry="2.5849113"
   d="m 248.48864,727.25916 c 0,1.4276 -1.1573,2.58491 -2.58491,2.58491 -1.4276,0 -2.58491,-1.15731 -2.58491,-2.58491 0,-1.42761 1.15731,-2.58492 2.58491,-2.58492 1.42761,0 2.58491,1.15731 2.58491,2.58492 z"
   transform="matrix(0.30842222,0,0,-0.18390994,225.82822,219.34493)" /><g
   id="g3781"
   transform="translate(-0.17981992,0.53945975)"><path
     sodipodi:nodetypes="cccccc"
     transform="matrix(0.8,0,0,-0.8,24,696)"
     inkscape:connector-curvature="0"
     id="path3773"
     d="m 341.88261,746.25265 0.44955,11.01397 c 1.73907,1.83001 3.49659,3.07306 4.94505,6.29369 -0.0763,-3.45571 0.98164,-5.55029 1.57343,-8.20428 l -4.4955,-9.89009 z"
     style="color:#000000;fill:#ffffff;stroke:#000000;stroke-width:0.53100002;stroke-linecap:round;stroke-linejoin:miter;stroke-miterlimit:4;stroke-opacity:1;stroke-dasharray:none;stroke-dashoffset:0;marker:none;visibility:visible;display:inline;overflow:visible;enable-background:accumulate" /><path
     inkscape:connector-curvature="0"
     id="path3777"
     d="m 301.61562,86.082636 -1.39361,6.06892"
     style="color:#000000;fill:none;stroke:#000000;stroke-width:0.42480001;stroke-linecap:round;stroke-linejoin:miter;stroke-miterlimit:4;stroke-opacity:1;stroke-dasharray:none;stroke-dashoffset:0;marker:none;visibility:visible;display:inline;overflow:visible;enable-background:accumulate" /><path
     transform="matrix(0.4078898,0,0,-0.4078898,168.75436,398.63834)"
     d="m 323.39488,750.74817 c 0,0.65173 -0.52833,1.18007 -1.18007,1.18007 -0.65173,0 -1.18007,-0.52834 -1.18007,-1.18007 0,-0.65173 0.52834,-1.18007 1.18007,-1.18007 0.65174,0 1.18007,0.52834 1.18007,1.18007 z"
     sodipodi:ry="1.1800683"
     sodipodi:rx="1.1800683"
     sodipodi:cy="750.74817"
     sodipodi:cx="322.21481"
     id="path3779"
     style="fill:#000000;fill-opacity:1;stroke:none"
     sodipodi:type="arc" /></g><path
   style="color:#000000;fill:url(#radialGradient3814);fill-opacity:1;stroke:#000000;stroke-width:0.53100002;stroke-linecap:round;stroke-linejoin:miter;stroke-miterlimit:4;stroke-opacity:1;stroke-dasharray:none;stroke-dashoffset:0;marker:none;visibility:visible;display:inline;overflow:visible;enable-background:accumulate"
   d="m 334.74601,729.50692 3.14685,15.79043 c 0.70914,2.33805 9.70899,1.60127 8.59764,-3.09065 l -3.93356,-15.50947 z"
   id="path3771"
   inkscape:connector-curvature="0"
   transform="matrix(0.8,0,0,-0.8,24,696)"
   sodipodi:nodetypes="ccccc" /><path
   sodipodi:nodetypes="ccccc"
   transform="matrix(0.8,0,0,-0.8,24,696)"
   inkscape:connector-curvature="0"
   id="path3775"
   d="m 328.05896,698.15082 6.63086,31.3561 c 1.01276,2.09728 8.33654,0.2229 7.97951,-2.36014 l -8.35271,-30.79104 z"
   style="color:#000000;fill:#fafafa;fill-opacity:1;stroke:none;stroke-width:0.53100002;marker:none;visibility:visible;display:inline;overflow:visible;enable-background:accumulate" /><path
   style="color:#000000;fill:none;stroke:#000000;stroke-width:0.53100002;stroke-linecap:round;stroke-linejoin:miter;stroke-miterlimit:4;stroke-opacity:1;stroke-dasharray:none;stroke-dashoffset:0;marker:none;visibility:visible;display:inline;overflow:visible;enable-background:accumulate"
   d="m 328.05896,698.15082 6.63086,31.3561 c 1.01276,2.09728 8.33654,0.2229 7.97951,-2.36014 l -8.22357,-30.76124"
   id="path3769"
   inkscape:connector-curvature="0"
   sodipodi:nodetypes="cccc"
   transform="matrix(0.8,0,0,-0.8,24,696)" /><text
   xml:space="preserve"
   style="font-size:9.60000038px;font-style:normal;font-variant:normal;font-weight:normal;font-stretch:normal;text-indent:0;text-align:center;text-decoration:none;line-height:125%;letter-spacing:0px;word-spacing:0px;text-transform:none;direction:ltr;block-progression:tb;writing-mode:lr-tb;text-anchor:middle;baseline-shift:baseline;color:#000000;fill:#000000;fill-opacity:1;fill-rule:nonzero;stroke:none;stroke-width:1.5625;marker:none;visibility:visible;display:inline;overflow:visible;enable-background:accumulate;font-family:Times New Roman;-inkscape-font-specification:Times New Roman"
   x="274.84879"
   y="-75.621315"
   id="text3816"
   sodipodi:linespacing="125%"
   transform="scale(1,-1)"><tspan
     sodipodi:role="line"
     id="tspan3818"
     x="274.84879"
     y="-75.621315">raio <tspan
   style="font-style:italic"
   id="tspan3820"
   dx="0.71927965">r</tspan></tspan></text>

</g></svg>