<?xml version="1.0" encoding="UTF-8" standalone="no"?>
<!-- Created with Inkscape (http://www.inkscape.org/) -->

<svg
   xmlns:dc="http://purl.org/dc/elements/1.1/"
   xmlns:cc="http://creativecommons.org/ns#"
   xmlns:rdf="http://www.w3.org/1999/02/22-rdf-syntax-ns#"
   xmlns:svg="http://www.w3.org/2000/svg"
   xmlns="http://www.w3.org/2000/svg"
   xmlns:sodipodi="http://sodipodi.sourceforge.net/DTD/sodipodi-0.dtd"
   xmlns:inkscape="http://www.inkscape.org/namespaces/inkscape"
   id="svg2"
   version="1.1"
   inkscape:version="0.48.3.1 r9886"
   width="292.90506"
   height="146.82742"
   xml:space="preserve"
   sodipodi:docname="keislercalc-12-27-13.pdf"><metadata
     id="metadata8"><rdf:RDF><cc:Work
         rdf:about=""><dc:format>image/svg+xml</dc:format><dc:type
           rdf:resource="http://purl.org/dc/dcmitype/StillImage" /><dc:title></dc:title></cc:Work></rdf:RDF></metadata><defs
     id="defs6" /><sodipodi:namedview
     pagecolor="#ffffff"
     bordercolor="#666666"
     borderopacity="1"
     objecttolerance="10"
     gridtolerance="10"
     guidetolerance="10"
     inkscape:pageopacity="0"
     inkscape:pageshadow="2"
     inkscape:window-width="1366"
     inkscape:window-height="744"
     id="namedview4"
     showgrid="false"
     units="mm"
     fit-margin-top="1"
     fit-margin-left="1"
     fit-margin-right="1"
     fit-margin-bottom="1"
     inkscape:zoom="1.5822431"
     inkscape:cx="242.3756"
     inkscape:cy="-22.274105"
     inkscape:window-x="0"
     inkscape:window-y="24"
     inkscape:window-maximized="1"
     inkscape:current-layer="g10" /><g
     id="g10"
     inkscape:groupmode="layer"
     inkscape:label="keislercalc-12-27-13"
     transform="matrix(1.25,0,0,-1.25,-189.31023,506.81861)"><g
       id="g22" /><path
       style="color:#000000;fill:none;stroke:#000000;stroke-width:1.0629921;stroke-linecap:round;stroke-linejoin:miter;stroke-miterlimit:4;stroke-opacity:1;stroke-dasharray:none;stroke-dashoffset:0;marker:none;visibility:visible;display:inline;overflow:visible;enable-background:accumulate"
       d="m 168.48186,432.60063 c 27.33677,50.78098 58.76084,-33.07071 75.52635,-33.07071 9.82815,0 13.25318,24.13269 21.00437,24.13269 7.11718,0 12.20381,-16.98226 16.3119,-16.98226 3.31807,0 5.10761,10.72563 8.26768,10.72563 2.52806,0 4.80748,-9.60838 6.70352,-9.60838 2.37531,0 4.34141,8.04423 5.92145,8.04423 2.52806,0 7.12196,-7.82078 9.2732,-7.82078 2.68606,0 2.27631,7.59733 5.13937,7.59733 3.31807,0 4.24974,-9.42328 8.07134,-9.42328 3.63752,0 7.42137,18.23042 13.19715,18.23042 4.90065,0 10.23807,-11.88356 10.23807,-11.88356"
       id="path3767"
       inkscape:connector-curvature="0"
       transform="matrix(0.8,0,0,-0.8,24,692)"
       sodipodi:nodetypes="cccccccccccc" /><path
       sodipodi:type="arc"
       style="fill:#ffffff;stroke:none"
       id="path3786"
       sodipodi:cx="305.56888"
       sodipodi:cy="411.76385"
       sodipodi:rx="2.7372715"
       sodipodi:ry="2.7372715"
       d="m 308.30615,411.76385 c 0,1.51176 -1.22552,2.73728 -2.73727,2.73728 -1.51176,0 -2.73727,-1.22552 -2.73727,-2.73728 0,-1.51175 1.22551,-2.73727 2.73727,-2.73727 1.51175,0 2.73727,1.22552 2.73727,2.73727 z"
       transform="matrix(0.8,0,0,-0.8,24,692)" /><path
       style="color:#000000;fill:none;stroke:#000000;stroke-width:1.0629921;stroke-linecap:round;stroke-linejoin:miter;stroke-miterlimit:4;stroke-opacity:1;stroke-dasharray:none;stroke-dashoffset:0;marker:none;visibility:visible;display:inline;overflow:visible;enable-background:accumulate"
       d="m 375.95588,456.17469 c 0,0 2.01105,-9.8877 3.46348,-9.94356 2.73727,0 1.62001,13.40704 4.24556,13.40704 2.62555,-0.0559 2.73663,-14.30084 5.13937,-14.30084 2.90701,0 2.34554,14.07739 4.58075,14.07739 3.07244,0 1.55869,-13.18359 4.13383,-13.18359 3.07296,0 1.00501,13.40704 4.02211,13.40704 1.67588,0 2.45398,-13.85394 4.02212,-13.85394 1.73534,0 1.8376,8.26768 2.90486,8.26768"
       id="path3769"
       inkscape:connector-curvature="0"
       transform="matrix(0.8,0,0,-0.8,24,692)"
       sodipodi:nodetypes="ccccccccc" /><path
       style="color:#000000;fill:none;stroke:#000000;stroke-width:1.0629921;stroke-linecap:round;stroke-linejoin:miter;stroke-miterlimit:4;stroke-opacity:1;stroke-dasharray:none;stroke-dashoffset:0;marker:none;visibility:visible;display:inline;overflow:visible;enable-background:accumulate"
       d="m 414.8363,455.83951 c 0,0 0.21986,4.13384 1.9552,4.13384 2.29037,0 1.83844,-13.96567 4.6366,-13.96567 2.01416,0 2.73631,14.02153 4.35729,14.02153 2.96546,0 1.67139,-14.69188 4.80419,-14.69188 3.57565,0 1.9455,15.02706 4.52488,15.02706 2.90486,0 1.8932,-14.74775 4.86005,-14.74775 3.01659,0 1.67533,13.74222 4.46902,13.74222 2.62555,0 2.90485,-12.01047 2.90485,-12.01047"
       id="path3771"
       inkscape:connector-curvature="0"
       transform="matrix(0.8,0,0,-0.8,24,692)"
       sodipodi:nodetypes="ccccccccc" /><path
       style="fill:none;stroke:#000000;stroke-width:0.53149605;stroke-linecap:round;stroke-miterlimit:4;stroke-dasharray:none"
       d="m 306.21875,413.5 c 8.77072,29.02962 55.25554,36.4053 68.90625,39.875 0.61564,19.70551 16.77005,35.5 36.625,35.5 20.245,0 36.65625,-16.41125 36.65625,-36.65625 0,-20.245 -16.41125,-36.65625 -36.65625,-36.65625 -18.73323,0 -34.17187,14.0489 -36.375,32.1875 -47.72584,-6.40943 -63.47088,-20.26108 -69.15625,-34.25 z"
       transform="matrix(0.8,0,0,-0.8,24,692)"
       id="path3773"
       inkscape:connector-curvature="0"
       sodipodi:nodetypes="ccssscc" /><path
       style="color:#000000;fill:none;stroke:#000000;stroke-width:0.42480001;stroke-linecap:round;stroke-linejoin:miter;stroke-miterlimit:4;stroke-opacity:1;stroke-dasharray:none;stroke-dashoffset:0;marker:none;visibility:visible;display:inline;overflow:visible;enable-background:accumulate"
       d="m 154.49523,303.53154 154.44915,0"
       id="path3778"
       inkscape:connector-curvature="0" /><path
       style="color:#000000;fill:none;stroke:#000000;stroke-width:0.53100002;stroke-linecap:round;stroke-linejoin:miter;stroke-miterlimit:4;stroke-opacity:1;stroke-dasharray:none;stroke-dashoffset:0;marker:none;visibility:visible;display:inline;overflow:visible;enable-background:accumulate"
       d="m 195.9663,501.20001 0,-139.20981"
       id="path3780"
       inkscape:connector-curvature="0"
       transform="matrix(0.8,0,0,-0.8,24,692)" /><path
       style="color:#000000;fill:none;stroke:#000000;stroke-width:0.53100002;stroke-linecap:round;stroke-linejoin:miter;stroke-miterlimit:4;stroke-opacity:1;stroke-dasharray:3.18600011, 3.18600011;stroke-dashoffset:0;marker:none;visibility:visible;display:inline;overflow:visible;enable-background:accumulate"
       d="m 305.49984,485.55599 0,-74.12692"
       id="path3782"
       inkscape:connector-curvature="0"
       transform="matrix(0.8,0,0,-0.8,24,692)"
       sodipodi:nodetypes="cc" /><path
       style="color:#000000;fill:none;stroke:#000000;stroke-width:0.42480001;stroke-linecap:round;stroke-linejoin:miter;stroke-miterlimit:4;stroke-opacity:1;stroke-dasharray:2.54880009, 2.54880009;stroke-dashoffset:0;marker:none;visibility:visible;display:inline;overflow:visible;enable-background:accumulate"
       d="m 268.36573,362.90175 -87.59269,0"
       id="path3784"
       inkscape:connector-curvature="0"
       sodipodi:nodetypes="cc" /><path
       sodipodi:type="arc"
       style="fill:#000000;fill-opacity:1;stroke:none"
       id="path3788"
       sodipodi:cx="305.48511"
       sodipodi:cy="411.26108"
       sodipodi:rx="1.0334597"
       sodipodi:ry="1.0334597"
       d="m 306.51857,411.26108 c 0,0.57076 -0.4627,1.03346 -1.03346,1.03346 -0.57077,0 -1.03346,-0.4627 -1.03346,-1.03346 0,-0.57077 0.46269,-1.03346 1.03346,-1.03346 0.57076,0 1.03346,0.46269 1.03346,1.03346 z"
       transform="matrix(1.6457221,0,0,-1.6457221,-234.21887,1039.547)" /><path
       transform="matrix(1.6457221,0,0,-1.6457221,-148.65958,1005.94)"
       d="m 306.51857,411.26108 c 0,0.57076 -0.4627,1.03346 -1.03346,1.03346 -0.57077,0 -1.03346,-0.4627 -1.03346,-1.03346 0,-0.57077 0.46269,-1.03346 1.03346,-1.03346 0.57076,0 1.03346,0.46269 1.03346,1.03346 z"
       sodipodi:ry="1.0334597"
       sodipodi:rx="1.0334597"
       sodipodi:cy="411.26108"
       sodipodi:cx="305.48511"
       id="path3790"
       style="fill:#000000;fill-opacity:1;stroke:none"
       sodipodi:type="arc" /><text
       xml:space="preserve"
       style="font-size:9.60000038px;font-style:oblique;font-variant:normal;font-weight:normal;font-stretch:normal;text-indent:0;text-align:center;text-decoration:none;line-height:125%;letter-spacing:0px;word-spacing:0px;text-transform:none;direction:ltr;block-progression:tb;writing-mode:lr-tb;text-anchor:middle;baseline-shift:baseline;color:#000000;fill:#000000;fill-opacity:1;fill-rule:nonzero;stroke:none;stroke-width:1.5625;marker:none;visibility:visible;display:inline;overflow:visible;enable-background:accumulate;font-family:Times New Roman;-inkscape-font-specification:'Times New Roman, Italic'"
       x="174.14095"
       y="-360.36844"
       id="text3792"
       sodipodi:linespacing="125%"
       transform="scale(1,-1)"><tspan
         sodipodi:role="line"
         id="tspan3794"
         x="174.14095"
         y="-360.36844">L</tspan></text>
<text
       xml:space="preserve"
       style="font-size:9.60000038px;font-style:oblique;font-variant:normal;font-weight:normal;font-stretch:normal;text-indent:0;text-align:center;text-decoration:none;line-height:125%;letter-spacing:0px;word-spacing:0px;text-transform:none;direction:ltr;block-progression:tb;writing-mode:lr-tb;text-anchor:middle;baseline-shift:baseline;color:#000000;fill:#000000;fill-opacity:1;fill-rule:nonzero;stroke:none;stroke-width:1.953125;marker:none;visibility:visible;display:inline;overflow:visible;enable-background:accumulate;font-family:Times New Roman;-inkscape-font-specification:'Times New Roman, Italic'"
       x="169.99527"
       y="-395.57645"
       id="text3796"
       sodipodi:linespacing="125%"
       transform="scale(1,-1)"><tspan
         sodipodi:role="line"
         id="tspan3798"
         x="169.99527"
         y="-395.57645">f<tspan
   style="font-style:normal;-inkscape-font-specification:'Times New Roman,'"
   id="tspan3808"
   dx="1.2640283">(</tspan>x<tspan
   style="font-style:normal;-inkscape-font-specification:'Times New Roman,'"
   id="tspan3804">)</tspan></tspan></text>
<text
       xml:space="preserve"
       style="font-size:12.00000095px;font-style:oblique;font-variant:normal;font-weight:normal;font-stretch:normal;text-indent:0;text-align:center;text-decoration:none;line-height:125%;letter-spacing:0px;word-spacing:0px;text-transform:none;direction:ltr;block-progression:tb;writing-mode:lr-tb;text-anchor:middle;baseline-shift:baseline;color:#000000;fill:#000000;fill-opacity:1;fill-rule:nonzero;stroke:none;stroke-width:1.953125;marker:none;visibility:visible;display:inline;overflow:visible;enable-background:accumulate;font-family:Times New Roman;-inkscape-font-specification:'Times New Roman, Italic'"
       x="306.36884"
       y="496.14221"
       id="text3810"
       sodipodi:linespacing="125%"
       transform="matrix(0.8,0,0,-0.8,24,692)"><tspan
         sodipodi:role="line"
         id="tspan3812"
         x="306.36884"
         y="496.14221">c</tspan></text>
<text
       xml:space="preserve"
       style="font-size:9.60000038px;font-style:oblique;font-variant:normal;font-weight:normal;font-stretch:normal;text-indent:0;text-align:center;text-decoration:none;line-height:125%;letter-spacing:0px;word-spacing:0px;text-transform:none;direction:ltr;block-progression:tb;writing-mode:lr-tb;text-anchor:middle;baseline-shift:baseline;color:#000000;fill:#000000;fill-opacity:1;fill-rule:nonzero;stroke:none;stroke-width:1.953125;marker:none;visibility:visible;display:inline;overflow:visible;enable-background:accumulate;font-family:Times New Roman;-inkscape-font-specification:'Times New Roman, Italic'"
       x="306.23581"
       y="-295.10156"
       id="text3814"
       sodipodi:linespacing="125%"
       transform="scale(1,-1)"><tspan
         sodipodi:role="line"
         id="tspan3816"
         x="306.23581"
         y="-295.10156">x</tspan></text>
<text
       xml:space="preserve"
       style="font-size:9.60000038px;font-style:oblique;font-variant:normal;font-weight:normal;font-stretch:normal;text-indent:0;text-align:center;text-decoration:none;line-height:125%;letter-spacing:0px;word-spacing:0px;text-transform:none;direction:ltr;block-progression:tb;writing-mode:lr-tb;text-anchor:middle;baseline-shift:baseline;color:#000000;fill:#000000;fill-opacity:1;fill-rule:nonzero;stroke:none;stroke-width:1.953125;marker:none;visibility:visible;display:inline;overflow:visible;enable-background:accumulate;font-family:Times New Roman;-inkscape-font-specification:'Times New Roman, Italic'"
       x="353.4111"
       y="-314.83749"
       id="text3818"
       sodipodi:linespacing="125%"
       transform="scale(1,-1)"><tspan
         sodipodi:role="line"
         id="tspan3820"
         x="353.4111"
         y="-314.83749"><tspan
   style="font-style:normal;-inkscape-font-specification:'Times New Roman,'"
   id="tspan3826">(</tspan>c, L<tspan
   style="font-style:normal;-inkscape-font-specification:'Times New Roman,'"
   id="tspan3824">)</tspan></tspan></text>
</g></svg>