<?xml version="1.0" encoding="UTF-8" standalone="no"?>
<!-- Created with Inkscape (http://www.inkscape.org/) -->

<svg
   xmlns:dc="http://purl.org/dc/elements/1.1/"
   xmlns:cc="http://creativecommons.org/ns#"
   xmlns:rdf="http://www.w3.org/1999/02/22-rdf-syntax-ns#"
   xmlns:svg="http://www.w3.org/2000/svg"
   xmlns="http://www.w3.org/2000/svg"
   xmlns:sodipodi="http://sodipodi.sourceforge.net/DTD/sodipodi-0.dtd"
   xmlns:inkscape="http://www.inkscape.org/namespaces/inkscape"
   id="svg2"
   version="1.1"
   inkscape:version="0.48.3.1 r9886"
   width="217.8"
   height="209.4"
   xml:space="preserve"
   sodipodi:docname="exhyperidentity.svg"><metadata
     id="metadata8"><rdf:RDF><cc:Work
         rdf:about=""><dc:format>image/svg+xml</dc:format><dc:type
           rdf:resource="http://purl.org/dc/dcmitype/StillImage" /></cc:Work></rdf:RDF></metadata><defs
     id="defs6" /><sodipodi:namedview
     pagecolor="#ffffff"
     bordercolor="#666666"
     borderopacity="1"
     objecttolerance="10"
     gridtolerance="10"
     guidetolerance="10"
     inkscape:pageopacity="0"
     inkscape:pageshadow="2"
     inkscape:window-width="1366"
     inkscape:window-height="744"
     id="namedview4"
     showgrid="false"
     showguides="true"
     inkscape:guide-bbox="true"
     inkscape:zoom="2"
     inkscape:cx="208.12286"
     inkscape:cy="71.448562"
     inkscape:window-x="0"
     inkscape:window-y="24"
     inkscape:window-maximized="1"
     inkscape:current-layer="g10"><sodipodi:guide
       orientation="-0.70710678,0.70710678"
       position="67.322986,58.644199"
       id="guide3843" /></sodipodi:namedview><g
     id="g10"
     inkscape:groupmode="layer"
     inkscape:label="exhyperidentity"
     transform="matrix(1.25,0,0,-1.25,0,209.4)"><g
       id="g3860"
       transform="matrix(-0.82483296,0,0,1,185.22959,66.924106)"><path
         id="path3858"
         style="color:#000000;fill:none;stroke:#000000;stroke-width:0.46773681;stroke-linecap:round;stroke-linejoin:miter;stroke-miterlimit:4;stroke-opacity:1;stroke-dasharray:none;stroke-dashoffset:0;marker:none;visibility:visible;display:inline;overflow:visible;enable-background:accumulate"
         d="m 184.81388,13.19508 38.31223,0 m -43.19928,0 2.98052,0 m -7.37886,0 2.98052,0 m -7.66394,0 2.98052,0 m -7.86756,0 2.98051,0 m -2.60832,0 2.98052,0 m -117.12426,0 -37.244978,0 m 42.132028,0 -2.980518,0 m 7.378863,0 -2.980518,0 m 7.663939,0 -2.98053,0 m 7.867569,0 -2.980519,0 m 7.704663,0 -2.980519,0 m 91.40443,-5e-5 -86.533965,0"
         inkscape:connector-curvature="0"
         sodipodi:nodetypes="cccccccccccccccccccccccccc" /><path
         sodipodi:nodetypes="cccccccccccccccccccccccccc"
         inkscape:connector-curvature="0"
         d="m 184.81388,13.19508 38.31223,0 m -43.19928,0 2.98052,0 m -7.37886,0 2.98052,0 m -7.66394,0 2.98052,0 m -7.86756,0 2.98051,0 m -2.60832,0 2.98052,0 m -117.12426,0 -37.244978,0 m 42.132028,0 -2.980518,0 m 7.378863,0 -2.980518,0 m 7.663939,0 -2.98053,0 m 7.867569,0 -2.980519,0 m 7.704663,0 -2.980519,0 m 91.40443,-5e-5 -86.533965,0"
         style="color:#000000;fill:none;stroke:#000000;stroke-width:0.46773681;stroke-linecap:round;stroke-linejoin:miter;stroke-miterlimit:4;stroke-opacity:1;stroke-dasharray:none;stroke-dashoffset:0;marker:none;visibility:visible;display:inline;overflow:visible;enable-background:accumulate"
         id="path3829" /></g><g
       transform="matrix(0,-0.82483296,-1,0,100.24164,178.30217)"
       id="g3831"><path
         sodipodi:nodetypes="cccccccccccccccccccccccccc"
         inkscape:connector-curvature="0"
         d="m 184.81388,13.19508 30.35191,0 m -35.23896,0 2.98052,0 m -7.37886,0 2.98052,0 m -7.66394,0 2.98052,0 m -7.86756,0 2.98051,0 m -2.60832,0 2.98052,0 m -115.184473,0 -39.184765,0 m 44.071815,0 -2.980518,0 m 7.378863,0 -2.980518,0 m 7.663939,0 -2.98053,0 m 7.867569,0 -2.980519,0 m 7.704663,0 -2.980519,0 m 89.464643,-5e-5 -84.594178,0"
         style="color:#000000;fill:none;stroke:#000000;stroke-width:0.46773681;stroke-linecap:round;stroke-linejoin:miter;stroke-miterlimit:4;stroke-opacity:1;stroke-dasharray:none;stroke-dashoffset:0;marker:none;visibility:visible;display:inline;overflow:visible;enable-background:accumulate"
         id="path3833" /></g><path
       id="path3877"
       style="color:#000000;fill:none;stroke:#000000;stroke-width:1.06299213000000004;stroke-linecap:butt;stroke-linejoin:miter;stroke-miterlimit:4;stroke-opacity:1;stroke-dasharray:none;stroke-dashoffset:0;marker:none;visibility:visible;display:inline;overflow:visible;enable-background:accumulate"
       d="m 163.60761,54.471171 3.46597,-3.465969 M 198.125,19.9375 176.55803,41.520747 z m -22.86054,22.876824 -2.89973,2.899729 z m -4.12508,4.125073 -3.23422,3.234223 z m -8.72304,8.723047 -2.86683,2.86683 z m -4.17251,4.172511 -2.85297,2.852966 z m -4.09263,4.092624 -2.73853,2.738533 z M 150.31495,67.763834 67.3125,150.75 z m -89.113823,89.113816 -2.897315,2.89732 z M 57.0625,161 l -3.061651,3.07793 z m -4.34635,4.36263 -2.990764,2.99077 z m -4.226713,4.22671 -2.740463,2.74047 z m -3.941482,3.94149 -22.329205,22.31292 z m 17.825626,-17.82563 3.493697,-3.4937"
       transform="matrix(0.8,0,0,-0.8,0,167.52)" /><path
       style="fill:none;stroke:#000000;stroke-width:0.42519683;stroke-linecap:round;stroke-linejoin:round;stroke-miterlimit:4;stroke-dasharray:none"
       d="m 109.88761,156.90397 c 3.42476,0.46654 7.02767,-0.0563 10.35997,-1.7027 8.88614,-4.39027 12.54538,-15.16858 8.15674,-24.05642 -3.00724,-6.09027 -9.01703,-9.71622 -15.35508,-9.9848 l -4.41935,-19.47318 -1.67767,20.29677 c -0.87756,0.27539 -1.75253,0.61518 -2.60297,1.03536 -8.886138,4.39028 -12.509621,15.14224 -8.120989,24.03008 2.742899,5.5549 7.951419,9.07741 13.659349,9.85489 z"
       id="path3907"
       inkscape:connector-curvature="0"
       sodipodi:nodetypes="ssscccsss"
       inkscape:transform-center-y="16.439643"
       inkscape:transform-center-x="-0.0084689041" /><path
       inkscape:connector-curvature="0"
       id="path3909"
       d="M 124.88922,151.69872 99.672066,126.53287"
       style="color:#000000;fill:none;stroke:#000000;stroke-width:1.27559054;stroke-linecap:butt;stroke-linejoin:miter;stroke-miterlimit:4;stroke-opacity:1;stroke-dasharray:none;stroke-dashoffset:0;marker:none;visibility:visible;display:inline;overflow:visible;enable-background:accumulate"
       inkscape:transform-center-x="0.031610222"
       inkscape:transform-center-y="0.018635707" /><path
       sodipodi:type="arc"
       style="fill:#000000;stroke:none"
       id="path3911"
       sodipodi:cx="105.00536"
       sodipodi:cy="49.913166"
       sodipodi:rx="18.031223"
       sodipodi:ry="18.031223"
       d="m 123.03659,49.913166 a 18.031223,18.031223 0 1 1 -36.06245,0 18.031223,18.031223 0 1 1 36.06245,0 z"
       transform="matrix(-0.0971867,0.06782318,-0.067807,-0.09720989,125.92396,136.85004)"
       inkscape:transform-center-x="-0.035552519"
       inkscape:transform-center-y="0.013649099" /><path
       transform="matrix(-0.0971867,0.06782318,-0.067807,-0.09720989,122.46182,99.65963)"
       d="m 123.03659,49.913166 a 18.031223,18.031223 0 1 1 -36.06245,0 18.031223,18.031223 0 1 1 36.06245,0 z"
       sodipodi:ry="18.031223"
       sodipodi:rx="18.031223"
       sodipodi:cy="49.913166"
       sodipodi:cx="105.00536"
       id="path3980"
       style="fill:#000000;stroke:none"
       sodipodi:type="arc"
       inkscape:transform-center-x="13.725259"
       inkscape:transform-center-y="54.304249" /><path
       inkscape:transform-center-x="-0.0084689041"
       inkscape:transform-center-y="16.439643"
       sodipodi:nodetypes="ssscccsss"
       inkscape:connector-curvature="0"
       id="path3894"
       d="m 10.522307,50.895888 c -0.7833566,3.366451 -0.5982155,7.002389 0.730799,10.473495 3.54391,9.256277 13.934735,13.903077 23.192553,10.360948 6.343791,-2.427179 10.513499,-8.073295 11.37098,-14.358813 l 15.30978,-3.188123 -15.562165,-2.959092 c -0.192493,-0.899387 -0.449349,-1.802191 -0.788528,-2.688056 -3.54392,-9.256275 -13.911839,-13.86502 -23.169656,-10.3229 -5.786136,2.213829 -9.778256,7.071784 -11.083763,12.682541 z"
       style="fill:none;stroke:#000000;stroke-width:0.42519683;stroke-linecap:round;stroke-linejoin:round;stroke-miterlimit:4;stroke-dasharray:none" /><path
       inkscape:transform-center-y="-0.033105075"
       inkscape:transform-center-x="0.015829336"
       style="color:#000000;fill:none;stroke:#000000;stroke-width:1.27559054;stroke-linecap:butt;stroke-linejoin:miter;stroke-miterlimit:4;stroke-opacity:1;stroke-dasharray:none;stroke-dashoffset:0;marker:none;visibility:visible;display:inline;overflow:visible;enable-background:accumulate"
       d="M 40.54915,67.641027 15.496969,42.310944"
       id="path3896"
       inkscape:connector-curvature="0" /><path
       inkscape:transform-center-y="0.013649099"
       inkscape:transform-center-x="-0.035552519"
       transform="matrix(-0.0584806,-0.10307889,0.10310047,-0.05846234,28.996167,68.729595)"
       d="m 123.03659,49.913166 a 18.031223,18.031223 0 1 1 -36.06245,0 18.031223,18.031223 0 1 1 36.06245,0 z"
       sodipodi:ry="18.031223"
       sodipodi:rx="18.031223"
       sodipodi:cy="49.913166"
       sodipodi:cx="105.00536"
       id="path3898"
       style="fill:#000000;stroke:none"
       sodipodi:type="arc" /><path
       inkscape:transform-center-y="54.304249"
       inkscape:transform-center-x="13.725259"
       sodipodi:type="arc"
       style="fill:#000000;stroke:none"
       id="path3900"
       sodipodi:cx="105.00536"
       sodipodi:cy="49.913166"
       sodipodi:rx="18.031223"
       sodipodi:ry="18.031223"
       d="m 123.03659,49.913166 a 18.031223,18.031223 0 1 1 -36.06245,0 18.031223,18.031223 0 1 1 36.06245,0 z"
       transform="matrix(-0.0584806,-0.10307889,0.10310047,-0.05846234,62.119123,67.944107)" /><g
       transform="matrix(0.806,0,0,-0.806,22.482949,211.39729)"
       id="page1"><text
         style="font-size:11.91049957px;font-style:italic;font-family:Times New Roman"
         class="f3"
         x="58.206501"
         y="65.753403"
         id="text3012">f</text>
<text
         style="font-size:11.91049957px;font-family:cmr10"
         class="f7"
         x="63.2551"
         y="65.753403"
         id="text3014">(</text>
<text
         style="font-size:11.91049957px;font-style:italic;font-family:Times New Roman"
         class="f3"
         x="67.876297"
         y="65.753403"
         id="text3016">x</text>
<text
         style="font-size:11.91049957px;font-family:cmr10"
         class="f7"
         x="73.200203"
         y="65.753403"
         id="text3018">)</text>
</g><text
       transform="scale(1,-1)"
       sodipodi:linespacing="125%"
       id="text3961"
       y="-134.10001"
       x="117.65"
       style="font-size:9.60000038px;font-style:italic;font-variant:normal;font-weight:normal;font-stretch:normal;text-indent:0;text-align:center;text-decoration:none;line-height:125%;letter-spacing:0px;word-spacing:0px;text-transform:none;direction:ltr;block-progression:tb;writing-mode:lr-tb;text-anchor:middle;baseline-shift:baseline;color:#000000;fill:#000000;fill-opacity:1;fill-rule:nonzero;stroke:none;stroke-width:1.25;marker:none;visibility:visible;display:inline;overflow:visible;enable-background:accumulate;font-family:Times New Roman;-inkscape-font-specification:Sans Italic"
       xml:space="preserve"><tspan
         y="-134.10001"
         x="117.65"
         id="tspan3963"
         sodipodi:role="line">c</tspan></text>
<text
       transform="scale(1,-1)"
       sodipodi:linespacing="125%"
       id="text3965"
       y="-94.099998"
       x="113.125"
       style="font-size:9.60000038px;font-style:italic;font-variant:normal;font-weight:normal;font-stretch:normal;text-indent:0;text-align:center;text-decoration:none;line-height:125%;letter-spacing:0px;word-spacing:0px;text-transform:none;direction:ltr;block-progression:tb;writing-mode:lr-tb;text-anchor:middle;baseline-shift:baseline;color:#000000;fill:#000000;fill-opacity:1;fill-rule:nonzero;stroke:none;stroke-width:1.25;marker:none;visibility:visible;display:inline;overflow:visible;enable-background:accumulate;font-family:Times New Roman;-inkscape-font-specification:Sans Italic"
       xml:space="preserve"><tspan
         y="-94.099998"
         x="113.125"
         id="tspan3967"
         sodipodi:role="line">c</tspan></text>
<text
       transform="scale(1,-1)"
       sodipodi:linespacing="125%"
       id="text3969"
       y="-46.100002"
       x="29.574219"
       style="font-size:9.60000038px;font-style:italic;font-variant:normal;font-weight:normal;font-stretch:normal;text-indent:0;text-align:start;text-decoration:none;line-height:125%;letter-spacing:0px;word-spacing:0px;text-transform:none;direction:ltr;block-progression:tb;writing-mode:lr-tb;text-anchor:start;baseline-shift:baseline;color:#000000;fill:#000000;fill-opacity:1;fill-rule:nonzero;stroke:none;stroke-width:1.25;marker:none;visibility:visible;display:inline;overflow:visible;enable-background:accumulate;font-family:Times New Roman;-inkscape-font-specification:Sans Italic"
       xml:space="preserve"><tspan
         y="-46.100002"
         x="29.574219"
         id="tspan3971"
         sodipodi:role="line">b</tspan></text>
<text
       transform="scale(1,-1)"
       sodipodi:linespacing="125%"
       id="text3973"
       y="-45.800003"
       x="65.300003"
       style="font-size:9.60000038px;font-style:italic;font-variant:normal;font-weight:normal;font-stretch:normal;text-indent:0;text-align:center;text-decoration:none;line-height:125%;letter-spacing:0px;word-spacing:0px;text-transform:none;direction:ltr;block-progression:tb;writing-mode:lr-tb;text-anchor:middle;baseline-shift:baseline;color:#000000;fill:#000000;fill-opacity:1;fill-rule:nonzero;stroke:none;stroke-width:1.25;marker:none;visibility:visible;display:inline;overflow:visible;enable-background:accumulate;font-family:Times New Roman;-inkscape-font-specification:Sans Italic"
       xml:space="preserve"><tspan
         y="-45.800003"
         x="65.300003"
         id="tspan3975"
         sodipodi:role="line">b</tspan></text>
<text
       transform="scale(1,-1)"
       sodipodi:linespacing="125%"
       id="text3977"
       y="-82.900009"
       x="170.5"
       style="font-size:9.60000038px;font-style:italic;font-variant:normal;font-weight:normal;font-stretch:normal;text-indent:0;text-align:center;text-decoration:none;line-height:125%;letter-spacing:0px;word-spacing:0px;text-transform:none;direction:ltr;block-progression:tb;writing-mode:lr-tb;text-anchor:middle;baseline-shift:baseline;color:#000000;fill:#000000;fill-opacity:1;fill-rule:nonzero;stroke:none;stroke-width:1.25;marker:none;visibility:visible;display:inline;overflow:visible;enable-background:accumulate;font-family:Times New Roman;-inkscape-font-specification:Sans Italic"
       xml:space="preserve"><tspan
         y="-82.900009"
         x="170.5"
         id="tspan3979"
         sodipodi:role="line">x</tspan></text>
<text
       transform="scale(1,-1)"
       sodipodi:linespacing="125%"
       id="text4019"
       y="-70.338875"
       x="91.06382"
       style="font-size:9.60000038px;font-style:normal;font-variant:normal;font-weight:normal;font-stretch:normal;text-indent:0;text-align:start;text-decoration:none;line-height:125%;letter-spacing:0px;word-spacing:0px;text-transform:none;direction:ltr;block-progression:tb;writing-mode:lr-tb;text-anchor:start;baseline-shift:baseline;color:#000000;fill:#000000;fill-opacity:1;fill-rule:nonzero;stroke:none;stroke-width:1.25;marker:none;visibility:visible;display:inline;overflow:visible;enable-background:accumulate;font-family:Times New Roman;-inkscape-font-specification:Times New Roman"
       xml:space="preserve"><tspan
         y="-70.338875"
         x="91.06382"
         id="tspan4021"
         sodipodi:role="line">Finito</tspan></text>
<text
       transform="scale(1,-1)"
       xml:space="preserve"
       style="font-size:9.60000038px;font-style:normal;font-variant:normal;font-weight:normal;font-stretch:normal;text-indent:0;text-align:end;text-decoration:none;line-height:125%;letter-spacing:0px;word-spacing:0px;text-transform:none;direction:ltr;block-progression:tb;writing-mode:lr-tb;text-anchor:end;baseline-shift:baseline;color:#000000;fill:#000000;fill-opacity:1;fill-rule:nonzero;stroke:none;stroke-width:1.25;marker:none;visibility:visible;display:inline;overflow:visible;enable-background:accumulate;font-family:Times New Roman;-inkscape-font-specification:Times New Roman"
       x="169.96431"
       y="-70.126755"
       id="text4027"
       sodipodi:linespacing="125%"><tspan
         sodipodi:role="line"
         id="tspan4029"
         x="169.96431"
         y="-70.126755">Inﬁnito</tspan></text>
</g></svg>